Playpen-Th00LongFast.ufo
<glyph name="exclam" format="2">
	<unicode hex="0021"/>
	<advance width="462"/>
	<outline>
		<contour>
			<point x="231" y="173" type="curve" smooth="yes"/>
			<point x="242" y="173"/>
			<point x="246" y="176"/>
			<point x="246" y="185" type="curve" smooth="yes"/>
			<point x="246" y="1200" type="line" smooth="yes"/>
			<point x="246" y="1209"/>
			<point x="241" y="1212"/>
			<point x="231" y="1212" type="curve" smooth="yes"/>
			<point x="220" y="1212"/>
			<point x="216" y="1209"/>
			<point x="216" y="1200" type="curve" smooth="yes"/>
			<point x="216" y="185" type="line" smooth="yes"/>
			<point x="216" y="176"/>
			<point x="220" y="173"/>
		</contour>
		<contour>
			<point x="231" y="-11" type="curve" smooth="yes"/>
			<point x="252" y="-11"/>
			<point x="263" y="1"/>
			<point x="263" y="25" type="curve" smooth="yes"/>
			<point x="263" y="49"/>
			<point x="252" y="61"/>
			<point x="231" y="61" type="curve" smooth="yes"/>
			<point x="210" y="61"/>
			<point x="199" y="49"/>
			<point x="199" y="25" type="curve" smooth="yes"/>
			<point x="199" y="1"/>
			<point x="210" y="-11"/>
		</contour>
	</outline>
</glyph>
<glyph name="numbersign" format="2">
  <advance width="925"/>
  <unicode hex="0023"/>
  <outline>
    <contour>
      <point x="166" y="-20" type="curve" smooth="yes"/>
      <point x="180" y="-22"/>
      <point x="186" y="-20"/>
      <point x="189" y="-10" type="curve" smooth="yes"/>
      <point x="420" y="875" type="line" smooth="yes"/>
      <point x="423" y="885"/>
      <point x="418" y="891"/>
      <point x="406" y="894" type="curve" smooth="yes"/>
      <point x="393" y="896"/>
      <point x="386" y="894"/>
      <point x="384" y="884" type="curve" smooth="yes"/>
      <point x="153" y="-1" type="line" smooth="yes"/>
      <point x="150" y="-11"/>
      <point x="154" y="-17"/>
    </contour>
    <contour>
      <point x="28" y="251" type="curve" smooth="yes"/>
      <point x="810" y="251" type="line" smooth="yes"/>
      <point x="821" y="251"/>
      <point x="825" y="256"/>
      <point x="825" y="268" type="curve" smooth="yes"/>
      <point x="825" y="280"/>
      <point x="821" y="286"/>
      <point x="810" y="286" type="curve" smooth="yes"/>
      <point x="28" y="286" type="line" smooth="yes"/>
      <point x="16" y="286"/>
      <point x="13" y="280"/>
      <point x="13" y="268" type="curve" smooth="yes"/>
      <point x="13" y="256"/>
      <point x="16" y="251"/>
    </contour>
    <contour>
      <point x="115" y="590" type="curve" smooth="yes"/>
      <point x="898" y="590" type="line" smooth="yes"/>
      <point x="909" y="590"/>
      <point x="913" y="595"/>
      <point x="913" y="606" type="curve" smooth="yes"/>
      <point x="913" y="619"/>
      <point x="909" y="625"/>
      <point x="898" y="625" type="curve" smooth="yes"/>
      <point x="115" y="625" type="line" smooth="yes"/>
      <point x="104" y="625"/>
      <point x="100" y="619"/>
      <point x="100" y="606" type="curve" smooth="yes"/>
      <point x="100" y="595"/>
      <point x="104" y="590"/>
    </contour>
    <contour>
      <point x="516" y="-20" type="curve" smooth="yes"/>
      <point x="530" y="-22"/>
      <point x="536" y="-20"/>
      <point x="539" y="-10" type="curve" smooth="yes"/>
      <point x="770" y="875" type="line" smooth="yes"/>
      <point x="773" y="885"/>
      <point x="768" y="891"/>
      <point x="756" y="894" type="curve" smooth="yes"/>
      <point x="743" y="896"/>
      <point x="736" y="894"/>
      <point x="734" y="884" type="curve" smooth="yes"/>
      <point x="503" y="-1" type="line" smooth="yes"/>
      <point x="500" y="-11"/>
      <point x="504" y="-17"/>
    </contour>
  </outline>
</glyph>
<glyph name="dollar" format="2">
  <advance width="853"/>
  <unicode hex="0024"/>
  <outline>
    <contour>
      <point x="428" y="-15" type="curve" smooth="yes"/>
      <point x="626" y="-15"/>
      <point x="749" y="131"/>
      <point x="749" y="308" type="curve" smooth="yes"/>
      <point x="749" y="489"/>
      <point x="592" y="576"/>
      <point x="431" y="652" type="curve" smooth="yes"/>
      <point x="312" y="708"/>
      <point x="187" y="774"/>
      <point x="187" y="929" type="curve" smooth="yes"/>
      <point x="187" y="1070"/>
      <point x="283" y="1182"/>
      <point x="440" y="1182" type="curve" smooth="yes"/>
      <point x="561" y="1182"/>
      <point x="639" y="1124"/>
      <point x="712" y="1040" type="curve" smooth="yes"/>
      <point x="718" y="1034"/>
      <point x="725" y="1031"/>
      <point x="733" y="1037" type="curve" smooth="yes"/>
      <point x="743" y="1045"/>
      <point x="739" y="1052"/>
      <point x="734" y="1058" type="curve" smooth="yes"/>
      <point x="666" y="1143"/>
      <point x="575" y="1212"/>
      <point x="440" y="1212" type="curve" smooth="yes"/>
      <point x="289" y="1212"/>
      <point x="155" y="1108"/>
      <point x="155" y="933" type="curve" smooth="yes"/>
      <point x="155" y="758"/>
      <point x="283" y="687"/>
      <point x="416" y="624" type="curve" smooth="yes"/>
      <point x="559" y="556"/>
      <point x="717" y="479"/>
      <point x="717" y="304" type="curve" smooth="yes"/>
      <point x="717" y="139"/>
      <point x="602" y="15"/>
      <point x="428" y="15" type="curve" smooth="yes"/>
      <point x="309" y="15"/>
      <point x="210" y="64"/>
      <point x="130" y="154" type="curve" smooth="yes"/>
      <point x="120" y="165"/>
      <point x="115" y="166"/>
      <point x="108" y="160" type="curve" smooth="yes"/>
      <point x="100" y="153"/>
      <point x="99" y="146"/>
      <point x="108" y="136" type="curve" smooth="yes"/>
      <point x="198" y="36"/>
      <point x="297" y="-15"/>
    </contour>
    <contour>
      <point x="437" y="-101" type="curve" smooth="yes"/>
      <point x="448" y="-101"/>
      <point x="452" y="-98"/>
      <point x="452" y="-89" type="curve" smooth="yes"/>
      <point x="452" y="1297" type="line" smooth="yes"/>
      <point x="452" y="1306"/>
      <point x="447" y="1309"/>
      <point x="437" y="1309" type="curve" smooth="yes"/>
      <point x="426" y="1309"/>
      <point x="422" y="1306"/>
      <point x="422" y="1297" type="curve" smooth="yes"/>
      <point x="422" y="-89" type="line" smooth="yes"/>
      <point x="422" y="-98"/>
      <point x="426" y="-101"/>
    </contour>
  </outline>
</glyph>
<glyph name="percent" format="2">
  <advance width="1020"/>
  <unicode hex="0025"/>
  <outline>
    <contour>
      <point x="273" y="702" type="curve" smooth="yes"/>
      <point x="391" y="702"/>
      <point x="463" y="799"/>
      <point x="463" y="957" type="curve" smooth="yes"/>
      <point x="463" y="1115"/>
      <point x="391" y="1212"/>
      <point x="273" y="1212" type="curve" smooth="yes"/>
      <point x="155" y="1212"/>
      <point x="83" y="1115"/>
      <point x="83" y="957" type="curve" smooth="yes"/>
      <point x="83" y="799"/>
      <point x="155" y="702"/>
    </contour>
    <contour>
      <point x="273" y="729" type="curve" smooth="yes"/>
      <point x="174" y="729"/>
      <point x="113" y="805"/>
      <point x="113" y="957" type="curve" smooth="yes"/>
      <point x="113" y="1109"/>
      <point x="174" y="1185"/>
      <point x="273" y="1185" type="curve" smooth="yes"/>
      <point x="373" y="1185"/>
      <point x="434" y="1109"/>
      <point x="434" y="957" type="curve" smooth="yes"/>
      <point x="434" y="805"/>
      <point x="373" y="729"/>
    </contour>
    <contour>
      <point x="199" y="-9" type="curve" smooth="yes"/>
      <point x="844" y="1187" type="line" smooth="yes"/>
      <point x="847" y="1193"/>
      <point x="846" y="1199"/>
      <point x="837" y="1204" type="curve" smooth="yes"/>
      <point x="827" y="1210"/>
      <point x="822" y="1209"/>
      <point x="818" y="1202" type="curve" smooth="yes"/>
      <point x="173" y="6" type="line" smooth="yes"/>
      <point x="169" y="-2"/>
      <point x="169" y="-7"/>
      <point x="180" y="-12" type="curve" smooth="yes"/>
      <point x="190" y="-17"/>
      <point x="195" y="-17"/>
    </contour>
    <contour>
      <point x="747" y="-15" type="curve" smooth="yes"/>
      <point x="865" y="-15"/>
      <point x="937" y="82"/>
      <point x="937" y="241" type="curve" smooth="yes"/>
      <point x="937" y="399"/>
      <point x="865" y="496"/>
      <point x="747" y="496" type="curve" smooth="yes"/>
      <point x="629" y="496"/>
      <point x="557" y="399"/>
      <point x="557" y="241" type="curve" smooth="yes"/>
      <point x="557" y="82"/>
      <point x="629" y="-15"/>
    </contour>
    <contour>
      <point x="747" y="13" type="curve" smooth="yes"/>
      <point x="648" y="13"/>
      <point x="587" y="89"/>
      <point x="587" y="241" type="curve" smooth="yes"/>
      <point x="587" y="393"/>
      <point x="648" y="469"/>
      <point x="747" y="469" type="curve" smooth="yes"/>
      <point x="847" y="469"/>
      <point x="908" y="393"/>
      <point x="908" y="241" type="curve" smooth="yes"/>
      <point x="908" y="89"/>
      <point x="847" y="13"/>
    </contour>
  </outline>
</glyph>
<glyph name="ampersand" format="2">
  <advance width="1321"/>
  <unicode hex="0026"/>
  <outline>
    <contour>
      <point x="128" y="345" type="curve" smooth="yes"/>
      <point x="128" y="119"/>
      <point x="276" y="-19"/>
      <point x="520" y="-19" type="curve" smooth="yes"/>
      <point x="863" y="-19"/>
      <point x="1110" y="310"/>
      <point x="1110" y="763" type="curve" smooth="yes"/>
      <point x="1110" y="774"/>
      <point x="1104" y="778"/>
      <point x="1091" y="778" type="curve" smooth="yes"/>
      <point x="1079" y="778"/>
      <point x="1074" y="774"/>
      <point x="1074" y="763" type="curve" smooth="yes"/>
      <point x="1074" y="331"/>
      <point x="841" y="19"/>
      <point x="520" y="19" type="curve" smooth="yes"/>
      <point x="303" y="19"/>
      <point x="169" y="145"/>
      <point x="169" y="353" type="curve" smooth="yes"/>
      <point x="169" y="816"/>
      <point x="828" y="793"/>
      <point x="828" y="1216" type="curve" smooth="yes"/>
      <point x="828" y="1413"/>
      <point x="686" y="1515"/>
      <point x="543" y="1515" type="curve" smooth="yes"/>
      <point x="368" y="1515"/>
      <point x="241" y="1378"/>
      <point x="241" y="1189" type="curve" smooth="yes"/>
      <point x="241" y="1041"/>
      <point x="290" y="936"/>
      <point x="434" y="774" type="curve" smooth="yes"/>
      <point x="1133" y="-9" type="line" smooth="yes"/>
      <point x="1141" y="-19"/>
      <point x="1149" y="-17"/>
      <point x="1159" y="-9" type="curve" smooth="yes"/>
      <point x="1168" y="-1"/>
      <point x="1168" y="8"/>
      <point x="1161" y="15" type="curve" smooth="yes"/>
      <point x="458" y="804" type="line" smooth="yes"/>
      <point x="326" y="951"/>
      <point x="281" y="1049"/>
      <point x="281" y="1190" type="curve" smooth="yes"/>
      <point x="281" y="1356"/>
      <point x="391" y="1478"/>
      <point x="543" y="1478" type="curve" smooth="yes"/>
      <point x="694" y="1478"/>
      <point x="789" y="1375"/>
      <point x="789" y="1216" type="curve" smooth="yes"/>
      <point x="789" y="824"/>
      <point x="128" y="838"/>
    </contour>
  </outline>
</glyph>
<glyph name="quotesingle" format="2">
  <advance width="169"/>
  <unicode hex="0027"/>
  <outline>
    <contour>
      <point x="84" y="1235" type="curve" smooth="yes"/>
      <point x="96" y="1235"/>
      <point x="103" y="1244"/>
      <point x="104" y="1258" type="curve" smooth="yes"/>
      <point x="115" y="1494" type="line" smooth="yes"/>
      <point x="116" y="1508"/>
      <point x="106" y="1519"/>
      <point x="84" y="1519" type="curve" smooth="yes"/>
      <point x="63" y="1519"/>
      <point x="53" y="1508"/>
      <point x="54" y="1494" type="curve" smooth="yes"/>
      <point x="65" y="1255" type="line" smooth="yes"/>
      <point x="65" y="1243"/>
      <point x="73" y="1235"/>
    </contour>
  </outline>
</glyph>
<glyph name="plus" format="2">
	<unicode hex="002B"/>
	<advance width="610"/>
	<outline>
		<contour>
			<point x="304" y="124" type="curve" smooth="yes"/>
			<point x="314" y="124"/>
			<point x="319" y="127"/>
			<point x="319" y="136" type="curve" smooth="yes"/>
			<point x="319" y="562" type="line" smooth="yes"/>
			<point x="319" y="571"/>
			<point x="314" y="574"/>
			<point x="304" y="574" type="curve" smooth="yes"/>
			<point x="295" y="574"/>
			<point x="291" y="571"/>
			<point x="291" y="562" type="curve" smooth="yes"/>
			<point x="291" y="136" type="line" smooth="yes"/>
			<point x="291" y="127"/>
			<point x="295" y="124"/>
		</contour>
		<component base="minus"/>
	</outline>
</glyph>
<glyph name="comma" format="2">
	<unicode hex="002C"/>
	<advance width="250"/>
	<outline>
		<contour>
			<point x="89" y="-130" type="curve" smooth="yes"/>
			<point x="95" y="-130"/>
			<point x="100" y="-125"/>
			<point x="104" y="-119" type="curve" smooth="yes"/>
			<point x="135" y="-77"/>
			<point x="148" y="-28"/>
			<point x="148" y="35" type="curve" smooth="yes"/>
			<point x="148" y="46"/>
			<point x="142" y="57"/>
			<point x="124" y="57" type="curve" smooth="yes"/>
			<point x="107" y="57"/>
			<point x="101" y="48"/>
			<point x="101" y="37" type="curve" smooth="yes"/>
			<point x="101" y="-43"/>
			<point x="97" y="-62"/>
			<point x="74" y="-103" type="curve" smooth="yes"/>
			<point x="71" y="-109"/>
			<point x="68" y="-113"/>
			<point x="68" y="-117" type="curve" smooth="yes"/>
			<point x="68" y="-124"/>
			<point x="81" y="-130"/>
		</contour>
	</outline>
</glyph>
<glyph name="slash" format="2">
	<unicode hex="002F"/>
	<advance width="420"/>
	<outline>
		<contour>
			<point x="38" y="-60" type="curve" smooth="yes"/>
			<point x="49" y="-63"/>
			<point x="54" y="-61"/>
			<point x="56" y="-52" type="curve"/>
			<point x="393" y="1245" type="line" smooth="yes"/>
			<point x="395" y="1253"/>
			<point x="391" y="1257"/>
			<point x="382" y="1260" type="curve"/>
			<point x="371" y="1263"/>
			<point x="366" y="1261"/>
			<point x="364" y="1252" type="curve"/>
			<point x="27" y="-45" type="line" smooth="yes"/>
			<point x="25" y="-53"/>
			<point x="28" y="-57"/>
		</contour>
	</outline>
</glyph>
<glyph name="zero" format="2">
  <advance width="945"/>
  <unicode hex="0030"/>
  <outline>
    <contour>
      <point x="473" y="-15" type="curve" smooth="yes"/>
      <point x="699" y="-15"/>
      <point x="837" y="217"/>
      <point x="837" y="598" type="curve" smooth="yes"/>
      <point x="837" y="980"/>
      <point x="699" y="1212"/>
      <point x="473" y="1212" type="curve" smooth="yes"/>
      <point x="246" y="1212"/>
      <point x="108" y="980"/>
      <point x="108" y="598" type="curve" smooth="yes"/>
      <point x="108" y="217"/>
      <point x="246" y="-15"/>
    </contour>
    <contour>
      <point x="474" y="15" type="curve" smooth="yes"/>
      <point x="267" y="15"/>
      <point x="141" y="236"/>
      <point x="141" y="598" type="curve" smooth="yes"/>
      <point x="141" y="961"/>
      <point x="267" y="1182"/>
      <point x="474" y="1182" type="curve" smooth="yes"/>
      <point x="679" y="1182"/>
      <point x="804" y="961"/>
      <point x="804" y="598" type="curve" smooth="yes"/>
      <point x="804" y="236"/>
      <point x="679" y="15"/>
    </contour>
  </outline>
</glyph>
<glyph name="one" format="2">
	<unicode hex="0031"/>
	<advance width="557"/>
	<outline>
		<contour>
			<point x="300" y="-11" type="curve" smooth="yes"/>
			<point x="311" y="-11"/>
			<point x="315" y="-8"/>
			<point x="315" y="1" type="curve" smooth="yes"/>
			<point x="315" y="1200" type="line" smooth="yes"/>
			<point x="315" y="1209"/>
			<point x="311" y="1212"/>
			<point x="302" y="1212" type="curve" smooth="yes"/>
			<point x="293" y="1212"/>
			<point x="289" y="1210"/>
			<point x="285" y="1206" type="curve" smooth="yes"/>
			<point x="213" y="1122"/>
			<point x="122" y="1045"/>
			<point x="51" y="1000" type="curve" smooth="yes"/>
			<point x="42" y="994"/>
			<point x="38" y="989"/>
			<point x="45" y="978" type="curve" smooth="yes"/>
			<point x="51" y="968"/>
			<point x="61" y="972"/>
			<point x="74" y="981" type="curve" smooth="yes"/>
			<point x="144" y="1031"/>
			<point x="221" y="1092"/>
			<point x="285" y="1162" type="curve"/>
			<point x="285" y="1" type="line" smooth="yes"/>
			<point x="285" y="-8"/>
			<point x="289" y="-11"/>
		</contour>
	</outline>
</glyph>
<glyph name="two" format="2">
  <advance width="822"/>
  <unicode hex="0032"/>
  <outline>
    <contour>
      <point x="95" y="0" type="curve" smooth="yes"/>
      <point x="702" y="0" type="line" smooth="yes"/>
      <point x="707" y="0"/>
      <point x="711" y="5"/>
      <point x="711" y="15" type="curve" smooth="yes"/>
      <point x="711" y="25"/>
      <point x="707" y="28"/>
      <point x="702" y="28" type="curve" smooth="yes"/>
      <point x="133" y="28" type="line"/>
      <point x="274" y="183" type="line" smooth="yes"/>
      <point x="467" y="392"/>
      <point x="692" y="678"/>
      <point x="692" y="910" type="curve" smooth="yes"/>
      <point x="692" y="1098"/>
      <point x="584" y="1212"/>
      <point x="406" y="1212" type="curve" smooth="yes"/>
      <point x="284" y="1212"/>
      <point x="174" y="1153"/>
      <point x="109" y="1079" type="curve" smooth="yes"/>
      <point x="102" y="1072"/>
      <point x="102" y="1065"/>
      <point x="109" y="1059" type="curve" smooth="yes"/>
      <point x="116" y="1053"/>
      <point x="123" y="1053"/>
      <point x="130" y="1060" type="curve" smooth="yes"/>
      <point x="210" y="1141"/>
      <point x="304" y="1182"/>
      <point x="409" y="1182" type="curve" smooth="yes"/>
      <point x="564" y="1182"/>
      <point x="659" y="1078"/>
      <point x="659" y="908" type="curve" smooth="yes"/>
      <point x="659" y="701"/>
      <point x="471" y="445"/>
      <point x="264" y="217" type="curve" smooth="yes"/>
      <point x="87" y="22" type="line" smooth="yes"/>
      <point x="79" y="14"/>
      <point x="81" y="0"/>
    </contour>
  </outline>
</glyph>
<glyph name="three" format="2">
  <advance width="1126"/>
  <unicode hex="0033"/>
  <outline>
    <contour>
      <point x="535" y="-19" type="curve" smooth="yes"/>
      <point x="815" y="-19"/>
      <point x="971" y="158"/>
      <point x="971" y="408" type="curve" smooth="yes"/>
      <point x="971" y="603"/>
      <point x="864" y="758"/>
      <point x="641" y="798" type="curve"/>
      <point x="833" y="850"/>
      <point x="908" y="1018"/>
      <point x="908" y="1160" type="curve" smooth="yes"/>
      <point x="908" y="1395"/>
      <point x="739" y="1515"/>
      <point x="528" y="1515" type="curve" smooth="yes"/>
      <point x="386" y="1515"/>
      <point x="243" y="1453"/>
      <point x="135" y="1348" type="curve" smooth="yes"/>
      <point x="129" y="1341"/>
      <point x="123" y="1331"/>
      <point x="136" y="1321" type="curve" smooth="yes"/>
      <point x="148" y="1313"/>
      <point x="156" y="1316"/>
      <point x="164" y="1324" type="curve" smooth="yes"/>
      <point x="273" y="1424"/>
      <point x="394" y="1478"/>
      <point x="528" y="1478" type="curve" smooth="yes"/>
      <point x="711" y="1478"/>
      <point x="866" y="1370"/>
      <point x="866" y="1160" type="curve" smooth="yes"/>
      <point x="866" y="994"/>
      <point x="761" y="813"/>
      <point x="520" y="813" type="curve" smooth="yes"/>
      <point x="401" y="813" type="line" smooth="yes"/>
      <point x="395" y="813"/>
      <point x="390" y="808"/>
      <point x="390" y="795" type="curve" smooth="yes"/>
      <point x="390" y="783"/>
      <point x="395" y="778"/>
      <point x="401" y="778" type="curve" smooth="yes"/>
      <point x="520" y="778" type="line" smooth="yes"/>
      <point x="766" y="778"/>
      <point x="930" y="631"/>
      <point x="930" y="408" type="curve" smooth="yes"/>
      <point x="930" y="178"/>
      <point x="786" y="19"/>
      <point x="535" y="19" type="curve" smooth="yes"/>
      <point x="330" y="19"/>
      <point x="204" y="136"/>
      <point x="130" y="285" type="curve" smooth="yes"/>
      <point x="124" y="296"/>
      <point x="115" y="298"/>
      <point x="104" y="291" type="curve" smooth="yes"/>
      <point x="93" y="285"/>
      <point x="93" y="278"/>
      <point x="99" y="265" type="curve" smooth="yes"/>
      <point x="179" y="105"/>
      <point x="316" y="-19"/>
    </contour>
  </outline>
</glyph>
<glyph name="four" format="2">
	<unicode hex="0034"/>
	<advance width="918"/>
	<outline>
		<contour>
			<point x="88" y="371" type="curve" smooth="yes"/>
			<point x="850" y="371" type="line" smooth="yes"/>
			<point x="859" y="371"/>
			<point x="862" y="374"/>
			<point x="862" y="385" type="curve" smooth="yes"/>
			<point x="862" y="396"/>
			<point x="859" y="399"/>
			<point x="850" y="399" type="curve" smooth="yes"/>
			<point x="113" y="399" type="line"/>
			<point x="488" y="1195" type="line" smooth="yes"/>
			<point x="492" y="1203"/>
			<point x="490" y="1210"/>
			<point x="478" y="1212" type="curve" smooth="yes"/>
			<point x="469" y="1213"/>
			<point x="463" y="1211"/>
			<point x="459" y="1203" type="curve" smooth="yes"/>
			<point x="74" y="387" type="line" smooth="yes"/>
			<point x="68" y="375"/>
			<point x="77" y="371"/>
		</contour>
		<contour>
			<point x="689" y="-11" type="curve" smooth="yes"/>
			<point x="700" y="-11"/>
			<point x="704" y="-8"/>
			<point x="704" y="1" type="curve" smooth="yes"/>
			<point x="704" y="858" type="line" smooth="yes"/>
			<point x="704" y="867"/>
			<point x="700" y="870"/>
			<point x="689" y="870" type="curve" smooth="yes"/>
			<point x="678" y="870"/>
			<point x="674" y="867"/>
			<point x="674" y="858" type="curve" smooth="yes"/>
			<point x="674" y="1" type="line" smooth="yes"/>
			<point x="674" y="-8"/>
			<point x="678" y="-11"/>
		</contour>
	</outline>
</glyph>
<glyph name="five" format="2">
  <advance width="1126"/>
  <unicode hex="0035"/>
  <outline>
    <contour>
      <point x="568" y="-19" type="curve" smooth="yes"/>
      <point x="831" y="-19"/>
      <point x="1001" y="148"/>
      <point x="1001" y="448" type="curve" smooth="yes"/>
      <point x="1001" y="726"/>
      <point x="839" y="906"/>
      <point x="606" y="906" type="curve" smooth="yes"/>
      <point x="454" y="906"/>
      <point x="331" y="844"/>
      <point x="253" y="753" type="curve"/>
      <point x="278" y="1453" type="line"/>
      <point x="921" y="1453" type="line" smooth="yes"/>
      <point x="928" y="1453"/>
      <point x="933" y="1459"/>
      <point x="933" y="1471" type="curve" smooth="yes"/>
      <point x="933" y="1484"/>
      <point x="928" y="1488"/>
      <point x="921" y="1488" type="curve" smooth="yes"/>
      <point x="261" y="1488" type="line" smooth="yes"/>
      <point x="248" y="1488"/>
      <point x="241" y="1484"/>
      <point x="241" y="1473" type="curve" smooth="yes"/>
      <point x="213" y="706" type="line" smooth="yes"/>
      <point x="213" y="694"/>
      <point x="236" y="685"/>
      <point x="244" y="695" type="curve" smooth="yes"/>
      <point x="333" y="820"/>
      <point x="495" y="869"/>
      <point x="606" y="869" type="curve" smooth="yes"/>
      <point x="801" y="869"/>
      <point x="960" y="713"/>
      <point x="960" y="448" type="curve" smooth="yes"/>
      <point x="960" y="175"/>
      <point x="811" y="19"/>
      <point x="568" y="19" type="curve" smooth="yes"/>
      <point x="350" y="19"/>
      <point x="224" y="146"/>
      <point x="150" y="295" type="curve" smooth="yes"/>
      <point x="144" y="306"/>
      <point x="135" y="308"/>
      <point x="124" y="301" type="curve" smooth="yes"/>
      <point x="113" y="295"/>
      <point x="113" y="288"/>
      <point x="119" y="275" type="curve" smooth="yes"/>
      <point x="199" y="115"/>
      <point x="336" y="-19"/>
    </contour>
  </outline>
</glyph>
<glyph name="six" format="2">
  <advance width="968"/>
  <unicode hex="0036"/>
  <outline>
    <contour>
      <point x="516" y="-15" type="curve" smooth="yes"/>
      <point x="723" y="-15"/>
      <point x="855" y="123"/>
      <point x="855" y="369" type="curve" smooth="yes"/>
      <point x="855" y="561"/>
      <point x="734" y="705"/>
      <point x="544" y="705" type="curve" smooth="yes"/>
      <point x="394" y="705"/>
      <point x="229" y="613"/>
      <point x="175" y="319" type="curve"/>
      <point x="193" y="269" type="line"/>
      <point x="234" y="557"/>
      <point x="377" y="675"/>
      <point x="544" y="675" type="curve" smooth="yes"/>
      <point x="711" y="675"/>
      <point x="822" y="548"/>
      <point x="822" y="369" type="curve" smooth="yes"/>
      <point x="822" y="144"/>
      <point x="712" y="15"/>
      <point x="516" y="15" type="curve" smooth="yes"/>
      <point x="333" y="15"/>
      <point x="180" y="160"/>
      <point x="180" y="489" type="curve" smooth="yes"/>
      <point x="180" y="881"/>
      <point x="347" y="1108"/>
      <point x="719" y="1185" type="curve" smooth="yes"/>
      <point x="730" y="1187"/>
      <point x="730" y="1194"/>
      <point x="729" y="1200" type="curve" smooth="yes"/>
      <point x="727" y="1212"/>
      <point x="725" y="1215"/>
      <point x="707" y="1211" type="curve" smooth="yes"/>
      <point x="329" y="1136"/>
      <point x="147" y="897"/>
      <point x="147" y="489" type="curve" smooth="yes"/>
      <point x="147" y="169"/>
      <point x="277" y="-15"/>
    </contour>
  </outline>
</glyph>
<glyph name="seven" format="2">
  <advance width="731"/>
  <unicode hex="0037"/>
  <outline>
    <contour>
      <point x="200" y="-10" type="curve" smooth="yes"/>
      <point x="211" y="-14"/>
      <point x="215" y="-11"/>
      <point x="220" y="2" type="curve" smooth="yes"/>
      <point x="700" y="1175" type="line" smooth="yes"/>
      <point x="704" y="1185"/>
      <point x="697" y="1190"/>
      <point x="690" y="1190" type="curve" smooth="yes"/>
      <point x="46" y="1190" type="line" smooth="yes"/>
      <point x="41" y="1190"/>
      <point x="37" y="1187"/>
      <point x="37" y="1177" type="curve" smooth="yes"/>
      <point x="37" y="1167"/>
      <point x="41" y="1162"/>
      <point x="46" y="1162" type="curve" smooth="yes"/>
      <point x="665" y="1162" type="line"/>
      <point x="192" y="7" type="line" smooth="yes"/>
      <point x="189" y="-1"/>
      <point x="190" y="-6"/>
    </contour>
  </outline>
</glyph>
<glyph name="eight" format="2">
	<unicode hex="0038"/>
	<advance width="901"/>
	<outline>
		<contour>
			<point x="450" y="-15" type="curve" smooth="yes"/>
			<point x="655" y="-15"/>
			<point x="803" y="113"/>
			<point x="803" y="290" type="curve" smooth="yes"/>
			<point x="803" y="426"/>
			<point x="684" y="557"/>
			<point x="489" y="640" type="curve"/>
			<point x="652" y="718"/>
			<point x="752" y="841"/>
			<point x="752" y="964" type="curve" smooth="yes"/>
			<point x="752" y="1108"/>
			<point x="628" y="1212"/>
			<point x="456" y="1212" type="curve" smooth="yes"/>
			<point x="279" y="1212"/>
			<point x="150" y="1102"/>
			<point x="150" y="951" type="curve" smooth="yes"/>
			<point x="150" y="830"/>
			<point x="250" y="712"/>
			<point x="415" y="640" type="curve"/>
			<point x="219" y="550"/>
			<point x="99" y="410"/>
			<point x="99" y="266" type="curve" smooth="yes"/>
			<point x="99" y="103"/>
			<point x="246" y="-15"/>
		</contour>
		<contour>
			<point x="450" y="15" type="curve" smooth="yes"/>
			<point x="266" y="15"/>
			<point x="132" y="120"/>
			<point x="132" y="266" type="curve" smooth="yes"/>
			<point x="132" y="401"/>
			<point x="254" y="535"/>
			<point x="453" y="624" type="curve"/>
			<point x="650" y="544"/>
			<point x="770" y="419"/>
			<point x="770" y="290" type="curve" smooth="yes"/>
			<point x="770" y="131"/>
			<point x="636" y="15"/>
		</contour>
		<contour>
			<point x="449" y="658" type="curve"/>
			<point x="284" y="723"/>
			<point x="183" y="834"/>
			<point x="183" y="951" type="curve" smooth="yes"/>
			<point x="183" y="1085"/>
			<point x="298" y="1182"/>
			<point x="456" y="1182" type="curve" smooth="yes"/>
			<point x="609" y="1182"/>
			<point x="719" y="1090"/>
			<point x="719" y="964" type="curve" smooth="yes"/>
			<point x="719" y="842"/>
			<point x="617" y="726"/>
		</contour>
	</outline>
</glyph>
<glyph name="question" format="2">
	<unicode hex="003F"/>
	<advance width="677"/>
	<outline>
		<contour>
			<point x="264" y="173" type="curve" smooth="yes"/>
			<point x="275" y="173"/>
			<point x="279" y="175"/>
			<point x="279" y="186" type="curve" smooth="yes"/>
			<point x="279" y="516" type="line"/>
			<point x="500" y="572"/>
			<point x="634" y="733"/>
			<point x="634" y="941" type="curve" smooth="yes"/>
			<point x="634" y="1123"/>
			<point x="509" y="1212"/>
			<point x="355" y="1212" type="curve" smooth="yes"/>
			<point x="240" y="1212"/>
			<point x="114" y="1161"/>
			<point x="23" y="1078" type="curve" smooth="yes"/>
			<point x="17" y="1073"/>
			<point x="18" y="1066"/>
			<point x="24" y="1059" type="curve" smooth="yes"/>
			<point x="30" y="1052"/>
			<point x="36" y="1052"/>
			<point x="41" y="1056" type="curve" smooth="yes"/>
			<point x="127" y="1134"/>
			<point x="246" y="1182"/>
			<point x="355" y="1182" type="curve" smooth="yes"/>
			<point x="492" y="1182"/>
			<point x="601" y="1106"/>
			<point x="601" y="941" type="curve" smooth="yes"/>
			<point x="601" y="742"/>
			<point x="472" y="592"/>
			<point x="259" y="544" type="curve" smooth="yes"/>
			<point x="253" y="543"/>
			<point x="249" y="540"/>
			<point x="249" y="530" type="curve" smooth="yes"/>
			<point x="249" y="186" type="line" smooth="yes"/>
			<point x="249" y="175"/>
			<point x="253" y="173"/>
		</contour>
		<contour>
			<point x="264" y="-11" type="curve" smooth="yes"/>
			<point x="285" y="-11"/>
			<point x="296" y="1"/>
			<point x="296" y="25" type="curve" smooth="yes"/>
			<point x="296" y="49"/>
			<point x="285" y="61"/>
			<point x="264" y="61" type="curve" smooth="yes"/>
			<point x="243" y="61"/>
			<point x="232" y="49"/>
			<point x="232" y="25" type="curve" smooth="yes"/>
			<point x="232" y="1"/>
			<point x="243" y="-11"/>
		</contour>
	</outline>
</glyph>
<glyph name="A" format="2">
	<unicode hex="0041"/>
	<advance width="929"/>
	<outline>
		<contour>
			<point x="54" y="-10" type="curve" smooth="yes"/>
			<point x="65" y="-14"/>
			<point x="70" y="-10"/>
			<point x="74" y="2" type="curve" smooth="yes"/>
			<point x="201" y="381" type="line"/>
			<point x="729" y="381" type="line"/>
			<point x="855" y="2" type="line" smooth="yes"/>
			<point x="859" y="-11"/>
			<point x="864" y="-14"/>
			<point x="875" y="-10" type="curve" smooth="yes"/>
			<point x="885" y="-6"/>
			<point x="886" y="-2"/>
			<point x="883" y="7" type="curve" smooth="yes"/>
			<point x="481" y="1200" type="line" smooth="yes"/>
			<point x="478" y="1209"/>
			<point x="474" y="1212"/>
			<point x="464" y="1212" type="curve" smooth="yes"/>
			<point x="453" y="1212"/>
			<point x="449" y="1209"/>
			<point x="446" y="1200" type="curve" smooth="yes"/>
			<point x="46" y="7" type="line" smooth="yes"/>
			<point x="43" y="-2"/>
			<point x="44" y="-6"/>
		</contour>
		<contour>
			<point x="212" y="409" type="line"/>
			<point x="464" y="1167" type="line"/>
			<point x="716" y="409" type="line"/>
		</contour>
	</outline>
	<anchor name="bottom" x="465" y="0"/>
	<anchor name="ogonek" x="890" y="-3"/>
	<anchor name="top" x="465" y="1139"/>
</glyph>
<glyph name="B" format="2">
  <advance width="1125"/>
  <unicode hex="0042"/>
  <anchor x="561" y="0" name="bottom"/>
  <anchor x="263" y="438" name="center"/>
  <anchor x="561" y="1424" name="top"/>
  <outline>
    <contour>
      <point x="260" y="0" type="curve" smooth="yes"/>
      <point x="536" y="0" type="line" smooth="yes"/>
      <point x="845" y="0"/>
      <point x="1046" y="188"/>
      <point x="1046" y="461" type="curve" smooth="yes"/>
      <point x="1046" y="696"/>
      <point x="868" y="788"/>
      <point x="674" y="791" type="curve"/>
      <point x="674" y="798" type="line"/>
      <point x="805" y="806"/>
      <point x="988" y="931"/>
      <point x="988" y="1178" type="curve" smooth="yes"/>
      <point x="988" y="1384"/>
      <point x="855" y="1488"/>
      <point x="590" y="1488" type="curve" smooth="yes"/>
      <point x="261" y="1488" type="line" smooth="yes"/>
      <point x="248" y="1488"/>
      <point x="241" y="1484"/>
      <point x="241" y="1473" type="curve" smooth="yes"/>
      <point x="241" y="15" type="line" smooth="yes"/>
      <point x="241" y="4"/>
      <point x="246" y="0"/>
    </contour>
    <contour>
      <point x="279" y="35" type="line"/>
      <point x="279" y="769" type="line"/>
      <point x="580" y="769" type="line" smooth="yes"/>
      <point x="810" y="769"/>
      <point x="1005" y="693"/>
      <point x="1005" y="459" type="curve" smooth="yes"/>
      <point x="1005" y="200"/>
      <point x="801" y="35"/>
      <point x="536" y="35" type="curve" smooth="yes"/>
    </contour>
    <contour>
      <point x="279" y="804" type="line"/>
      <point x="279" y="1453" type="line"/>
      <point x="590" y="1453" type="line" smooth="yes"/>
      <point x="828" y="1453"/>
      <point x="948" y="1361"/>
      <point x="948" y="1175" type="curve" smooth="yes"/>
      <point x="948" y="938"/>
      <point x="758" y="804"/>
      <point x="544" y="804" type="curve" smooth="yes"/>
    </contour>
  </outline>
</glyph>
<glyph name="C" format="2">
	<unicode hex="0043"/>
	<advance width="961"/>
	<outline>
		<contour>
			<point x="532" y="-15" type="curve" smooth="yes"/>
			<point x="691" y="-15"/>
			<point x="797" y="101"/>
			<point x="890" y="273" type="curve" smooth="yes"/>
			<point x="896" y="284"/>
			<point x="897" y="290"/>
			<point x="887" y="296" type="curve" smooth="yes"/>
			<point x="877" y="302"/>
			<point x="872" y="299"/>
			<point x="866" y="289" type="curve" smooth="yes"/>
			<point x="787" y="151"/>
			<point x="692" y="15"/>
			<point x="532" y="15" type="curve" smooth="yes"/>
			<point x="321" y="15"/>
			<point x="153" y="226"/>
			<point x="153" y="581" type="curve" smooth="yes"/>
			<point x="153" y="936"/>
			<point x="329" y="1182"/>
			<point x="575" y="1182" type="curve" smooth="yes"/>
			<point x="670" y="1182"/>
			<point x="752" y="1144"/>
			<point x="826" y="1059" type="curve" smooth="yes"/>
			<point x="834" y="1050"/>
			<point x="841" y="1049"/>
			<point x="848" y="1054" type="curve" smooth="yes"/>
			<point x="857" y="1061"/>
			<point x="857" y="1067"/>
			<point x="849" y="1076" type="curve" smooth="yes"/>
			<point x="780" y="1159"/>
			<point x="693" y="1212"/>
			<point x="579" y="1212" type="curve" smooth="yes"/>
			<point x="316" y="1212"/>
			<point x="120" y="961"/>
			<point x="120" y="581" type="curve" smooth="yes"/>
			<point x="120" y="200"/>
			<point x="304" y="-15"/>
		</contour>
	</outline>
	<anchor name="bottom" x="546" y="0"/>
	<anchor name="top" x="566" y="1139"/>
</glyph>
<glyph name="E" format="2">
	<unicode hex="0045"/>
	<advance width="821"/>
	<outline>
		<contour>
			<point x="208" y="0" type="curve" smooth="yes"/>
			<point x="747" y="0" type="line" smooth="yes"/>
			<point x="752" y="0"/>
			<point x="756" y="4"/>
			<point x="756" y="14" type="curve" smooth="yes"/>
			<point x="756" y="24"/>
			<point x="752" y="28"/>
			<point x="747" y="28" type="curve" smooth="yes"/>
			<point x="223" y="28" type="line"/>
			<point x="223" y="615" type="line"/>
			<point x="669" y="615" type="line" smooth="yes"/>
			<point x="674" y="615"/>
			<point x="678" y="619"/>
			<point x="678" y="629" type="curve" smooth="yes"/>
			<point x="678" y="639"/>
			<point x="674" y="643"/>
			<point x="669" y="643" type="curve" smooth="yes"/>
			<point x="223" y="643" type="line"/>
			<point x="223" y="1162" type="line"/>
			<point x="747" y="1162" type="line" smooth="yes"/>
			<point x="752" y="1162"/>
			<point x="756" y="1166"/>
			<point x="756" y="1176" type="curve" smooth="yes"/>
			<point x="756" y="1186"/>
			<point x="752" y="1190"/>
			<point x="747" y="1190" type="curve" smooth="yes"/>
			<point x="209" y="1190" type="line" smooth="yes"/>
			<point x="198" y="1190"/>
			<point x="193" y="1187"/>
			<point x="193" y="1178" type="curve" smooth="yes"/>
			<point x="193" y="12" type="line" smooth="yes"/>
			<point x="193" y="3"/>
			<point x="197" y="0"/>
		</contour>
	</outline>
	<anchor name="bottom" x="455" y="0"/>
	<anchor name="ogonek" x="755" y="17"/>
	<anchor name="top" x="479" y="1139"/>
</glyph>
<glyph name="F" format="2">
	<unicode hex="0046"/>
	<advance width="774"/>
	<outline>
		<contour>
			<point x="208" y="-11" type="curve" smooth="yes"/>
			<point x="219" y="-11"/>
			<point x="223" y="-8"/>
			<point x="223" y="1" type="curve" smooth="yes"/>
			<point x="223" y="581" type="line"/>
			<point x="654" y="581" type="line" smooth="yes"/>
			<point x="659" y="581"/>
			<point x="663" y="585"/>
			<point x="663" y="595" type="curve" smooth="yes"/>
			<point x="663" y="605"/>
			<point x="659" y="609"/>
			<point x="654" y="609" type="curve" smooth="yes"/>
			<point x="223" y="609" type="line"/>
			<point x="223" y="1162" type="line"/>
			<point x="731" y="1162" type="line" smooth="yes"/>
			<point x="736" y="1162"/>
			<point x="740" y="1166"/>
			<point x="740" y="1176" type="curve" smooth="yes"/>
			<point x="740" y="1186"/>
			<point x="736" y="1190"/>
			<point x="731" y="1190" type="curve" smooth="yes"/>
			<point x="209" y="1190" type="line" smooth="yes"/>
			<point x="198" y="1190"/>
			<point x="193" y="1187"/>
			<point x="193" y="1178" type="curve" smooth="yes"/>
			<point x="193" y="1" type="line" smooth="yes"/>
			<point x="193" y="-8"/>
			<point x="197" y="-11"/>
		</contour>
	</outline>
</glyph>
<glyph name="G" format="2">
	<unicode hex="0047"/>
	<advance width="1085"/>
	<outline>
		<contour>
			<point x="542" y="-15" type="curve" smooth="yes"/>
			<point x="737" y="-15"/>
			<point x="938" y="188"/>
			<point x="938" y="604" type="curve" smooth="yes"/>
			<point x="938" y="613"/>
			<point x="934" y="616"/>
			<point x="923" y="616" type="curve" smooth="yes"/>
			<point x="583" y="616" type="line" smooth="yes"/>
			<point x="574" y="616"/>
			<point x="571" y="612"/>
			<point x="571" y="603" type="curve" smooth="yes"/>
			<point x="571" y="593"/>
			<point x="574" y="588"/>
			<point x="583" y="588" type="curve" smooth="yes"/>
			<point x="908" y="588" type="line"/>
			<point x="895" y="169"/>
			<point x="692" y="15"/>
			<point x="542" y="15" type="curve" smooth="yes"/>
			<point x="317" y="15"/>
			<point x="153" y="264"/>
			<point x="153" y="582" type="curve" smooth="yes"/>
			<point x="153" y="938"/>
			<point x="329" y="1182"/>
			<point x="577" y="1182" type="curve" smooth="yes"/>
			<point x="670" y="1182"/>
			<point x="757" y="1146"/>
			<point x="826" y="1059" type="curve" smooth="yes"/>
			<point x="834" y="1050"/>
			<point x="841" y="1049"/>
			<point x="848" y="1054" type="curve" smooth="yes"/>
			<point x="857" y="1061"/>
			<point x="857" y="1067"/>
			<point x="849" y="1076" type="curve" smooth="yes"/>
			<point x="778" y="1162"/>
			<point x="693" y="1212"/>
			<point x="577" y="1212" type="curve" smooth="yes"/>
			<point x="316" y="1212"/>
			<point x="120" y="963"/>
			<point x="120" y="582" type="curve" smooth="yes"/>
			<point x="120" y="238"/>
			<point x="300" y="-15"/>
		</contour>
	</outline>
	<anchor name="bottom" x="543" y="0"/>
	<anchor name="top" x="558" y="1139"/>
</glyph>
<glyph name="H" format="2">
	<unicode hex="0048"/>
	<advance width="1100"/>
	<outline>
		<contour>
			<point x="208" y="-11" type="curve" smooth="yes"/>
			<point x="219" y="-11"/>
			<point x="223" y="-8"/>
			<point x="223" y="1" type="curve" smooth="yes"/>
			<point x="223" y="610" type="line"/>
			<point x="877" y="610" type="line"/>
			<point x="877" y="1" type="line" smooth="yes"/>
			<point x="877" y="-8"/>
			<point x="882" y="-11"/>
			<point x="892" y="-11" type="curve" smooth="yes"/>
			<point x="903" y="-11"/>
			<point x="907" y="-8"/>
			<point x="907" y="1" type="curve" smooth="yes"/>
			<point x="907" y="1200" type="line" smooth="yes"/>
			<point x="907" y="1209"/>
			<point x="903" y="1212"/>
			<point x="892" y="1212" type="curve" smooth="yes"/>
			<point x="882" y="1212"/>
			<point x="877" y="1209"/>
			<point x="877" y="1200" type="curve" smooth="yes"/>
			<point x="877" y="638" type="line"/>
			<point x="223" y="638" type="line"/>
			<point x="223" y="1200" type="line" smooth="yes"/>
			<point x="223" y="1209"/>
			<point x="219" y="1212"/>
			<point x="208" y="1212" type="curve" smooth="yes"/>
			<point x="197" y="1212"/>
			<point x="193" y="1209"/>
			<point x="193" y="1200" type="curve" smooth="yes"/>
			<point x="193" y="1" type="line" smooth="yes"/>
			<point x="193" y="-8"/>
			<point x="197" y="-11"/>
		</contour>
	</outline>
	<anchor name="bottom" x="550" y="0"/>
	<anchor name="center" x="550" y="920"/>
	<anchor name="top" x="550" y="1139"/>
</glyph>
<glyph name="I" format="2">
	<unicode hex="0049"/>
	<advance width="418"/>
	<outline>
		<contour>
			<point x="209" y="-11" type="curve" smooth="yes"/>
			<point x="220" y="-11"/>
			<point x="224" y="-8"/>
			<point x="224" y="1" type="curve" smooth="yes"/>
			<point x="224" y="1200" type="line" smooth="yes"/>
			<point x="224" y="1209"/>
			<point x="219" y="1212"/>
			<point x="209" y="1212" type="curve" smooth="yes"/>
			<point x="198" y="1212"/>
			<point x="194" y="1209"/>
			<point x="194" y="1200" type="curve" smooth="yes"/>
			<point x="194" y="1" type="line" smooth="yes"/>
			<point x="194" y="-8"/>
			<point x="198" y="-11"/>
		</contour>
	</outline>
	<anchor name="bottom" x="209" y="0"/>
	<anchor name="ogonek" x="232" y="-7"/>
	<anchor name="top" x="209" y="1139"/>
</glyph>
<glyph name="J" format="2">
	<unicode hex="004A"/>
	<advance width="805"/>
	<outline>
		<contour>
			<point x="380" y="-15" type="curve" smooth="yes"/>
			<point x="548" y="-15"/>
			<point x="635" y="118"/>
			<point x="635" y="402" type="curve" smooth="yes"/>
			<point x="635" y="1200" type="line" smooth="yes"/>
			<point x="635" y="1209"/>
			<point x="631" y="1212"/>
			<point x="620" y="1212" type="curve" smooth="yes"/>
			<point x="609" y="1212"/>
			<point x="604" y="1209"/>
			<point x="604" y="1200" type="curve" smooth="yes"/>
			<point x="604" y="402" type="line" smooth="yes"/>
			<point x="604" y="140"/>
			<point x="537" y="15"/>
			<point x="380" y="15" type="curve" smooth="yes"/>
			<point x="270" y="15"/>
			<point x="166" y="97"/>
			<point x="115" y="233" type="curve" smooth="yes"/>
			<point x="111" y="244"/>
			<point x="104" y="248"/>
			<point x="95" y="245" type="curve" smooth="yes"/>
			<point x="84" y="241"/>
			<point x="82" y="234"/>
			<point x="87" y="222" type="curve" smooth="yes"/>
			<point x="140" y="77"/>
			<point x="256" y="-15"/>
		</contour>
	</outline>
	<anchor name="bottom" x="383" y="0"/>
	<anchor name="top" x="620" y="1139"/>
</glyph>
<glyph name="K" format="2">
	<unicode hex="004B"/>
	<advance width="852"/>
	<outline>
		<contour>
			<point x="208" y="-11" type="curve" smooth="yes"/>
			<point x="219" y="-11"/>
			<point x="223" y="-8"/>
			<point x="223" y="1" type="curve" smooth="yes"/>
			<point x="223" y="624" type="line"/>
			<point x="381" y="419"/>
			<point x="591" y="167"/>
			<point x="793" y="-8" type="curve" smooth="yes"/>
			<point x="800" y="-14"/>
			<point x="805" y="-16"/>
			<point x="813" y="-8" type="curve" smooth="yes"/>
			<point x="821" y="0"/>
			<point x="823" y="5"/>
			<point x="816" y="11" type="curve" smooth="yes"/>
			<point x="614" y="189"/>
			<point x="419" y="417"/>
			<point x="257" y="630" type="curve"/>
			<point x="804" y="1189" type="line" smooth="yes"/>
			<point x="811" y="1196"/>
			<point x="811" y="1200"/>
			<point x="803" y="1208" type="curve" smooth="yes"/>
			<point x="795" y="1216"/>
			<point x="790" y="1215"/>
			<point x="783" y="1208" type="curve" smooth="yes"/>
			<point x="223" y="634" type="line"/>
			<point x="223" y="1200" type="line" smooth="yes"/>
			<point x="223" y="1209"/>
			<point x="219" y="1212"/>
			<point x="208" y="1212" type="curve" smooth="yes"/>
			<point x="197" y="1212"/>
			<point x="193" y="1209"/>
			<point x="193" y="1200" type="curve" smooth="yes"/>
			<point x="193" y="1" type="line" smooth="yes"/>
			<point x="193" y="-8"/>
			<point x="197" y="-11"/>
		</contour>
	</outline>
	<anchor name="bottom" x="472" y="0"/>
	<anchor name="top" x="472" y="1139"/>
</glyph>
<glyph name="L" format="2">
	<unicode hex="004C"/>
	<advance width="775"/>
	<outline>
		<contour>
			<point x="208" y="0" type="curve" smooth="yes"/>
			<point x="735" y="0" type="line" smooth="yes"/>
			<point x="740" y="0"/>
			<point x="744" y="4"/>
			<point x="744" y="14" type="curve" smooth="yes"/>
			<point x="744" y="24"/>
			<point x="740" y="28"/>
			<point x="735" y="28" type="curve" smooth="yes"/>
			<point x="223" y="28" type="line"/>
			<point x="223" y="1200" type="line" smooth="yes"/>
			<point x="223" y="1209"/>
			<point x="219" y="1212"/>
			<point x="208" y="1212" type="curve" smooth="yes"/>
			<point x="197" y="1212"/>
			<point x="193" y="1209"/>
			<point x="193" y="1200" type="curve" smooth="yes"/>
			<point x="193" y="12" type="line" smooth="yes"/>
			<point x="193" y="3"/>
			<point x="197" y="0"/>
		</contour>
	</outline>
	<anchor name="bottom" x="465" y="0"/>
	<anchor name="center" x="209" y="612"/>
	<anchor name="centerCase" x="232" y="612"/>
	<anchor name="top" x="209" y="1139"/>
	<anchor name="topright" x="263" y="1190"/>
</glyph>
<glyph name="M" format="2">
	<unicode hex="004D"/>
	<advance width="1300"/>
	<outline>
		<contour>
			<point x="208" y="-11" type="curve" smooth="yes"/>
			<point x="219" y="-11"/>
			<point x="223" y="-8"/>
			<point x="223" y="1" type="curve" smooth="yes"/>
			<point x="223" y="1152" type="line"/>
			<point x="633" y="390" type="line" smooth="yes"/>
			<point x="638" y="380"/>
			<point x="642" y="378"/>
			<point x="651" y="378" type="curve" smooth="yes"/>
			<point x="659" y="378"/>
			<point x="664" y="379"/>
			<point x="670" y="390" type="curve" smooth="yes"/>
			<point x="1077" y="1152" type="line"/>
			<point x="1077" y="1" type="line" smooth="yes"/>
			<point x="1077" y="-8"/>
			<point x="1081" y="-11"/>
			<point x="1092" y="-11" type="curve" smooth="yes"/>
			<point x="1103" y="-11"/>
			<point x="1107" y="-8"/>
			<point x="1107" y="1" type="curve" smooth="yes"/>
			<point x="1107" y="1200" type="line" smooth="yes"/>
			<point x="1107" y="1209"/>
			<point x="1103" y="1212"/>
			<point x="1092" y="1212" type="curve" smooth="yes"/>
			<point x="1079" y="1212"/>
			<point x="1075" y="1210"/>
			<point x="1071" y="1202" type="curve" smooth="yes"/>
			<point x="652" y="413" type="line"/>
			<point x="229" y="1202" type="line" smooth="yes"/>
			<point x="225" y="1210"/>
			<point x="220" y="1212"/>
			<point x="209" y="1212" type="curve" smooth="yes"/>
			<point x="198" y="1212"/>
			<point x="193" y="1209"/>
			<point x="193" y="1200" type="curve" smooth="yes"/>
			<point x="193" y="1" type="line" smooth="yes"/>
			<point x="193" y="-8"/>
			<point x="197" y="-11"/>
		</contour>
	</outline>
	<anchor name="bottom" x="651" y="0"/>
	<anchor name="top" x="651" y="1139"/>
</glyph>
<glyph name="N" format="2">
	<unicode hex="004E"/>
	<advance width="1100"/>
	<outline>
		<contour>
			<point x="208" y="-11" type="curve" smooth="yes"/>
			<point x="219" y="-11"/>
			<point x="223" y="-8"/>
			<point x="223" y="1" type="curve" smooth="yes"/>
			<point x="223" y="1148" type="line"/>
			<point x="876" y="-2" type="line" smooth="yes"/>
			<point x="879" y="-8"/>
			<point x="883" y="-11"/>
			<point x="893" y="-11" type="curve" smooth="yes"/>
			<point x="902" y="-11"/>
			<point x="907" y="-8"/>
			<point x="907" y="1" type="curve" smooth="yes"/>
			<point x="907" y="1200" type="line" smooth="yes"/>
			<point x="907" y="1209"/>
			<point x="903" y="1212"/>
			<point x="892" y="1212" type="curve" smooth="yes"/>
			<point x="881" y="1212"/>
			<point x="877" y="1209"/>
			<point x="877" y="1200" type="curve" smooth="yes"/>
			<point x="877" y="54" type="line"/>
			<point x="224" y="1205" type="line" smooth="yes"/>
			<point x="221" y="1210"/>
			<point x="217" y="1212"/>
			<point x="207" y="1212" type="curve" smooth="yes"/>
			<point x="198" y="1212"/>
			<point x="193" y="1209"/>
			<point x="193" y="1200" type="curve" smooth="yes"/>
			<point x="193" y="1" type="line" smooth="yes"/>
			<point x="193" y="-8"/>
			<point x="197" y="-11"/>
		</contour>
	</outline>
	<anchor name="bottom" x="550" y="0"/>
	<anchor name="top" x="550" y="1139"/>
</glyph>
<glyph name="O" format="2">
  <advance width="1147"/>
  <unicode hex="004F"/>
  <anchor x="574" y="0" name="bottom"/>
  <anchor x="574" y="595" name="center"/>
  <anchor x="733" y="9" name="ogonek"/>
  <anchor x="574" y="1139" name="top"/>
  <anchor x="804" y="1139" name="topright"/>
  <outline>
    <contour>
      <point x="575" y="-15" type="curve" smooth="yes"/>
      <point x="848" y="-15"/>
      <point x="1027" y="228"/>
      <point x="1027" y="599" type="curve" smooth="yes"/>
      <point x="1027" y="969"/>
      <point x="848" y="1212"/>
      <point x="575" y="1212" type="curve" smooth="yes"/>
      <point x="300" y="1212"/>
      <point x="120" y="969"/>
      <point x="120" y="599" type="curve" smooth="yes"/>
      <point x="120" y="228"/>
      <point x="300" y="-15"/>
    </contour>
    <contour>
      <point x="575" y="15" type="curve" smooth="yes"/>
      <point x="320" y="15"/>
      <point x="153" y="246"/>
      <point x="153" y="599" type="curve" smooth="yes"/>
      <point x="153" y="951"/>
      <point x="320" y="1182"/>
      <point x="575" y="1182" type="curve" smooth="yes"/>
      <point x="828" y="1182"/>
      <point x="994" y="951"/>
      <point x="994" y="599" type="curve" smooth="yes"/>
      <point x="994" y="246"/>
      <point x="828" y="15"/>
    </contour>
  </outline>
</glyph>
<glyph name="P" format="2">
	<unicode hex="0050"/>
	<advance width="868"/>
	<outline>
		<contour>
			<point x="208" y="-11" type="curve" smooth="yes"/>
			<point x="219" y="-11"/>
			<point x="223" y="-8"/>
			<point x="223" y="1" type="curve" smooth="yes"/>
			<point x="223" y="509" type="line"/>
			<point x="285" y="513"/>
			<point x="346" y="518"/>
			<point x="411" y="525" type="curve" smooth="yes"/>
			<point x="659" y="550"/>
			<point x="802" y="682"/>
			<point x="802" y="893" type="curve" smooth="yes"/>
			<point x="802" y="1107"/>
			<point x="678" y="1190"/>
			<point x="446" y="1190" type="curve" smooth="yes"/>
			<point x="209" y="1190" type="line" smooth="yes"/>
			<point x="198" y="1190"/>
			<point x="193" y="1187"/>
			<point x="193" y="1178" type="curve" smooth="yes"/>
			<point x="193" y="1" type="line" smooth="yes"/>
			<point x="193" y="-8"/>
			<point x="197" y="-11"/>
		</contour>
		<contour>
			<point x="223" y="537" type="curve"/>
			<point x="223" y="1162" type="line"/>
			<point x="446" y="1162" type="line" smooth="yes"/>
			<point x="658" y="1162"/>
			<point x="769" y="1087"/>
			<point x="769" y="891" type="curve" smooth="yes"/>
			<point x="769" y="692"/>
			<point x="633" y="576"/>
			<point x="409" y="553" type="curve" smooth="yes"/>
			<point x="359" y="548"/>
			<point x="282" y="541"/>
		</contour>
	</outline>
</glyph>
<glyph name="Q" format="2">
  <advance width="1147"/>
  <unicode hex="0051"/>
  <anchor x="574" y="0" name="bottom"/>
  <anchor x="574" y="595" name="center"/>
  <anchor x="733" y="9" name="ogonek"/>
  <anchor x="574" y="1139" name="top"/>
  <anchor x="804" y="1139" name="topright"/>
  <outline>
    <contour>
      <point x="857" y="-206" type="curve" smooth="yes"/>
      <point x="864" y="-201"/>
      <point x="866" y="-196"/>
      <point x="861" y="-188" type="curve" smooth="yes"/>
      <point x="604" y="210" type="line" smooth="yes"/>
      <point x="599" y="217"/>
      <point x="594" y="216"/>
      <point x="586" y="211" type="curve" smooth="yes"/>
      <point x="576" y="205"/>
      <point x="575" y="200"/>
      <point x="580" y="192" type="curve" smooth="yes"/>
      <point x="838" y="-206" type="line" smooth="yes"/>
      <point x="842" y="-212"/>
      <point x="848" y="-212"/>
    </contour>
    <component base="O"/>
  </outline>
</glyph>
<glyph name="S" format="2">
  <advance width="1065"/>
  <unicode hex="0053"/>
  <anchor x="533" y="0" name="bottom"/>
  <anchor x="560" y="1424" name="top"/>
  <outline>
    <contour>
      <point x="535" y="-19" type="curve" smooth="yes"/>
      <point x="783" y="-19"/>
      <point x="936" y="164"/>
      <point x="936" y="385" type="curve" smooth="yes"/>
      <point x="936" y="611"/>
      <point x="740" y="720"/>
      <point x="539" y="815" type="curve" smooth="yes"/>
      <point x="390" y="885"/>
      <point x="234" y="968"/>
      <point x="234" y="1161" type="curve" smooth="yes"/>
      <point x="234" y="1338"/>
      <point x="354" y="1478"/>
      <point x="550" y="1478" type="curve" smooth="yes"/>
      <point x="701" y="1478"/>
      <point x="799" y="1405"/>
      <point x="890" y="1300" type="curve" smooth="yes"/>
      <point x="898" y="1293"/>
      <point x="906" y="1289"/>
      <point x="916" y="1296" type="curve" smooth="yes"/>
      <point x="929" y="1306"/>
      <point x="924" y="1315"/>
      <point x="918" y="1323" type="curve" smooth="yes"/>
      <point x="833" y="1429"/>
      <point x="719" y="1515"/>
      <point x="550" y="1515" type="curve" smooth="yes"/>
      <point x="361" y="1515"/>
      <point x="194" y="1385"/>
      <point x="194" y="1166" type="curve" smooth="yes"/>
      <point x="194" y="948"/>
      <point x="354" y="859"/>
      <point x="520" y="780" type="curve" smooth="yes"/>
      <point x="699" y="695"/>
      <point x="896" y="599"/>
      <point x="896" y="380" type="curve" smooth="yes"/>
      <point x="896" y="174"/>
      <point x="753" y="19"/>
      <point x="535" y="19" type="curve" smooth="yes"/>
      <point x="386" y="19"/>
      <point x="263" y="80"/>
      <point x="163" y="193" type="curve" smooth="yes"/>
      <point x="150" y="206"/>
      <point x="144" y="208"/>
      <point x="135" y="200" type="curve" smooth="yes"/>
      <point x="125" y="191"/>
      <point x="124" y="183"/>
      <point x="135" y="170" type="curve" smooth="yes"/>
      <point x="248" y="45"/>
      <point x="371" y="-19"/>
    </contour>
  </outline>
</glyph>
<glyph name="T" format="2">
	<unicode hex="0054"/>
	<advance width="856"/>
	<outline>
		<contour>
			<point x="428" y="-11" type="curve" smooth="yes"/>
			<point x="439" y="-11"/>
			<point x="443" y="-8"/>
			<point x="443" y="1" type="curve" smooth="yes"/>
			<point x="443" y="1162" type="line"/>
			<point x="809" y="1162" type="line" smooth="yes"/>
			<point x="814" y="1162"/>
			<point x="818" y="1167"/>
			<point x="818" y="1177" type="curve" smooth="yes"/>
			<point x="818" y="1187"/>
			<point x="814" y="1190"/>
			<point x="809" y="1190" type="curve" smooth="yes"/>
			<point x="47" y="1190" type="line" smooth="yes"/>
			<point x="42" y="1190"/>
			<point x="38" y="1186"/>
			<point x="38" y="1176" type="curve" smooth="yes"/>
			<point x="38" y="1166"/>
			<point x="42" y="1162"/>
			<point x="47" y="1162" type="curve" smooth="yes"/>
			<point x="413" y="1162" type="line"/>
			<point x="413" y="1" type="line" smooth="yes"/>
			<point x="413" y="-8"/>
			<point x="417" y="-11"/>
		</contour>
	</outline>
	<anchor name="bottom" x="428" y="0"/>
	<anchor name="center" x="428" y="595"/>
	<anchor name="top" x="428" y="1139"/>
</glyph>
<glyph name="U" format="2">
	<unicode hex="0055"/>
	<advance width="1069"/>
	<outline>
		<contour>
			<point x="536" y="-15" type="curve" smooth="yes"/>
			<point x="774" y="-15"/>
			<point x="895" y="108"/>
			<point x="895" y="354" type="curve" smooth="yes"/>
			<point x="895" y="1200" type="line" smooth="yes"/>
			<point x="895" y="1209"/>
			<point x="891" y="1212"/>
			<point x="880" y="1212" type="curve" smooth="yes"/>
			<point x="869" y="1212"/>
			<point x="865" y="1209"/>
			<point x="865" y="1200" type="curve" smooth="yes"/>
			<point x="865" y="352" type="line" smooth="yes"/>
			<point x="865" y="125"/>
			<point x="754" y="15"/>
			<point x="536" y="15" type="curve" smooth="yes"/>
			<point x="317" y="15"/>
			<point x="204" y="125"/>
			<point x="204" y="352" type="curve" smooth="yes"/>
			<point x="204" y="1200" type="line" smooth="yes"/>
			<point x="204" y="1209"/>
			<point x="200" y="1212"/>
			<point x="189" y="1212" type="curve" smooth="yes"/>
			<point x="178" y="1212"/>
			<point x="174" y="1209"/>
			<point x="174" y="1200" type="curve" smooth="yes"/>
			<point x="174" y="354" type="line" smooth="yes"/>
			<point x="174" y="108"/>
			<point x="297" y="-15"/>
		</contour>
	</outline>
	<anchor name="bottom" x="535" y="0"/>
	<anchor name="ogonek" x="728" y="17"/>
	<anchor name="top" x="535" y="1139"/>
	<anchor name="topright" x="877" y="1207"/>
</glyph>
<glyph name="W" format="2">
  <advance width="1811"/>
  <unicode hex="0057"/>
  <anchor x="905" y="0" name="bottom"/>
  <anchor x="905" y="1424" name="top"/>
  <outline>
    <contour>
      <point x="454" y="-14" type="curve" smooth="yes"/>
      <point x="468" y="-14"/>
      <point x="473" y="-10"/>
      <point x="477" y="1" type="curve" smooth="yes"/>
      <point x="907" y="1455" type="line"/>
      <point x="1330" y="1" type="line" smooth="yes"/>
      <point x="1334" y="-10"/>
      <point x="1339" y="-14"/>
      <point x="1352" y="-14" type="curve" smooth="yes"/>
      <point x="1365" y="-14"/>
      <point x="1372" y="-10"/>
      <point x="1374" y="1" type="curve" smooth="yes"/>
      <point x="1753" y="1493" type="line" smooth="yes"/>
      <point x="1755" y="1504"/>
      <point x="1755" y="1510"/>
      <point x="1743" y="1514" type="curve" smooth="yes"/>
      <point x="1730" y="1518"/>
      <point x="1724" y="1515"/>
      <point x="1720" y="1500" type="curve" smooth="yes"/>
      <point x="1352" y="48" type="line"/>
      <point x="929" y="1500" type="line" smooth="yes"/>
      <point x="925" y="1511"/>
      <point x="922" y="1515"/>
      <point x="905" y="1515" type="curve" smooth="yes"/>
      <point x="892" y="1515"/>
      <point x="889" y="1511"/>
      <point x="885" y="1500" type="curve" smooth="yes"/>
      <point x="455" y="48" type="line"/>
      <point x="93" y="1499" type="line" smooth="yes"/>
      <point x="88" y="1516"/>
      <point x="82" y="1518"/>
      <point x="69" y="1514" type="curve" smooth="yes"/>
      <point x="57" y="1510"/>
      <point x="55" y="1504"/>
      <point x="58" y="1493" type="curve" smooth="yes"/>
      <point x="433" y="1" type="line" smooth="yes"/>
      <point x="435" y="-10"/>
      <point x="442" y="-14"/>
    </contour>
  </outline>
</glyph>
<glyph name="X" format="2">
  <advance width="850"/>
  <unicode hex="0058"/>
  <outline>
    <contour>
      <point x="794" y="-9" type="curve" smooth="yes"/>
      <point x="803" y="-3"/>
      <point x="804" y="1"/>
      <point x="799" y="9" type="curve" smooth="yes"/>
      <point x="445" y="605" type="line"/>
      <point x="791" y="1191" type="line" smooth="yes"/>
      <point x="796" y="1199"/>
      <point x="795" y="1203"/>
      <point x="786" y="1209" type="curve" smooth="yes"/>
      <point x="778" y="1214"/>
      <point x="774" y="1214"/>
      <point x="769" y="1205" type="curve" smooth="yes"/>
      <point x="430" y="631" type="line"/>
      <point x="89" y="1205" type="line" smooth="yes"/>
      <point x="84" y="1214"/>
      <point x="78" y="1214"/>
      <point x="70" y="1209" type="curve" smooth="yes"/>
      <point x="61" y="1203"/>
      <point x="60" y="1199"/>
      <point x="65" y="1191" type="curve" smooth="yes"/>
      <point x="411" y="608" type="line"/>
      <point x="51" y="9" type="line" smooth="yes"/>
      <point x="46" y="1"/>
      <point x="47" y="-3"/>
      <point x="56" y="-9" type="curve" smooth="yes"/>
      <point x="64" y="-14"/>
      <point x="69" y="-12"/>
      <point x="74" y="-4" type="curve" smooth="yes"/>
      <point x="426" y="583" type="line"/>
      <point x="775" y="-5" type="line" smooth="yes"/>
      <point x="780" y="-14"/>
      <point x="786" y="-14"/>
    </contour>
  </outline>
</glyph>
<glyph name="Z" format="2">
	<unicode hex="005A"/>
	<advance width="759"/>
	<outline>
		<contour>
			<point x="45" y="0" type="curve" smooth="yes"/>
			<point x="715" y="0" type="line" smooth="yes"/>
			<point x="720" y="0"/>
			<point x="724" y="5"/>
			<point x="724" y="15" type="curve" smooth="yes"/>
			<point x="724" y="25"/>
			<point x="720" y="28"/>
			<point x="715" y="28" type="curve" smooth="yes"/>
			<point x="76" y="28" type="line"/>
			<point x="704" y="1174" type="line" smooth="yes"/>
			<point x="708" y="1182"/>
			<point x="706" y="1190"/>
			<point x="695" y="1190" type="curve" smooth="yes"/>
			<point x="80" y="1190" type="line" smooth="yes"/>
			<point x="75" y="1190"/>
			<point x="71" y="1186"/>
			<point x="71" y="1176" type="curve" smooth="yes"/>
			<point x="71" y="1166"/>
			<point x="75" y="1162"/>
			<point x="80" y="1162" type="curve" smooth="yes"/>
			<point x="664" y="1162" type="line"/>
			<point x="36" y="16" type="line" smooth="yes"/>
			<point x="32" y="8"/>
			<point x="34" y="0"/>
		</contour>
	</outline>
	<anchor name="bottom" x="380" y="0"/>
	<anchor name="center" x="380" y="629"/>
	<anchor name="top" x="380" y="1139"/>
</glyph>
<glyph name="bracketright" format="2">
  <advance width="500"/>
  <unicode hex="005D"/>
  <outline>
    <contour>
      <point x="100" y="-46" type="curve" smooth="yes"/>
      <point x="100" y="-56"/>
      <point x="104" y="-60"/>
      <point x="109" y="-60" type="curve" smooth="yes"/>
      <point x="265" y="-60" type="line" smooth="yes"/>
      <point x="276" y="-60"/>
      <point x="280" y="-57"/>
      <point x="280" y="-48" type="curve" smooth="yes"/>
      <point x="280" y="1248" type="line" smooth="yes"/>
      <point x="280" y="1257"/>
      <point x="276" y="1260"/>
      <point x="265" y="1260" type="curve" smooth="yes"/>
      <point x="109" y="1260" type="line" smooth="yes"/>
      <point x="104" y="1260"/>
      <point x="100" y="1256"/>
      <point x="100" y="1246" type="curve" smooth="yes"/>
      <point x="100" y="1236"/>
      <point x="104" y="1232"/>
      <point x="109" y="1232" type="curve" smooth="yes"/>
      <point x="250" y="1232" type="line"/>
      <point x="250" y="-32" type="line"/>
      <point x="109" y="-32" type="line" smooth="yes"/>
      <point x="104" y="-32"/>
      <point x="100" y="-36"/>
    </contour>
  </outline>
</glyph>
<glyph name="b" format="2">
	<unicode hex="0062"/>
	<advance width="478"/>
	<outline>
		<contour>
			<point x="109" y="-11" type="curve" smooth="yes"/>
			<point x="119" y="-11"/>
			<point x="124" y="-8"/>
			<point x="124" y="1" type="curve" smooth="yes"/>
			<point x="124" y="23" type="line"/>
			<point x="162" y="-3"/>
			<point x="194" y="-14"/>
			<point x="231" y="-14" type="curve" smooth="yes"/>
			<point x="358" y="-14"/>
			<point x="418" y="83"/>
			<point x="418" y="223" type="curve" smooth="yes"/>
			<point x="418" y="344"/>
			<point x="372" y="415"/>
			<point x="295" y="415" type="curve" smooth="yes"/>
			<point x="218" y="415"/>
			<point x="160" y="358"/>
			<point x="124" y="210" type="curve"/>
			<point x="124" y="1201" type="line" smooth="yes"/>
			<point x="124" y="1210"/>
			<point x="120" y="1213"/>
			<point x="110" y="1213" type="curve" smooth="yes"/>
			<point x="100" y="1213"/>
			<point x="95" y="1210"/>
			<point x="95" y="1201" type="curve" smooth="yes"/>
			<point x="95" y="1" type="line" smooth="yes"/>
			<point x="95" y="-8"/>
			<point x="99" y="-11"/>
		</contour>
		<contour>
			<point x="124" y="52" type="curve"/>
			<point x="124" y="78" type="line"/>
			<point x="148" y="302"/>
			<point x="216" y="387"/>
			<point x="291" y="387" type="curve" smooth="yes"/>
			<point x="360" y="387"/>
			<point x="386" y="309"/>
			<point x="386" y="222" type="curve" smooth="yes"/>
			<point x="386" y="87"/>
			<point x="330" y="13"/>
			<point x="234" y="13" type="curve" smooth="yes"/>
			<point x="204" y="13"/>
			<point x="166" y="21"/>
		</contour>
	</outline>
	<anchor name="bottom" x="263" y="0"/>
	<anchor name="center" x="263" y="200"/>
	<anchor name="top" x="263" y="400"/>
</glyph>
<glyph name="f" format="2">
	<unicode hex="0066"/>
	<advance width="293"/>
	<outline>
		<contour>
			<point x="71" y="-815" type="curve" smooth="yes"/>
			<point x="122" y="-815"/>
			<point x="147" y="-787"/>
			<point x="147" y="-716" type="curve" smooth="yes"/>
			<point x="147" y="374" type="line"/>
			<point x="274" y="374" type="line" smooth="yes"/>
			<point x="279" y="374"/>
			<point x="283" y="379"/>
			<point x="283" y="388" type="curve" smooth="yes"/>
			<point x="283" y="397"/>
			<point x="279" y="400"/>
			<point x="274" y="400" type="curve" smooth="yes"/>
			<point x="147" y="400" type="line"/>
			<point x="147" y="1091" type="line" smooth="yes"/>
			<point x="147" y="1166"/>
			<point x="173" y="1188"/>
			<point x="218" y="1188" type="curve" smooth="yes"/>
			<point x="252" y="1188"/>
			<point x="281" y="1171"/>
			<point x="299" y="1155" type="curve" smooth="yes"/>
			<point x="305" y="1149"/>
			<point x="312" y="1148"/>
			<point x="317" y="1153" type="curve" smooth="yes"/>
			<point x="323" y="1159"/>
			<point x="325" y="1165"/>
			<point x="320" y="1171" type="curve" smooth="yes"/>
			<point x="299" y="1194"/>
			<point x="260" y="1215"/>
			<point x="221" y="1215" type="curve" smooth="yes"/>
			<point x="164" y="1215"/>
			<point x="118" y="1187"/>
			<point x="118" y="1097" type="curve" smooth="yes"/>
			<point x="118" y="400" type="line"/>
			<point x="32" y="400" type="line" smooth="yes"/>
			<point x="27" y="400"/>
			<point x="23" y="396"/>
			<point x="23" y="387" type="curve" smooth="yes"/>
			<point x="23" y="378"/>
			<point x="27" y="374"/>
			<point x="32" y="374" type="curve" smooth="yes"/>
			<point x="118" y="374" type="line"/>
			<point x="118" y="-708" type="line" smooth="yes"/>
			<point x="118" y="-766"/>
			<point x="111" y="-788"/>
			<point x="71" y="-788" type="curve" smooth="yes"/>
			<point x="38" y="-788"/>
			<point x="10" y="-766"/>
			<point x="-5" y="-752" type="curve" smooth="yes"/>
			<point x="-11" y="-746"/>
			<point x="-17" y="-745"/>
			<point x="-24" y="-750" type="curve" smooth="yes"/>
			<point x="-31" y="-755"/>
			<point x="-33" y="-762"/>
			<point x="-28" y="-768" type="curve" smooth="yes"/>
			<point x="-11" y="-789"/>
			<point x="29" y="-815"/>
		</contour>
	</outline>
</glyph>
<glyph name="g" format="2">
	<unicode hex="0067"/>
	<advance width="478"/>
	<outline>
		<contour>
			<point x="247" y="-815" type="curve" smooth="yes"/>
			<point x="336" y="-815"/>
			<point x="383" y="-755"/>
			<point x="383" y="-630" type="curve" smooth="yes"/>
			<point x="383" y="400" type="line" smooth="yes"/>
			<point x="383" y="409"/>
			<point x="379" y="412"/>
			<point x="369" y="412" type="curve" smooth="yes"/>
			<point x="359" y="412"/>
			<point x="354" y="409"/>
			<point x="354" y="400" type="curve" smooth="yes"/>
			<point x="354" y="-628" type="line" smooth="yes"/>
			<point x="354" y="-739"/>
			<point x="320" y="-787"/>
			<point x="251" y="-787" type="curve" smooth="yes"/>
			<point x="187" y="-787"/>
			<point x="146" y="-762"/>
			<point x="110" y="-728" type="curve" smooth="yes"/>
			<point x="104" y="-723"/>
			<point x="98" y="-721"/>
			<point x="91" y="-728" type="curve"/>
			<point x="84" y="-737"/>
			<point x="83" y="-742"/>
			<point x="90" y="-748" type="curve" smooth="yes"/>
			<point x="131" y="-788"/>
			<point x="176" y="-815"/>
		</contour>
		<contour>
			<point x="183" y="-14" type="curve" smooth="yes"/>
			<point x="273" y="-14"/>
			<point x="337" y="63"/>
			<point x="370" y="273" type="curve"/>
			<point x="354" y="323" type="line"/>
			<point x="330" y="99"/>
			<point x="262" y="14"/>
			<point x="187" y="14" type="curve" smooth="yes"/>
			<point x="118" y="14"/>
			<point x="92" y="92"/>
			<point x="92" y="179" type="curve" smooth="yes"/>
			<point x="92" y="314"/>
			<point x="148" y="388"/>
			<point x="244" y="388" type="curve" smooth="yes"/>
			<point x="275" y="388"/>
			<point x="315" y="380"/>
			<point x="359" y="349" type="curve"/>
			<point x="359" y="379" type="line"/>
			<point x="319" y="404"/>
			<point x="286" y="415"/>
			<point x="247" y="415" type="curve" smooth="yes"/>
			<point x="120" y="415"/>
			<point x="60" y="318"/>
			<point x="60" y="178" type="curve" smooth="yes"/>
			<point x="60" y="57"/>
			<point x="106" y="-14"/>
		</contour>
	</outline>
	<anchor name="top" x="237" y="400"/>
</glyph>
<glyph name="h" format="2">
  <advance width="521"/>
  <unicode hex="0068"/>
  <anchor x="261" y="0" name="bottom"/>
  <anchor x="130" y="758" name="center"/>
  <anchor x="111" y="1139" name="top"/>
  <outline>
    <contour>
      <point x="429" y="-14" type="curve" smooth="yes"/>
      <point x="461" y="-14"/>
      <point x="497" y="15"/>
      <point x="517" y="71" type="curve" smooth="yes"/>
      <point x="519" y="76"/>
      <point x="517" y="82"/>
      <point x="509" y="85" type="curve" smooth="yes"/>
      <point x="502" y="88"/>
      <point x="495" y="88"/>
      <point x="492" y="80" type="curve" smooth="yes"/>
      <point x="472" y="32"/>
      <point x="455" y="13"/>
      <point x="433" y="13" type="curve" smooth="yes"/>
      <point x="411" y="13"/>
      <point x="407" y="37"/>
      <point x="407" y="65" type="curve" smooth="yes"/>
      <point x="407" y="285" type="line" smooth="yes"/>
      <point x="407" y="385"/>
      <point x="364" y="415"/>
      <point x="310" y="415" type="curve" smooth="yes"/>
      <point x="249" y="415"/>
      <point x="160" y="360"/>
      <point x="124" y="178" type="curve"/>
      <point x="124" y="1200" type="line" smooth="yes"/>
      <point x="124" y="1209"/>
      <point x="119" y="1212"/>
      <point x="109" y="1212" type="curve" smooth="yes"/>
      <point x="99" y="1212"/>
      <point x="95" y="1209"/>
      <point x="95" y="1200" type="curve" smooth="yes"/>
      <point x="95" y="0" type="line" smooth="yes"/>
      <point x="95" y="-9"/>
      <point x="99" y="-12"/>
      <point x="109" y="-12" type="curve" smooth="yes"/>
      <point x="119" y="-12"/>
      <point x="124" y="-9"/>
      <point x="124" y="0" type="curve" smooth="yes"/>
      <point x="124" y="38" type="line"/>
      <point x="150" y="316"/>
      <point x="240" y="388"/>
      <point x="309" y="388" type="curve" smooth="yes"/>
      <point x="360" y="388"/>
      <point x="377" y="352"/>
      <point x="377" y="277" type="curve" smooth="yes"/>
      <point x="377" y="54" type="line" smooth="yes"/>
      <point x="377" y="9"/>
      <point x="395" y="-14"/>
    </contour>
  </outline>
</glyph>
<glyph name="i" format="2">
	<unicode hex="0069"/>
	<advance width="240"/>
	<outline>
		<contour>
			<point x="142" y="-14" type="curve" smooth="yes"/>
			<point x="175" y="-14"/>
			<point x="211" y="15"/>
			<point x="231" y="71" type="curve" smooth="yes"/>
			<point x="233" y="76"/>
			<point x="231" y="82"/>
			<point x="223" y="85" type="curve" smooth="yes"/>
			<point x="216" y="88"/>
			<point x="209" y="88"/>
			<point x="206" y="80" type="curve" smooth="yes"/>
			<point x="186" y="32"/>
			<point x="169" y="13"/>
			<point x="146" y="13" type="curve" smooth="yes"/>
			<point x="124" y="13"/>
			<point x="120" y="37"/>
			<point x="120" y="65" type="curve" smooth="yes"/>
			<point x="120" y="400" type="line" smooth="yes"/>
			<point x="120" y="409"/>
			<point x="115" y="412"/>
			<point x="105" y="412" type="curve" smooth="yes"/>
			<point x="95" y="412"/>
			<point x="90" y="409"/>
			<point x="90" y="400" type="curve" smooth="yes"/>
			<point x="90" y="54" type="line" smooth="yes"/>
			<point x="90" y="9"/>
			<point x="108" y="-14"/>
		</contour>
		<contour>
			<point x="104" y="552" type="curve" smooth="yes"/>
			<point x="124" y="552"/>
			<point x="134" y="563"/>
			<point x="134" y="586" type="curve" smooth="yes"/>
			<point x="134" y="609"/>
			<point x="124" y="620"/>
			<point x="104" y="620" type="curve" smooth="yes"/>
			<point x="84" y="620"/>
			<point x="74" y="609"/>
			<point x="74" y="586" type="curve" smooth="yes"/>
			<point x="74" y="563"/>
			<point x="84" y="552"/>
		</contour>
	</outline>
	<anchor name="bottom" x="153" y="0"/>
	<anchor name="ogonek" x="202" y="0"/>
</glyph>
<glyph name="j" format="2">
	<unicode hex="006A"/>
	<advance width="214"/>
	<outline>
		<contour>
			<point x="43" y="-814" type="curve" smooth="yes"/>
			<point x="101" y="-814"/>
			<point x="119" y="-781"/>
			<point x="119" y="-718" type="curve" smooth="yes"/>
			<point x="119" y="400" type="line" smooth="yes"/>
			<point x="119" y="409"/>
			<point x="115" y="412"/>
			<point x="105" y="412" type="curve" smooth="yes"/>
			<point x="95" y="412"/>
			<point x="90" y="409"/>
			<point x="90" y="400" type="curve" smooth="yes"/>
			<point x="90" y="-716" type="line" smooth="yes"/>
			<point x="90" y="-764"/>
			<point x="80" y="-786"/>
			<point x="44" y="-786" type="curve" smooth="yes"/>
			<point x="16" y="-786"/>
			<point x="-12" y="-770"/>
			<point x="-32" y="-750" type="curve" smooth="yes"/>
			<point x="-38" y="-744"/>
			<point x="-46" y="-742"/>
			<point x="-53" y="-749" type="curve" smooth="yes"/>
			<point x="-62" y="-758"/>
			<point x="-60" y="-765"/>
			<point x="-54" y="-771" type="curve" smooth="yes"/>
			<point x="-29" y="-797"/>
			<point x="3" y="-814"/>
		</contour>
		<contour>
			<point x="104" y="552" type="curve" smooth="yes"/>
			<point x="124" y="552"/>
			<point x="134" y="563"/>
			<point x="134" y="586" type="curve" smooth="yes"/>
			<point x="134" y="609"/>
			<point x="124" y="620"/>
			<point x="104" y="620" type="curve" smooth="yes"/>
			<point x="84" y="620"/>
			<point x="74" y="609"/>
			<point x="74" y="586" type="curve" smooth="yes"/>
			<point x="74" y="563"/>
			<point x="84" y="552"/>
		</contour>
	</outline>
</glyph>
<glyph name="k" format="2">
  <advance width="564"/>
  <unicode hex="006B"/>
  <anchor x="289" y="0" name="bottom"/>
  <anchor x="136" y="838" name="top"/>
  <outline>
    <contour>
      <point x="136" y="-15" type="curve" smooth="yes"/>
      <point x="149" y="-15"/>
      <point x="155" y="-11"/>
      <point x="155" y="0" type="curve" smooth="yes"/>
      <point x="155" y="255" type="line"/>
      <point x="330" y="20"/>
      <point x="368" y="-19"/>
      <point x="433" y="-19" type="curve" smooth="yes"/>
      <point x="466" y="-19"/>
      <point x="513" y="-4"/>
      <point x="561" y="86" type="curve" smooth="yes"/>
      <point x="565" y="94"/>
      <point x="563" y="103"/>
      <point x="554" y="108" type="curve" smooth="yes"/>
      <point x="546" y="113"/>
      <point x="538" y="111"/>
      <point x="533" y="103" type="curve" smooth="yes"/>
      <point x="490" y="31"/>
      <point x="464" y="18"/>
      <point x="434" y="18" type="curve" smooth="yes"/>
      <point x="385" y="18"/>
      <point x="349" y="59"/>
      <point x="191" y="270" type="curve"/>
      <point x="456" y="484" type="line" smooth="yes"/>
      <point x="465" y="490"/>
      <point x="464" y="501"/>
      <point x="456" y="509" type="curve" smooth="yes"/>
      <point x="450" y="515"/>
      <point x="441" y="518"/>
      <point x="430" y="509" type="curve" smooth="yes"/>
      <point x="155" y="283" type="line"/>
      <point x="155" y="1500" type="line" smooth="yes"/>
      <point x="155" y="1511"/>
      <point x="149" y="1515"/>
      <point x="136" y="1515" type="curve" smooth="yes"/>
      <point x="124" y="1515"/>
      <point x="119" y="1511"/>
      <point x="119" y="1500" type="curve" smooth="yes"/>
      <point x="119" y="0" type="line" smooth="yes"/>
      <point x="119" y="-11"/>
      <point x="124" y="-15"/>
    </contour>
  </outline>
</glyph>
<glyph name="l" format="2">
	<unicode hex="006C"/>
	<advance width="239"/>
	<outline>
		<contour>
			<point x="141" y="-14" type="curve" smooth="yes"/>
			<point x="174" y="-14"/>
			<point x="210" y="15"/>
			<point x="230" y="71" type="curve" smooth="yes"/>
			<point x="232" y="76"/>
			<point x="230" y="82"/>
			<point x="222" y="85" type="curve" smooth="yes"/>
			<point x="215" y="88"/>
			<point x="208" y="88"/>
			<point x="205" y="80" type="curve" smooth="yes"/>
			<point x="185" y="32"/>
			<point x="168" y="13"/>
			<point x="145" y="13" type="curve" smooth="yes"/>
			<point x="124" y="13"/>
			<point x="120" y="37"/>
			<point x="120" y="65" type="curve" smooth="yes"/>
			<point x="120" y="1200" type="line" smooth="yes"/>
			<point x="120" y="1209"/>
			<point x="115" y="1212"/>
			<point x="105" y="1212" type="curve" smooth="yes"/>
			<point x="95" y="1212"/>
			<point x="90" y="1209"/>
			<point x="90" y="1200" type="curve" smooth="yes"/>
			<point x="90" y="54" type="line" smooth="yes"/>
			<point x="90" y="9"/>
			<point x="108" y="-14"/>
		</contour>
	</outline>
	<anchor name="bottom" x="158" y="0"/>
	<anchor name="center" x="104" y="580"/>
	<anchor name="top" x="104" y="1137"/>
	<anchor name="topright" x="119" y="1200"/>
</glyph>
<glyph name="m" format="2">
  <advance width="964"/>
  <unicode hex="006D"/>
  <anchor x="469" y="0" name="bottom"/>
  <anchor x="474" y="500" name="top"/>
  <outline>
    <contour>
      <point x="846" y="-17" type="curve" smooth="yes"/>
      <point x="889" y="-17"/>
      <point x="934" y="19"/>
      <point x="959" y="89" type="curve" smooth="yes"/>
      <point x="961" y="95"/>
      <point x="959" y="103"/>
      <point x="949" y="106" type="curve" smooth="yes"/>
      <point x="940" y="110"/>
      <point x="931" y="110"/>
      <point x="928" y="100" type="curve" smooth="yes"/>
      <point x="903" y="40"/>
      <point x="881" y="16"/>
      <point x="851" y="16" type="curve" smooth="yes"/>
      <point x="824" y="16"/>
      <point x="819" y="46"/>
      <point x="819" y="81" type="curve" smooth="yes"/>
      <point x="819" y="356" type="line" smooth="yes"/>
      <point x="819" y="481"/>
      <point x="769" y="519"/>
      <point x="706" y="519" type="curve" smooth="yes"/>
      <point x="622" y="519"/>
      <point x="478" y="414"/>
      <point x="469" y="48" type="curve"/>
      <point x="485" y="48" type="line"/>
      <point x="518" y="395"/>
      <point x="626" y="485"/>
      <point x="705" y="485" type="curve" smooth="yes"/>
      <point x="764" y="485"/>
      <point x="783" y="440"/>
      <point x="783" y="346" type="curve" smooth="yes"/>
      <point x="783" y="68" type="line" smooth="yes"/>
      <point x="783" y="11"/>
      <point x="804" y="-17"/>
    </contour>
    <contour>
      <point x="130" y="-15" type="curve" smooth="yes"/>
      <point x="143" y="-15"/>
      <point x="149" y="-11"/>
      <point x="149" y="0" type="curve" smooth="yes"/>
      <point x="149" y="59" type="line"/>
      <point x="182" y="397"/>
      <point x="290" y="485"/>
      <point x="370" y="485" type="curve" smooth="yes"/>
      <point x="431" y="485"/>
      <point x="450" y="440"/>
      <point x="450" y="346" type="curve" smooth="yes"/>
      <point x="450" y="0" type="line" smooth="yes"/>
      <point x="450" y="-11"/>
      <point x="454" y="-15"/>
      <point x="468" y="-15" type="curve" smooth="yes"/>
      <point x="480" y="-15"/>
      <point x="486" y="-11"/>
      <point x="486" y="0" type="curve" smooth="yes"/>
      <point x="486" y="356" type="line" smooth="yes"/>
      <point x="486" y="481"/>
      <point x="436" y="519"/>
      <point x="371" y="519" type="curve" smooth="yes"/>
      <point x="300" y="519"/>
      <point x="195" y="452"/>
      <point x="149" y="230" type="curve"/>
      <point x="149" y="500" type="line" smooth="yes"/>
      <point x="149" y="511"/>
      <point x="143" y="515"/>
      <point x="130" y="515" type="curve" smooth="yes"/>
      <point x="119" y="515"/>
      <point x="113" y="511"/>
      <point x="113" y="500" type="curve" smooth="yes"/>
      <point x="113" y="0" type="line" smooth="yes"/>
      <point x="113" y="-11"/>
      <point x="119" y="-15"/>
    </contour>
  </outline>
</glyph>
<glyph name="n" format="2">
  <advance width="517"/>
  <unicode hex="006E"/>
  <anchor x="259" y="0" name="bottom"/>
  <anchor x="248" y="400" name="top"/>
  <outline>
    <contour>
      <point x="424" y="-14" type="curve" smooth="yes"/>
      <point x="457" y="-14"/>
      <point x="493" y="15"/>
      <point x="513" y="71" type="curve" smooth="yes"/>
      <point x="515" y="76"/>
      <point x="513" y="82"/>
      <point x="505" y="85" type="curve" smooth="yes"/>
      <point x="498" y="88"/>
      <point x="491" y="88"/>
      <point x="488" y="80" type="curve" smooth="yes"/>
      <point x="468" y="32"/>
      <point x="451" y="13"/>
      <point x="428" y="13" type="curve" smooth="yes"/>
      <point x="406" y="13"/>
      <point x="402" y="37"/>
      <point x="402" y="65" type="curve" smooth="yes"/>
      <point x="402" y="285" type="line" smooth="yes"/>
      <point x="402" y="385"/>
      <point x="359" y="415"/>
      <point x="305" y="415" type="curve" smooth="yes"/>
      <point x="244" y="415"/>
      <point x="157" y="361"/>
      <point x="120" y="183" type="curve"/>
      <point x="120" y="400" type="line" smooth="yes"/>
      <point x="120" y="409"/>
      <point x="115" y="412"/>
      <point x="105" y="412" type="curve" smooth="yes"/>
      <point x="95" y="412"/>
      <point x="90" y="409"/>
      <point x="90" y="400" type="curve" smooth="yes"/>
      <point x="90" y="0" type="line" smooth="yes"/>
      <point x="90" y="-9"/>
      <point x="95" y="-12"/>
      <point x="105" y="-12" type="curve" smooth="yes"/>
      <point x="115" y="-12"/>
      <point x="120" y="-9"/>
      <point x="120" y="0" type="curve" smooth="yes"/>
      <point x="120" y="48" type="line"/>
      <point x="147" y="318"/>
      <point x="236" y="388"/>
      <point x="304" y="388" type="curve" smooth="yes"/>
      <point x="355" y="388"/>
      <point x="372" y="352"/>
      <point x="372" y="277" type="curve" smooth="yes"/>
      <point x="372" y="54" type="line" smooth="yes"/>
      <point x="372" y="9"/>
      <point x="390" y="-14"/>
    </contour>
  </outline>
</glyph>
<glyph name="r" format="2">
	<unicode hex="0072"/>
	<advance width="363"/>
	<outline>
		<contour>
			<point x="104" y="-12" type="curve" smooth="yes"/>
			<point x="114" y="-12"/>
			<point x="119" y="-9"/>
			<point x="119" y="0" type="curve" smooth="yes"/>
			<point x="119" y="38" type="line"/>
			<point x="145" y="316"/>
			<point x="202" y="388"/>
			<point x="268" y="388" type="curve" smooth="yes"/>
			<point x="296" y="388"/>
			<point x="320" y="372"/>
			<point x="332" y="362" type="curve" smooth="yes"/>
			<point x="338" y="357"/>
			<point x="345" y="359"/>
			<point x="350" y="365" type="curve" smooth="yes"/>
			<point x="354" y="370"/>
			<point x="355" y="375"/>
			<point x="351" y="380" type="curve" smooth="yes"/>
			<point x="334" y="401"/>
			<point x="301" y="415"/>
			<point x="271" y="415" type="curve" smooth="yes"/>
			<point x="213" y="415"/>
			<point x="149" y="373"/>
			<point x="119" y="191" type="curve"/>
			<point x="119" y="400" type="line" smooth="yes"/>
			<point x="119" y="409"/>
			<point x="114" y="412"/>
			<point x="104" y="412" type="curve" smooth="yes"/>
			<point x="94" y="412"/>
			<point x="90" y="409"/>
			<point x="90" y="400" type="curve" smooth="yes"/>
			<point x="90" y="0" type="line" smooth="yes"/>
			<point x="90" y="-9"/>
			<point x="94" y="-12"/>
		</contour>
	</outline>
	<anchor name="bottom" x="104" y="0"/>
	<anchor name="top" x="209" y="400"/>
</glyph>
<glyph name="u" format="2">
  <advance width="646"/>
  <unicode hex="0075"/>
  <guideline x="244" y="401" angle="90.232"/>
  <anchor x="303" y="0" name="bottom"/>
  <anchor x="581" y="13" name="ogonek"/>
  <anchor x="303" y="500" name="top"/>
  <anchor x="470" y="514" name="topright"/>
  <outline>
    <contour>
      <point x="230" y="-17" type="curve" smooth="yes"/>
      <point x="313" y="-17"/>
      <point x="440" y="68"/>
      <point x="473" y="361" type="curve"/>
      <point x="460" y="454" type="line"/>
      <point x="428" y="106"/>
      <point x="315" y="16"/>
      <point x="231" y="16" type="curve" smooth="yes"/>
      <point x="171" y="16"/>
      <point x="150" y="61"/>
      <point x="150" y="155" type="curve" smooth="yes"/>
      <point x="150" y="500" type="line" smooth="yes"/>
      <point x="150" y="511"/>
      <point x="144" y="515"/>
      <point x="131" y="515" type="curve" smooth="yes"/>
      <point x="119" y="515"/>
      <point x="113" y="511"/>
      <point x="113" y="500" type="curve" smooth="yes"/>
      <point x="113" y="145" type="line" smooth="yes"/>
      <point x="113" y="20"/>
      <point x="166" y="-17"/>
    </contour>
    <contour>
      <point x="524" y="-17" type="curve" smooth="yes"/>
      <point x="565" y="-17"/>
      <point x="610" y="19"/>
      <point x="635" y="89" type="curve" smooth="yes"/>
      <point x="638" y="95"/>
      <point x="635" y="103"/>
      <point x="625" y="106" type="curve" smooth="yes"/>
      <point x="616" y="110"/>
      <point x="608" y="110"/>
      <point x="604" y="100" type="curve" smooth="yes"/>
      <point x="579" y="40"/>
      <point x="558" y="16"/>
      <point x="529" y="16" type="curve" smooth="yes"/>
      <point x="501" y="16"/>
      <point x="496" y="46"/>
      <point x="496" y="81" type="curve" smooth="yes"/>
      <point x="496" y="501" type="line" smooth="yes"/>
      <point x="496" y="513"/>
      <point x="490" y="516"/>
      <point x="478" y="516" type="curve" smooth="yes"/>
      <point x="465" y="516"/>
      <point x="459" y="513"/>
      <point x="459" y="501" type="curve" smooth="yes"/>
      <point x="459" y="68" type="line" smooth="yes"/>
      <point x="459" y="11"/>
      <point x="481" y="-17"/>
    </contour>
  </outline>
</glyph>
<glyph name="w" format="2">
  <advance width="804"/>
  <unicode hex="0077"/>
  <anchor x="402" y="0" name="bottom"/>
  <anchor x="402" y="500" name="top"/>
  <outline>
    <contour>
      <point x="215" y="-15" type="curve" smooth="yes"/>
      <point x="228" y="-15"/>
      <point x="232" y="-9"/>
      <point x="235" y="1" type="curve" smooth="yes"/>
      <point x="402" y="456" type="line"/>
      <point x="569" y="1" type="line" smooth="yes"/>
      <point x="573" y="-9"/>
      <point x="577" y="-15"/>
      <point x="589" y="-15" type="curve" smooth="yes"/>
      <point x="600" y="-15"/>
      <point x="605" y="-9"/>
      <point x="609" y="1" type="curve" smooth="yes"/>
      <point x="764" y="491" type="line" smooth="yes"/>
      <point x="769" y="506"/>
      <point x="764" y="515"/>
      <point x="748" y="515" type="curve" smooth="yes"/>
      <point x="735" y="515"/>
      <point x="730" y="510"/>
      <point x="728" y="500" type="curve" smooth="yes"/>
      <point x="589" y="45" type="line"/>
      <point x="423" y="500" type="line" smooth="yes"/>
      <point x="419" y="510"/>
      <point x="415" y="515"/>
      <point x="403" y="515" type="curve" smooth="yes"/>
      <point x="389" y="515"/>
      <point x="385" y="511"/>
      <point x="380" y="499" type="curve" smooth="yes"/>
      <point x="217" y="45" type="line"/>
      <point x="75" y="500" type="line" smooth="yes"/>
      <point x="72" y="510"/>
      <point x="68" y="515"/>
      <point x="55" y="515" type="curve" smooth="yes"/>
      <point x="40" y="515"/>
      <point x="34" y="504"/>
      <point x="38" y="493" type="curve" smooth="yes"/>
      <point x="195" y="1" type="line" smooth="yes"/>
      <point x="199" y="-9"/>
      <point x="203" y="-15"/>
    </contour>
  </outline>
</glyph>
<glyph name="y" format="2">
	<unicode hex="0079"/>
	<advance width="492"/>
	<outline>
		<contour>
			<point x="184" y="-14" type="curve" smooth="yes"/>
			<point x="243" y="-14"/>
			<point x="332" y="41"/>
			<point x="368" y="223" type="curve"/>
			<point x="368" y="-628" type="line" smooth="yes"/>
			<point x="368" y="-739"/>
			<point x="334" y="-787"/>
			<point x="265" y="-787" type="curve" smooth="yes"/>
			<point x="201" y="-787"/>
			<point x="160" y="-762"/>
			<point x="124" y="-728" type="curve" smooth="yes"/>
			<point x="118" y="-723"/>
			<point x="112" y="-721"/>
			<point x="105" y="-728" type="curve" smooth="yes"/>
			<point x="98" y="-737"/>
			<point x="97" y="-742"/>
			<point x="104" y="-748" type="curve" smooth="yes"/>
			<point x="145" y="-788"/>
			<point x="190" y="-815"/>
			<point x="261" y="-815" type="curve" smooth="yes"/>
			<point x="350" y="-815"/>
			<point x="397" y="-755"/>
			<point x="397" y="-630" type="curve" smooth="yes"/>
			<point x="397" y="400" type="line" smooth="yes"/>
			<point x="397" y="409"/>
			<point x="393" y="412"/>
			<point x="383" y="412" type="curve" smooth="yes"/>
			<point x="373" y="412"/>
			<point x="368" y="409"/>
			<point x="368" y="400" type="curve" smooth="yes"/>
			<point x="368" y="363" type="line"/>
			<point x="342" y="85"/>
			<point x="252" y="13"/>
			<point x="185" y="13" type="curve" smooth="yes"/>
			<point x="139" y="13"/>
			<point x="122" y="49"/>
			<point x="122" y="124" type="curve" smooth="yes"/>
			<point x="122" y="400" type="line" smooth="yes"/>
			<point x="122" y="409"/>
			<point x="117" y="412"/>
			<point x="107" y="412" type="curve" smooth="yes"/>
			<point x="97" y="412"/>
			<point x="92" y="409"/>
			<point x="92" y="400" type="curve" smooth="yes"/>
			<point x="92" y="116" type="line" smooth="yes"/>
			<point x="92" y="16"/>
			<point x="135" y="-14"/>
		</contour>
	</outline>
	<anchor name="bottom" x="246" y="0"/>
	<anchor name="top" x="246" y="400"/>
</glyph>
<glyph name="bar" format="2">
  <advance width="460"/>
  <unicode hex="007C"/>
  <outline>
    <contour>
      <point x="230" y="-61" type="curve" smooth="yes"/>
      <point x="241" y="-61"/>
      <point x="245" y="-58"/>
      <point x="245" y="-49" type="curve" smooth="yes"/>
      <point x="245" y="1250" type="line" smooth="yes"/>
      <point x="245" y="1259"/>
      <point x="240" y="1262"/>
      <point x="230" y="1262" type="curve" smooth="yes"/>
      <point x="219" y="1262"/>
      <point x="215" y="1259"/>
      <point x="215" y="1250" type="curve" smooth="yes"/>
      <point x="215" y="-49" type="line" smooth="yes"/>
      <point x="215" y="-58"/>
      <point x="219" y="-61"/>
    </contour>
  </outline>
</glyph>
<glyph name="braceright" format="2">
  <advance width="554"/>
  <unicode hex="007D"/>
  <outline>
    <contour>
      <point x="174" y="-75" type="curve" smooth="yes"/>
      <point x="309" y="-75"/>
      <point x="391" y="6"/>
      <point x="391" y="141" type="curve" smooth="yes"/>
      <point x="391" y="308"/>
      <point x="261" y="370"/>
      <point x="261" y="543" type="curve" smooth="yes"/>
      <point x="261" y="639"/>
      <point x="333" y="716"/>
      <point x="429" y="733" type="curve" smooth="yes"/>
      <point x="436" y="734"/>
      <point x="441" y="738"/>
      <point x="441" y="750" type="curve" smooth="yes"/>
      <point x="441" y="763"/>
      <point x="436" y="766"/>
      <point x="429" y="768" type="curve" smooth="yes"/>
      <point x="333" y="784"/>
      <point x="261" y="861"/>
      <point x="261" y="958" type="curve" smooth="yes"/>
      <point x="261" y="1103"/>
      <point x="391" y="1186"/>
      <point x="391" y="1359" type="curve" smooth="yes"/>
      <point x="391" y="1494"/>
      <point x="309" y="1575"/>
      <point x="174" y="1575" type="curve" smooth="yes"/>
      <point x="168" y="1575"/>
      <point x="163" y="1570"/>
      <point x="163" y="1558" type="curve" smooth="yes"/>
      <point x="163" y="1545"/>
      <point x="168" y="1540"/>
      <point x="174" y="1540" type="curve" smooth="yes"/>
      <point x="285" y="1540"/>
      <point x="354" y="1471"/>
      <point x="354" y="1358" type="curve" smooth="yes"/>
      <point x="354" y="1208"/>
      <point x="225" y="1105"/>
      <point x="225" y="958" type="curve" smooth="yes"/>
      <point x="225" y="858"/>
      <point x="294" y="773"/>
      <point x="388" y="750" type="curve"/>
      <point x="294" y="728"/>
      <point x="225" y="643"/>
      <point x="225" y="543" type="curve" smooth="yes"/>
      <point x="225" y="368"/>
      <point x="354" y="289"/>
      <point x="354" y="143" type="curve" smooth="yes"/>
      <point x="354" y="29"/>
      <point x="285" y="-40"/>
      <point x="174" y="-40" type="curve" smooth="yes"/>
      <point x="168" y="-40"/>
      <point x="163" y="-45"/>
      <point x="163" y="-57" type="curve" smooth="yes"/>
      <point x="163" y="-70"/>
      <point x="168" y="-75"/>
    </contour>
  </outline>
</glyph>
<glyph name="cent" format="2">
  <advance width="821"/>
  <unicode hex="00A2"/>
  <outline>
    <contour>
      <point x="408" y="-19" type="curve" smooth="yes"/>
      <point x="524" y="-19"/>
      <point x="630" y="59"/>
      <point x="725" y="211" type="curve" smooth="yes"/>
      <point x="730" y="219"/>
      <point x="726" y="225"/>
      <point x="719" y="230" type="curve" smooth="yes"/>
      <point x="711" y="235"/>
      <point x="704" y="238"/>
      <point x="699" y="229" type="curve" smooth="yes"/>
      <point x="608" y="88"/>
      <point x="509" y="15"/>
      <point x="408" y="15" type="curve" smooth="yes"/>
      <point x="243" y="15"/>
      <point x="143" y="158"/>
      <point x="143" y="391" type="curve" smooth="yes"/>
      <point x="143" y="684"/>
      <point x="249" y="863"/>
      <point x="435" y="863" type="curve" smooth="yes"/>
      <point x="515" y="863"/>
      <point x="586" y="831"/>
      <point x="658" y="759" type="curve" smooth="yes"/>
      <point x="665" y="751"/>
      <point x="670" y="749"/>
      <point x="680" y="756" type="curve" smooth="yes"/>
      <point x="689" y="764"/>
      <point x="688" y="770"/>
      <point x="683" y="776" type="curve" smooth="yes"/>
      <point x="630" y="839"/>
      <point x="534" y="896"/>
      <point x="435" y="896" type="curve" smooth="yes"/>
      <point x="229" y="896"/>
      <point x="104" y="705"/>
      <point x="104" y="391" type="curve" smooth="yes"/>
      <point x="104" y="136"/>
      <point x="219" y="-19"/>
    </contour>
    <contour>
      <point x="428" y="-126" type="curve" smooth="yes"/>
      <point x="441" y="-126"/>
      <point x="446" y="-122"/>
      <point x="446" y="-111" type="curve" smooth="yes"/>
      <point x="446" y="1003" type="line" smooth="yes"/>
      <point x="446" y="1014"/>
      <point x="440" y="1018"/>
      <point x="428" y="1018" type="curve" smooth="yes"/>
      <point x="414" y="1018"/>
      <point x="409" y="1014"/>
      <point x="409" y="1003" type="curve" smooth="yes"/>
      <point x="409" y="-111" type="line" smooth="yes"/>
      <point x="409" y="-122"/>
      <point x="414" y="-126"/>
    </contour>
  </outline>
</glyph>
<glyph name="sterling" format="2">
  <advance width="1046"/>
  <unicode hex="00A3"/>
  <outline>
    <contour>
      <point x="90" y="0" type="curve" smooth="yes"/>
      <point x="983" y="0" type="line" smooth="yes"/>
      <point x="989" y="0"/>
      <point x="994" y="5"/>
      <point x="994" y="18" type="curve" smooth="yes"/>
      <point x="994" y="30"/>
      <point x="989" y="35"/>
      <point x="983" y="35" type="curve" smooth="yes"/>
      <point x="370" y="35" type="line"/>
      <point x="370" y="625" type="line"/>
      <point x="733" y="625" type="line" smooth="yes"/>
      <point x="739" y="625"/>
      <point x="744" y="630"/>
      <point x="744" y="643" type="curve" smooth="yes"/>
      <point x="744" y="655"/>
      <point x="739" y="660"/>
      <point x="733" y="660" type="curve" smooth="yes"/>
      <point x="370" y="660" type="line"/>
      <point x="370" y="1123" type="line" smooth="yes"/>
      <point x="370" y="1365"/>
      <point x="450" y="1478"/>
      <point x="624" y="1478" type="curve" smooth="yes"/>
      <point x="731" y="1478"/>
      <point x="843" y="1428"/>
      <point x="945" y="1336" type="curve" smooth="yes"/>
      <point x="954" y="1329"/>
      <point x="963" y="1328"/>
      <point x="971" y="1336" type="curve" smooth="yes"/>
      <point x="984" y="1349"/>
      <point x="979" y="1358"/>
      <point x="970" y="1365" type="curve" smooth="yes"/>
      <point x="848" y="1471"/>
      <point x="740" y="1515"/>
      <point x="624" y="1515" type="curve" smooth="yes"/>
      <point x="425" y="1515"/>
      <point x="331" y="1389"/>
      <point x="331" y="1123" type="curve" smooth="yes"/>
      <point x="331" y="660" type="line"/>
      <point x="135" y="660" type="line" smooth="yes"/>
      <point x="129" y="660"/>
      <point x="124" y="655"/>
      <point x="124" y="643" type="curve" smooth="yes"/>
      <point x="124" y="630"/>
      <point x="129" y="625"/>
      <point x="135" y="625" type="curve" smooth="yes"/>
      <point x="331" y="625" type="line"/>
      <point x="331" y="35" type="line"/>
      <point x="90" y="35" type="line" smooth="yes"/>
      <point x="84" y="35"/>
      <point x="79" y="30"/>
      <point x="79" y="18" type="curve" smooth="yes"/>
      <point x="79" y="5"/>
      <point x="84" y="0"/>
    </contour>
  </outline>
</glyph>
<glyph name="yen" format="2">
  <advance width="840"/>
  <unicode hex="00A5"/>
  <outline>
    <contour>
      <point x="410" y="-11" type="curve" smooth="yes"/>
      <point x="421" y="-11"/>
      <point x="425" y="-8"/>
      <point x="425" y="1" type="curve" smooth="yes"/>
      <point x="425" y="520" type="line"/>
      <point x="808" y="1193" type="line" smooth="yes"/>
      <point x="812" y="1201"/>
      <point x="811" y="1205"/>
      <point x="801" y="1210" type="curve" smooth="yes"/>
      <point x="792" y="1214"/>
      <point x="787" y="1211"/>
      <point x="780" y="1198" type="curve" smooth="yes"/>
      <point x="411" y="548" type="line"/>
      <point x="56" y="1205" type="line" smooth="yes"/>
      <point x="53" y="1211"/>
      <point x="49" y="1215"/>
      <point x="39" y="1210" type="curve" smooth="yes"/>
      <point x="30" y="1206"/>
      <point x="28" y="1201"/>
      <point x="32" y="1193" type="curve" smooth="yes"/>
      <point x="395" y="520" type="line"/>
      <point x="395" y="1" type="line" smooth="yes"/>
      <point x="395" y="-8"/>
      <point x="399" y="-11"/>
    </contour>
    <contour>
      <point x="119" y="513" type="curve" smooth="yes"/>
      <point x="701" y="513" type="line" smooth="yes"/>
      <point x="706" y="513"/>
      <point x="710" y="518"/>
      <point x="710" y="528" type="curve" smooth="yes"/>
      <point x="710" y="538"/>
      <point x="706" y="541"/>
      <point x="701" y="541" type="curve" smooth="yes"/>
      <point x="119" y="541" type="line" smooth="yes"/>
      <point x="114" y="541"/>
      <point x="110" y="537"/>
      <point x="110" y="527" type="curve" smooth="yes"/>
      <point x="110" y="517"/>
      <point x="114" y="513"/>
    </contour>
    <contour>
      <point x="119" y="369" type="curve" smooth="yes"/>
      <point x="701" y="369" type="line" smooth="yes"/>
      <point x="706" y="369"/>
      <point x="710" y="374"/>
      <point x="710" y="384" type="curve" smooth="yes"/>
      <point x="710" y="394"/>
      <point x="706" y="397"/>
      <point x="701" y="397" type="curve" smooth="yes"/>
      <point x="119" y="397" type="line" smooth="yes"/>
      <point x="114" y="397"/>
      <point x="110" y="393"/>
      <point x="110" y="383" type="curve" smooth="yes"/>
      <point x="110" y="373"/>
      <point x="114" y="369"/>
    </contour>
  </outline>
</glyph>
<glyph name="section" format="2">
  <advance width="826"/>
  <unicode hex="00A7"/>
  <outline>
    <contour>
      <point x="731" y="322" type="curve" smooth="yes"/>
      <point x="731" y="692"/>
      <point x="190" y="617"/>
      <point x="190" y="936" type="curve" smooth="yes"/>
      <point x="190" y="1079"/>
      <point x="285" y="1182"/>
      <point x="416" y="1182" type="curve" smooth="yes"/>
      <point x="511" y="1182"/>
      <point x="589" y="1142"/>
      <point x="679" y="1046" type="curve" smooth="yes"/>
      <point x="687" y="1037"/>
      <point x="693" y="1034"/>
      <point x="702" y="1042" type="curve" smooth="yes"/>
      <point x="709" y="1049"/>
      <point x="710" y="1054"/>
      <point x="702" y="1062" type="curve" smooth="yes"/>
      <point x="635" y="1138"/>
      <point x="539" y="1212"/>
      <point x="416" y="1212" type="curve" smooth="yes"/>
      <point x="266" y="1212"/>
      <point x="158" y="1096"/>
      <point x="158" y="936" type="curve" smooth="yes"/>
      <point x="158" y="591"/>
      <point x="699" y="667"/>
      <point x="699" y="322" type="curve" smooth="yes"/>
      <point x="699" y="212"/>
      <point x="636" y="102"/>
      <point x="532" y="33" type="curve"/>
      <point x="555" y="14" type="line"/>
      <point x="664" y="90"/>
      <point x="731" y="206"/>
    </contour>
    <contour>
      <point x="108" y="418" type="curve" smooth="yes"/>
      <point x="108" y="57"/>
      <point x="656" y="128"/>
      <point x="656" y="-226" type="curve" smooth="yes"/>
      <point x="656" y="-388"/>
      <point x="549" y="-506"/>
      <point x="401" y="-506" type="curve" smooth="yes"/>
      <point x="290" y="-506"/>
      <point x="206" y="-456"/>
      <point x="129" y="-368" type="curve" smooth="yes"/>
      <point x="119" y="-357"/>
      <point x="115" y="-356"/>
      <point x="106" y="-363" type="curve" smooth="yes"/>
      <point x="98" y="-370"/>
      <point x="100" y="-378"/>
      <point x="107" y="-385" type="curve" smooth="yes"/>
      <point x="185" y="-473"/>
      <point x="274" y="-536"/>
      <point x="401" y="-536" type="curve" smooth="yes"/>
      <point x="567" y="-536"/>
      <point x="688" y="-406"/>
      <point x="688" y="-226" type="curve" smooth="yes"/>
      <point x="688" y="153"/>
      <point x="141" y="82"/>
      <point x="141" y="418" type="curve" smooth="yes"/>
      <point x="141" y="527"/>
      <point x="202" y="635"/>
      <point x="301" y="703" type="curve"/>
      <point x="281" y="724" type="line"/>
      <point x="173" y="649"/>
      <point x="108" y="533"/>
    </contour>
  </outline>
</glyph>
<glyph name="copyright" format="2">
  <advance width="1125"/>
  <unicode hex="00A9"/>
  <outline>
    <contour>
      <point x="562" y="101" type="curve" smooth="yes"/>
      <point x="819" y="101"/>
      <point x="1005" y="305"/>
      <point x="1005" y="587" type="curve" smooth="yes"/>
      <point x="1005" y="868"/>
      <point x="819" y="1072"/>
      <point x="562" y="1072" type="curve" smooth="yes"/>
      <point x="306" y="1072"/>
      <point x="120" y="868"/>
      <point x="120" y="587" type="curve" smooth="yes"/>
      <point x="120" y="305"/>
      <point x="306" y="101"/>
    </contour>
    <contour>
      <point x="562" y="125" type="curve" smooth="yes"/>
      <point x="321" y="125"/>
      <point x="146" y="319"/>
      <point x="146" y="587" type="curve" smooth="yes"/>
      <point x="146" y="854"/>
      <point x="321" y="1048"/>
      <point x="562" y="1048" type="curve" smooth="yes"/>
      <point x="804" y="1048"/>
      <point x="979" y="854"/>
      <point x="979" y="586" type="curve" smooth="yes"/>
      <point x="979" y="319"/>
      <point x="804" y="125"/>
    </contour>
    <contour>
      <point x="553" y="311" type="curve" smooth="yes"/>
      <point x="623" y="311"/>
      <point x="693" y="361"/>
      <point x="730" y="444" type="curve" smooth="yes"/>
      <point x="732" y="450"/>
      <point x="730" y="454"/>
      <point x="724" y="457" type="curve" smooth="yes"/>
      <point x="717" y="461"/>
      <point x="712" y="459"/>
      <point x="709" y="453" type="curve" smooth="yes"/>
      <point x="675" y="387"/>
      <point x="617" y="339"/>
      <point x="556" y="339" type="curve" smooth="yes"/>
      <point x="468" y="339"/>
      <point x="405" y="440"/>
      <point x="405" y="580" type="curve" smooth="yes"/>
      <point x="405" y="731"/>
      <point x="477" y="840"/>
      <point x="580" y="840" type="curve" smooth="yes"/>
      <point x="619" y="840"/>
      <point x="662" y="818"/>
      <point x="692" y="784" type="curve" smooth="yes"/>
      <point x="696" y="779"/>
      <point x="701" y="778"/>
      <point x="708" y="784" type="curve" smooth="yes"/>
      <point x="713" y="788"/>
      <point x="716" y="793"/>
      <point x="711" y="799" type="curve" smooth="yes"/>
      <point x="676" y="841"/>
      <point x="627" y="867"/>
      <point x="580" y="867" type="curve" smooth="yes"/>
      <point x="460" y="867"/>
      <point x="375" y="746"/>
      <point x="375" y="580" type="curve" smooth="yes"/>
      <point x="375" y="424"/>
      <point x="450" y="311"/>
    </contour>
  </outline>
</glyph>
<glyph name="ordfeminine" format="2">
  <advance width="383"/>
  <unicode hex="00AA"/>
  <outline>
    <contour>
      <point x="141" y="889" type="curve" smooth="yes"/>
      <point x="200" y="889"/>
      <point x="243" y="935"/>
      <point x="269" y="1040" type="curve"/>
      <point x="269" y="1008"/>
      <point x="269" y="975"/>
      <point x="269" y="943" type="curve" smooth="yes"/>
      <point x="269" y="908"/>
      <point x="284" y="889"/>
      <point x="312" y="889" type="curve" smooth="yes"/>
      <point x="338" y="889"/>
      <point x="366" y="913"/>
      <point x="380" y="953" type="curve" smooth="yes"/>
      <point x="382" y="959"/>
      <point x="381" y="964"/>
      <point x="373" y="967" type="curve" smooth="yes"/>
      <point x="368" y="969"/>
      <point x="362" y="970"/>
      <point x="359" y="963" type="curve" smooth="yes"/>
      <point x="342" y="923"/>
      <point x="329" y="915"/>
      <point x="316" y="915" type="curve" smooth="yes"/>
      <point x="300" y="915"/>
      <point x="297" y="931"/>
      <point x="297" y="956" type="curve" smooth="yes"/>
      <point x="297" y="1207" type="line" smooth="yes"/>
      <point x="297" y="1214"/>
      <point x="293" y="1217"/>
      <point x="283" y="1217" type="curve" smooth="yes"/>
      <point x="274" y="1217"/>
      <point x="269" y="1214"/>
      <point x="269" y="1207" type="curve" smooth="yes"/>
      <point x="269" y="1195" type="line"/>
      <point x="241" y="1212"/>
      <point x="217" y="1220"/>
      <point x="188" y="1220" type="curve" smooth="yes"/>
      <point x="92" y="1220"/>
      <point x="45" y="1145"/>
      <point x="45" y="1037" type="curve" smooth="yes"/>
      <point x="45" y="944"/>
      <point x="81" y="889"/>
    </contour>
    <contour>
      <point x="75" y="1038" type="curve" smooth="yes"/>
      <point x="75" y="1138"/>
      <point x="116" y="1194"/>
      <point x="188" y="1194" type="curve" smooth="yes"/>
      <point x="211" y="1194"/>
      <point x="238" y="1189"/>
      <point x="269" y="1168" type="curve"/>
      <point x="269" y="1145" type="line"/>
      <point x="251" y="982"/>
      <point x="200" y="915"/>
      <point x="145" y="915" type="curve" smooth="yes"/>
      <point x="94" y="915"/>
      <point x="75" y="972"/>
    </contour>
  </outline>
</glyph>
<glyph name="logicalnot" format="2">
  <advance width="763"/>
  <unicode hex="00AC"/>
  <outline>
    <contour>
      <point x="644" y="170" type="curve" smooth="yes"/>
      <point x="656" y="170"/>
      <point x="663" y="174"/>
      <point x="663" y="185" type="curve" smooth="yes"/>
      <point x="663" y="436" type="line" smooth="yes"/>
      <point x="663" y="449"/>
      <point x="659" y="455"/>
      <point x="648" y="455" type="curve" smooth="yes"/>
      <point x="115" y="455" type="line" smooth="yes"/>
      <point x="104" y="455"/>
      <point x="100" y="449"/>
      <point x="100" y="436" type="curve" smooth="yes"/>
      <point x="100" y="425"/>
      <point x="104" y="420"/>
      <point x="115" y="420" type="curve" smooth="yes"/>
      <point x="628" y="420" type="line"/>
      <point x="628" y="185" type="line" smooth="yes"/>
      <point x="628" y="174"/>
      <point x="633" y="170"/>
    </contour>
  </outline>
</glyph>
<glyph name="degree" format="2">
  <advance width="631"/>
  <unicode hex="00B0"/>
  <outline>
    <contour>
      <point x="315" y="1076" type="curve" smooth="yes"/>
      <point x="436" y="1076"/>
      <point x="516" y="1169"/>
      <point x="516" y="1298" type="curve" smooth="yes"/>
      <point x="516" y="1424"/>
      <point x="436" y="1515"/>
      <point x="315" y="1515" type="curve" smooth="yes"/>
      <point x="195" y="1515"/>
      <point x="115" y="1424"/>
      <point x="115" y="1298" type="curve" smooth="yes"/>
      <point x="115" y="1169"/>
      <point x="195" y="1076"/>
    </contour>
    <contour>
      <point x="315" y="1114" type="curve" smooth="yes"/>
      <point x="221" y="1114"/>
      <point x="155" y="1179"/>
      <point x="155" y="1298" type="curve" smooth="yes"/>
      <point x="155" y="1414"/>
      <point x="221" y="1478"/>
      <point x="315" y="1478" type="curve" smooth="yes"/>
      <point x="410" y="1478"/>
      <point x="476" y="1414"/>
      <point x="476" y="1298" type="curve" smooth="yes"/>
      <point x="476" y="1179"/>
      <point x="410" y="1114"/>
    </contour>
  </outline>
</glyph>
<glyph name="paragraph" format="2">
  <advance width="1230"/>
  <unicode hex="00B6"/>
  <outline>
    <contour>
      <point x="659" y="-389" type="curve" smooth="yes"/>
      <point x="673" y="-389"/>
      <point x="678" y="-385"/>
      <point x="678" y="-374" type="curve" smooth="yes"/>
      <point x="678" y="1453" type="line"/>
      <point x="919" y="1453" type="line"/>
      <point x="919" y="-374" type="line" smooth="yes"/>
      <point x="919" y="-385"/>
      <point x="924" y="-389"/>
      <point x="938" y="-389" type="curve" smooth="yes"/>
      <point x="952" y="-389"/>
      <point x="957" y="-385"/>
      <point x="957" y="-374" type="curve" smooth="yes"/>
      <point x="957" y="1453" type="line"/>
      <point x="1132" y="1453" type="line" smooth="yes"/>
      <point x="1138" y="1453"/>
      <point x="1143" y="1459"/>
      <point x="1143" y="1472" type="curve" smooth="yes"/>
      <point x="1143" y="1484"/>
      <point x="1138" y="1488"/>
      <point x="1132" y="1488" type="curve" smooth="yes"/>
      <point x="573" y="1488" type="line" smooth="yes"/>
      <point x="259" y="1488"/>
      <point x="100" y="1338"/>
      <point x="100" y="1043" type="curve" smooth="yes"/>
      <point x="100" y="747"/>
      <point x="259" y="596"/>
      <point x="573" y="596" type="curve" smooth="yes"/>
      <point x="640" y="596" type="line"/>
      <point x="640" y="-374" type="line" smooth="yes"/>
      <point x="640" y="-385"/>
      <point x="645" y="-389"/>
    </contour>
  </outline>
</glyph>
<glyph name="ordmasculine" format="2">
  <advance width="363"/>
  <unicode hex="00BA"/>
  <outline>
    <contour>
      <point x="182" y="888" type="curve" smooth="yes"/>
      <point x="265" y="888"/>
      <point x="318" y="956"/>
      <point x="318" y="1055" type="curve" smooth="yes"/>
      <point x="318" y="1152"/>
      <point x="262" y="1220"/>
      <point x="182" y="1220" type="curve" smooth="yes"/>
      <point x="103" y="1220"/>
      <point x="45" y="1152"/>
      <point x="45" y="1054" type="curve" smooth="yes"/>
      <point x="45" y="954"/>
      <point x="97" y="888"/>
    </contour>
    <contour>
      <point x="182" y="915" type="curve" smooth="yes"/>
      <point x="116" y="915"/>
      <point x="74" y="972"/>
      <point x="74" y="1054" type="curve" smooth="yes"/>
      <point x="74" y="1136"/>
      <point x="116" y="1193"/>
      <point x="182" y="1193" type="curve" smooth="yes"/>
      <point x="247" y="1193"/>
      <point x="289" y="1136"/>
      <point x="289" y="1055" type="curve" smooth="yes"/>
      <point x="289" y="972"/>
      <point x="247" y="915"/>
    </contour>
  </outline>
</glyph>
<glyph name="Thorn" format="2">
  <advance width="1113"/>
  <unicode hex="00DE"/>
  <outline>
    <contour>
      <point x="260" y="-14" type="curve" smooth="yes"/>
      <point x="274" y="-14"/>
      <point x="279" y="-10"/>
      <point x="279" y="1" type="curve" smooth="yes"/>
      <point x="279" y="386" type="line"/>
      <point x="356" y="391"/>
      <point x="433" y="398"/>
      <point x="514" y="406" type="curve" smooth="yes"/>
      <point x="824" y="438"/>
      <point x="1003" y="603"/>
      <point x="1003" y="866" type="curve" smooth="yes"/>
      <point x="1003" y="1134"/>
      <point x="848" y="1238"/>
      <point x="558" y="1238" type="curve" smooth="yes"/>
      <point x="279" y="1238" type="line"/>
      <point x="279" y="1500" type="line" smooth="yes"/>
      <point x="279" y="1511"/>
      <point x="273" y="1515"/>
      <point x="260" y="1515" type="curve" smooth="yes"/>
      <point x="246" y="1515"/>
      <point x="241" y="1511"/>
      <point x="241" y="1500" type="curve" smooth="yes"/>
      <point x="241" y="1" type="line" smooth="yes"/>
      <point x="241" y="-10"/>
      <point x="246" y="-14"/>
    </contour>
    <contour>
      <point x="279" y="421" type="curve"/>
      <point x="279" y="1203" type="line"/>
      <point x="558" y="1203" type="line" smooth="yes"/>
      <point x="823" y="1203"/>
      <point x="961" y="1109"/>
      <point x="961" y="864" type="curve" smooth="yes"/>
      <point x="961" y="615"/>
      <point x="791" y="470"/>
      <point x="511" y="441" type="curve" smooth="yes"/>
      <point x="449" y="435"/>
      <point x="353" y="426"/>
    </contour>
  </outline>
</glyph>
<glyph name="germandbls" format="2">
  <advance width="560"/>
  <unicode hex="00DF"/>
  <outline>
    <contour>
      <point x="485" y="185" type="curve" smooth="yes"/>
      <point x="485" y="311"/>
      <point x="405" y="384"/>
      <point x="287" y="395" type="curve"/>
      <point x="281" y="382" type="line"/>
      <point x="427" y="398"/>
      <point x="522" y="655"/>
      <point x="522" y="861" type="curve" smooth="yes"/>
      <point x="522" y="1065"/>
      <point x="434" y="1212"/>
      <point x="312" y="1212" type="curve" smooth="yes"/>
      <point x="190" y="1212"/>
      <point x="115" y="1090"/>
      <point x="115" y="890" type="curve" smooth="yes"/>
      <point x="115" y="-800" type="line" smooth="yes"/>
      <point x="115" y="-808"/>
      <point x="119" y="-812"/>
      <point x="129" y="-812" type="curve" smooth="yes"/>
      <point x="140" y="-812"/>
      <point x="144" y="-808"/>
      <point x="144" y="-800" type="curve" smooth="yes"/>
      <point x="144" y="890" type="line" smooth="yes"/>
      <point x="144" y="1073"/>
      <point x="208" y="1185"/>
      <point x="312" y="1185" type="curve" smooth="yes"/>
      <point x="417" y="1185"/>
      <point x="493" y="1049"/>
      <point x="493" y="862" type="curve" smooth="yes"/>
      <point x="493" y="633"/>
      <point x="390" y="400"/>
      <point x="256" y="400" type="curve" smooth="yes"/>
      <point x="245" y="400" type="line" smooth="yes"/>
      <point x="240" y="400"/>
      <point x="236" y="397"/>
      <point x="236" y="387" type="curve" smooth="yes"/>
      <point x="236" y="377"/>
      <point x="240" y="374"/>
      <point x="245" y="374" type="curve" smooth="yes"/>
      <point x="253" y="374" type="line" smooth="yes"/>
      <point x="376" y="374"/>
      <point x="455" y="297"/>
      <point x="455" y="185" type="curve" smooth="yes"/>
      <point x="455" y="71"/>
      <point x="382" y="12"/>
      <point x="298" y="12" type="curve" smooth="yes"/>
      <point x="261" y="12"/>
      <point x="233" y="20"/>
      <point x="205" y="33" type="curve" smooth="yes"/>
      <point x="196" y="37"/>
      <point x="190" y="36"/>
      <point x="185" y="26" type="curve" smooth="yes"/>
      <point x="181" y="18"/>
      <point x="179" y="12"/>
      <point x="190" y="7" type="curve" smooth="yes"/>
      <point x="229" y="-9"/>
      <point x="253" y="-15"/>
      <point x="298" y="-15" type="curve" smooth="yes"/>
      <point x="403" y="-15"/>
      <point x="485" y="58"/>
    </contour>
  </outline>
</glyph>
<glyph name="ae" format="2">
  <advance width="894"/>
  <unicode hex="00E6"/>
  <anchor x="495" y="500" name="top"/>
  <outline>
    <contour>
      <point x="75" y="214" type="curve" smooth="yes"/>
      <point x="75" y="70"/>
      <point x="126" y="-17"/>
      <point x="205" y="-17" type="curve" smooth="yes"/>
      <point x="304" y="-17"/>
      <point x="379" y="66"/>
      <point x="510" y="423" type="curve"/>
      <point x="485" y="438" type="line"/>
      <point x="353" y="96"/>
      <point x="288" y="18"/>
      <point x="209" y="18" type="curve" smooth="yes"/>
      <point x="148" y="18"/>
      <point x="115" y="100"/>
      <point x="115" y="218" type="curve" smooth="yes"/>
      <point x="115" y="371"/>
      <point x="183" y="485"/>
      <point x="324" y="485" type="curve" smooth="yes"/>
      <point x="393" y="485"/>
      <point x="444" y="466"/>
      <point x="505" y="439" type="curve"/>
      <point x="495" y="461" type="line"/>
      <point x="471" y="406"/>
      <point x="445" y="330"/>
      <point x="445" y="229" type="curve" smooth="yes"/>
      <point x="445" y="86"/>
      <point x="515" y="-19"/>
      <point x="623" y="-19" type="curve" smooth="yes"/>
      <point x="723" y="-19"/>
      <point x="809" y="65"/>
      <point x="841" y="116" type="curve" smooth="yes"/>
      <point x="848" y="125"/>
      <point x="841" y="133"/>
      <point x="835" y="138" type="curve" smooth="yes"/>
      <point x="828" y="143"/>
      <point x="820" y="145"/>
      <point x="814" y="138" type="curve" smooth="yes"/>
      <point x="784" y="95"/>
      <point x="710" y="15"/>
      <point x="624" y="15" type="curve" smooth="yes"/>
      <point x="554" y="15"/>
      <point x="481" y="78"/>
      <point x="481" y="238" type="curve" smooth="yes"/>
      <point x="481" y="315"/>
      <point x="503" y="391"/>
      <point x="538" y="466" type="curve"/>
      <point x="470" y="496"/>
      <point x="409" y="519"/>
      <point x="328" y="519" type="curve" smooth="yes"/>
      <point x="150" y="519"/>
      <point x="75" y="376"/>
    </contour>
    <contour>
      <point x="826" y="396" type="curve" smooth="yes"/>
      <point x="826" y="473"/>
      <point x="770" y="519"/>
      <point x="670" y="519" type="curve" smooth="yes"/>
      <point x="605" y="519"/>
      <point x="555" y="499"/>
      <point x="499" y="463" type="curve"/>
      <point x="518" y="430" type="line"/>
      <point x="564" y="468"/>
      <point x="618" y="485"/>
      <point x="666" y="485" type="curve" smooth="yes"/>
      <point x="740" y="485"/>
      <point x="786" y="456"/>
      <point x="786" y="396" type="curve" smooth="yes"/>
      <point x="786" y="288"/>
      <point x="589" y="231"/>
      <point x="476" y="206" type="curve"/>
      <point x="476" y="173" type="line"/>
      <point x="620" y="200"/>
      <point x="826" y="270"/>
    </contour>
  </outline>
</glyph>
<glyph name="eth" format="2">
  <advance width="603"/>
  <unicode hex="00F0"/>
  <outline>
    <contour>
      <point x="294" y="-19" type="curve" smooth="yes"/>
      <point x="420" y="-19"/>
      <point x="526" y="90"/>
      <point x="526" y="384" type="curve" smooth="yes"/>
      <point x="526" y="815"/>
      <point x="414" y="1260"/>
      <point x="224" y="1513" type="curve" smooth="yes"/>
      <point x="218" y="1521"/>
      <point x="210" y="1521"/>
      <point x="200" y="1513" type="curve" smooth="yes"/>
      <point x="191" y="1504"/>
      <point x="191" y="1496"/>
      <point x="196" y="1489" type="curve" smooth="yes"/>
      <point x="365" y="1259"/>
      <point x="471" y="867"/>
      <point x="486" y="477" type="curve"/>
      <point x="430" y="505"/>
      <point x="386" y="519"/>
      <point x="325" y="519" type="curve" smooth="yes"/>
      <point x="180" y="519"/>
      <point x="88" y="408"/>
      <point x="88" y="250" type="curve" smooth="yes"/>
      <point x="88" y="90"/>
      <point x="159" y="-19"/>
    </contour>
    <contour>
      <point x="294" y="16" type="curve" smooth="yes"/>
      <point x="185" y="16"/>
      <point x="126" y="113"/>
      <point x="126" y="250" type="curve" smooth="yes"/>
      <point x="126" y="385"/>
      <point x="195" y="484"/>
      <point x="325" y="484" type="curve" smooth="yes"/>
      <point x="374" y="484"/>
      <point x="428" y="472"/>
      <point x="487" y="441" type="curve"/>
      <point x="487" y="422"/>
      <point x="488" y="403"/>
      <point x="488" y="384" type="curve" smooth="yes"/>
      <point x="488" y="105"/>
      <point x="395" y="16"/>
    </contour>
    <contour>
      <point x="219" y="1139" type="curve" smooth="yes"/>
      <point x="488" y="1288" type="line" smooth="yes"/>
      <point x="498" y="1293"/>
      <point x="499" y="1299"/>
      <point x="495" y="1310" type="curve" smooth="yes"/>
      <point x="490" y="1323"/>
      <point x="483" y="1326"/>
      <point x="473" y="1321" type="curve" smooth="yes"/>
      <point x="205" y="1173" type="line" smooth="yes"/>
      <point x="194" y="1166"/>
      <point x="193" y="1160"/>
      <point x="196" y="1150" type="curve" smooth="yes"/>
      <point x="201" y="1138"/>
      <point x="209" y="1134"/>
    </contour>
  </outline>
</glyph>
<glyph name="idotless" format="2">
  <advance width="240"/>
  <unicode hex="0131"/>
  <anchor x="153" y="0" name="bottom"/>
  <anchor x="202" y="0" name="ogonek"/>
  <anchor x="104" y="400" name="top"/>
  <outline>
    <contour>
      <point x="142" y="-14" type="curve" smooth="yes"/>
      <point x="175" y="-14"/>
      <point x="211" y="15"/>
      <point x="231" y="71" type="curve" smooth="yes"/>
      <point x="233" y="76"/>
      <point x="231" y="82"/>
      <point x="223" y="85" type="curve" smooth="yes"/>
      <point x="216" y="88"/>
      <point x="209" y="88"/>
      <point x="206" y="80" type="curve" smooth="yes"/>
      <point x="186" y="32"/>
      <point x="169" y="13"/>
      <point x="146" y="13" type="curve" smooth="yes"/>
      <point x="124" y="13"/>
      <point x="120" y="37"/>
      <point x="120" y="65" type="curve" smooth="yes"/>
      <point x="120" y="400" type="line" smooth="yes"/>
      <point x="120" y="409"/>
      <point x="115" y="412"/>
      <point x="105" y="412" type="curve" smooth="yes"/>
      <point x="95" y="412"/>
      <point x="90" y="409"/>
      <point x="90" y="400" type="curve" smooth="yes"/>
      <point x="90" y="54" type="line" smooth="yes"/>
      <point x="90" y="9"/>
      <point x="108" y="-14"/>
    </contour>
  </outline>
</glyph>
<glyph name="Eng" format="2">
  <advance width="1100"/>
  <unicode hex="014A"/>
  <outline>
    <contour>
      <point x="907" y="-180" type="curve" smooth="yes"/>
      <point x="907" y="1200" type="line" smooth="yes"/>
      <point x="907" y="1209"/>
      <point x="903" y="1212"/>
      <point x="892" y="1212" type="curve" smooth="yes"/>
      <point x="881" y="1212"/>
      <point x="877" y="1209"/>
      <point x="877" y="1200" type="curve" smooth="yes"/>
      <point x="877" y="54" type="line"/>
      <point x="224" y="1205" type="line" smooth="yes"/>
      <point x="221" y="1210"/>
      <point x="217" y="1212"/>
      <point x="207" y="1212" type="curve" smooth="yes"/>
      <point x="198" y="1212"/>
      <point x="193" y="1209"/>
      <point x="193" y="1200" type="curve" smooth="yes"/>
      <point x="193" y="1" type="line" smooth="yes"/>
      <point x="193" y="-8"/>
      <point x="197" y="-11"/>
      <point x="208" y="-11" type="curve" smooth="yes"/>
      <point x="219" y="-11"/>
      <point x="223" y="-8"/>
      <point x="223" y="1" type="curve" smooth="yes"/>
      <point x="223" y="1148" type="line"/>
      <point x="878" y="-7" type="line"/>
      <point x="878" y="-174" type="line" smooth="yes"/>
      <point x="878" y="-281"/>
      <point x="855" y="-326"/>
      <point x="799" y="-326" type="curve" smooth="yes"/>
      <point x="752" y="-326"/>
      <point x="708" y="-304"/>
      <point x="667" y="-260" type="curve" smooth="yes"/>
      <point x="662" y="-254"/>
      <point x="655" y="-255"/>
      <point x="647" y="-263" type="curve" smooth="yes"/>
      <point x="640" y="-270"/>
      <point x="639" y="-277"/>
      <point x="646" y="-284" type="curve" smooth="yes"/>
      <point x="690" y="-328"/>
      <point x="735" y="-355"/>
      <point x="796" y="-355" type="curve" smooth="yes"/>
      <point x="874" y="-355"/>
      <point x="907" y="-303"/>
    </contour>
  </outline>
</glyph>
<glyph name="eng" format="2">
  <advance width="613"/>
  <unicode hex="014B"/>
  <outline>
    <contour>
      <point x="503" y="-135" type="curve" smooth="yes"/>
      <point x="503" y="356" type="line" smooth="yes"/>
      <point x="503" y="481"/>
      <point x="449" y="519"/>
      <point x="381" y="519" type="curve" smooth="yes"/>
      <point x="305" y="519"/>
      <point x="196" y="451"/>
      <point x="150" y="229" type="curve"/>
      <point x="150" y="500" type="line" smooth="yes"/>
      <point x="150" y="511"/>
      <point x="144" y="515"/>
      <point x="131" y="515" type="curve" smooth="yes"/>
      <point x="119" y="515"/>
      <point x="113" y="511"/>
      <point x="113" y="500" type="curve" smooth="yes"/>
      <point x="113" y="0" type="line" smooth="yes"/>
      <point x="113" y="-11"/>
      <point x="119" y="-15"/>
      <point x="131" y="-15" type="curve" smooth="yes"/>
      <point x="144" y="-15"/>
      <point x="150" y="-11"/>
      <point x="150" y="0" type="curve" smooth="yes"/>
      <point x="150" y="60" type="line"/>
      <point x="184" y="398"/>
      <point x="295" y="485"/>
      <point x="380" y="485" type="curve" smooth="yes"/>
      <point x="444" y="485"/>
      <point x="465" y="440"/>
      <point x="465" y="346" type="curve" smooth="yes"/>
      <point x="465" y="-132" type="line" smooth="yes"/>
      <point x="465" y="-192"/>
      <point x="454" y="-220"/>
      <point x="409" y="-220" type="curve" smooth="yes"/>
      <point x="374" y="-220"/>
      <point x="339" y="-200"/>
      <point x="314" y="-175" type="curve" smooth="yes"/>
      <point x="306" y="-167"/>
      <point x="296" y="-165"/>
      <point x="288" y="-174" type="curve" smooth="yes"/>
      <point x="276" y="-185"/>
      <point x="279" y="-194"/>
      <point x="286" y="-201" type="curve" smooth="yes"/>
      <point x="318" y="-234"/>
      <point x="358" y="-255"/>
      <point x="408" y="-255" type="curve" smooth="yes"/>
      <point x="480" y="-255"/>
      <point x="503" y="-214"/>
    </contour>
  </outline>
</glyph>
<glyph name="OE" format="2">
	<unicode hex="0152"/>
	<advance width="1092"/>
	<outline>
		<contour>
			<point x="401" y="-15" type="curve" smooth="yes"/>
			<point x="575" y="-15"/>
			<point x="682" y="127"/>
			<point x="682" y="349" type="curve" smooth="yes"/>
			<point x="682" y="570"/>
			<point x="583" y="712"/>
			<point x="405" y="712" type="curve" smooth="yes"/>
			<point x="235" y="712"/>
			<point x="120" y="570"/>
			<point x="120" y="349" type="curve" smooth="yes"/>
			<point x="120" y="127"/>
			<point x="231" y="-15"/>
		</contour>
		<contour>
			<point x="401" y="15" type="curve" smooth="yes"/>
			<point x="250" y="15"/>
			<point x="153" y="145"/>
			<point x="153" y="349" type="curve" smooth="yes"/>
			<point x="153" y="553"/>
			<point x="254" y="682"/>
			<point x="405" y="682" type="curve" smooth="yes"/>
			<point x="560" y="682"/>
			<point x="657" y="553"/>
			<point x="657" y="349" type="curve" smooth="yes"/>
			<point x="657" y="145"/>
			<point x="552" y="15"/>
		</contour>
		<contour>
			<point x="672" y="0" type="curve" smooth="yes"/>
			<point x="1018" y="0" type="line" smooth="yes"/>
			<point x="1023" y="0"/>
			<point x="1027" y="4"/>
			<point x="1027" y="14" type="curve" smooth="yes"/>
			<point x="1027" y="24"/>
			<point x="1023" y="28"/>
			<point x="1018" y="28" type="curve" smooth="yes"/>
			<point x="687" y="28" type="line"/>
			<point x="687" y="356" type="line"/>
			<point x="968" y="356" type="line" smooth="yes"/>
			<point x="973" y="356"/>
			<point x="977" y="360"/>
			<point x="977" y="370" type="curve" smooth="yes"/>
			<point x="977" y="380"/>
			<point x="973" y="384"/>
			<point x="968" y="384" type="curve" smooth="yes"/>
			<point x="687" y="384" type="line"/>
			<point x="687" y="672" type="line"/>
			<point x="1018" y="672" type="line" smooth="yes"/>
			<point x="1023" y="672"/>
			<point x="1027" y="676"/>
			<point x="1027" y="686" type="curve" smooth="yes"/>
			<point x="1027" y="696"/>
			<point x="1023" y="700"/>
			<point x="1018" y="700" type="curve" smooth="yes"/>
			<point x="673" y="700" type="line" smooth="yes"/>
			<point x="662" y="700"/>
			<point x="657" y="697"/>
			<point x="657" y="688" type="curve" smooth="yes"/>
			<point x="657" y="12" type="line" smooth="yes"/>
			<point x="657" y="3"/>
			<point x="661" y="0"/>
		</contour>
	</outline>
	<anchor name="top" x="605" y="670"/>
</glyph>
<glyph name="oe" format="2">
  <advance width="741"/>
  <unicode hex="0153"/>
  <anchor x="396" y="400" name="top"/>
  <outline>
    <contour>
      <point x="236" y="-15" type="curve" smooth="yes"/>
      <point x="338" y="-15"/>
      <point x="407" y="72"/>
      <point x="407" y="200" type="curve" smooth="yes"/>
      <point x="407" y="328"/>
      <point x="337" y="415"/>
      <point x="236" y="415" type="curve" smooth="yes"/>
      <point x="134" y="415"/>
      <point x="60" y="328"/>
      <point x="60" y="200" type="curve" smooth="yes"/>
      <point x="60" y="72"/>
      <point x="125" y="-15"/>
    </contour>
    <contour>
      <point x="236" y="13" type="curve" smooth="yes"/>
      <point x="146" y="13"/>
      <point x="91" y="90"/>
      <point x="91" y="200" type="curve" smooth="yes"/>
      <point x="91" y="310"/>
      <point x="146" y="387"/>
      <point x="236" y="387" type="curve" smooth="yes"/>
      <point x="325" y="387"/>
      <point x="380" y="310"/>
      <point x="380" y="200" type="curve" smooth="yes"/>
      <point x="380" y="90"/>
      <point x="325" y="13"/>
    </contour>
    <contour>
      <point x="536" y="-15" type="curve" smooth="yes"/>
      <point x="611" y="-15"/>
      <point x="673" y="52"/>
      <point x="699" y="93" type="curve" smooth="yes"/>
      <point x="704" y="100"/>
      <point x="699" y="106"/>
      <point x="694" y="110" type="curve" smooth="yes"/>
      <point x="688" y="114"/>
      <point x="682" y="116"/>
      <point x="677" y="110" type="curve" smooth="yes"/>
      <point x="653" y="76"/>
      <point x="606" y="12"/>
      <point x="537" y="12" type="curve" smooth="yes"/>
      <point x="472" y="12"/>
      <point x="411" y="61"/>
      <point x="411" y="183" type="curve" smooth="yes"/>
      <point x="411" y="330"/>
      <point x="492" y="388"/>
      <point x="564" y="388" type="curve" smooth="yes"/>
      <point x="623" y="388"/>
      <point x="655" y="363"/>
      <point x="655" y="322" type="curve" smooth="yes"/>
      <point x="655" y="235"/>
      <point x="497" y="185"/>
      <point x="406" y="165" type="curve"/>
      <point x="406" y="138" type="line"/>
      <point x="522" y="160"/>
      <point x="687" y="221"/>
      <point x="687" y="322" type="curve" smooth="yes"/>
      <point x="687" y="365"/>
      <point x="656" y="415"/>
      <point x="567" y="415" type="curve" smooth="yes"/>
      <point x="461" y="415"/>
      <point x="384" y="322"/>
      <point x="384" y="180" type="curve" smooth="yes"/>
      <point x="384" y="70"/>
      <point x="438" y="-15"/>
    </contour>
  </outline>
</glyph>
<glyph name="Ohorn" format="2">
  <advance width="1434"/>
  <unicode hex="01A0"/>
  <anchor x="718" y="0" name="bottom"/>
  <anchor x="718" y="744" name="center"/>
  <anchor x="916" y="11" name="ogonek"/>
  <anchor x="718" y="1424" name="top"/>
  <outline>
    <contour>
      <point x="719" y="-19" type="curve" smooth="yes"/>
      <point x="1060" y="-19"/>
      <point x="1284" y="285"/>
      <point x="1284" y="749" type="curve" smooth="yes"/>
      <point x="1284" y="1041"/>
      <point x="1194" y="1270"/>
      <point x="1042" y="1399" type="curve"/>
      <point x="1175" y="1419"/>
      <point x="1232" y="1517"/>
      <point x="1187" y="1679" type="curve" smooth="yes"/>
      <point x="1179" y="1708"/>
      <point x="1136" y="1699"/>
      <point x="1143" y="1672" type="curve" smooth="yes"/>
      <point x="1185" y="1504"/>
      <point x="1138" y="1442"/>
      <point x="1010" y="1424" type="curve"/>
      <point x="928" y="1483"/>
      <point x="830" y="1515"/>
      <point x="719" y="1515" type="curve" smooth="yes"/>
      <point x="375" y="1515"/>
      <point x="150" y="1211"/>
      <point x="150" y="749" type="curve" smooth="yes"/>
      <point x="150" y="285"/>
      <point x="375" y="-19"/>
    </contour>
    <contour>
      <point x="719" y="19" type="curve" smooth="yes"/>
      <point x="400" y="19"/>
      <point x="191" y="308"/>
      <point x="191" y="749" type="curve" smooth="yes"/>
      <point x="191" y="1189"/>
      <point x="400" y="1478"/>
      <point x="719" y="1478" type="curve" smooth="yes"/>
      <point x="1035" y="1478"/>
      <point x="1243" y="1189"/>
      <point x="1243" y="749" type="curve" smooth="yes"/>
      <point x="1243" y="308"/>
      <point x="1035" y="19"/>
    </contour>
  </outline>
</glyph>
<glyph name="Uhorn" format="2">
  <advance width="1337"/>
  <unicode hex="01AF"/>
  <anchor x="669" y="0" name="bottom"/>
  <anchor x="910" y="21" name="ogonek"/>
  <anchor x="669" y="1424" name="top"/>
  <anchor x="1096" y="1509" name="topright"/>
  <outline>
    <contour>
      <point x="1250" y="1673" type="curve" smooth="yes"/>
      <point x="1244" y="1702"/>
      <point x="1201" y="1693"/>
      <point x="1206" y="1666" type="curve" smooth="yes"/>
      <point x="1219" y="1589"/>
      <point x="1220" y="1519"/>
      <point x="1096" y="1509" type="curve"/>
      <point x="1096" y="1482" type="line"/>
      <point x="1241" y="1482"/>
      <point x="1270" y="1576"/>
    </contour>
    <component base="U"/>
  </outline>
</glyph>
<glyph name="uhorn" format="2">
  <advance width="646"/>
  <unicode hex="01B0"/>
  <anchor x="303" y="0" name="bottom"/>
  <anchor x="581" y="13" name="ogonek"/>
  <anchor x="303" y="500" name="top"/>
  <outline>
    <contour>
      <point x="230" y="-17" type="curve" smooth="yes"/>
      <point x="313" y="-17"/>
      <point x="440" y="68"/>
      <point x="473" y="361" type="curve"/>
      <point x="460" y="454" type="line"/>
      <point x="428" y="106"/>
      <point x="315" y="16"/>
      <point x="231" y="16" type="curve" smooth="yes"/>
      <point x="171" y="16"/>
      <point x="150" y="61"/>
      <point x="150" y="155" type="curve" smooth="yes"/>
      <point x="150" y="500" type="line" smooth="yes"/>
      <point x="150" y="511"/>
      <point x="144" y="515"/>
      <point x="131" y="515" type="curve" smooth="yes"/>
      <point x="119" y="515"/>
      <point x="113" y="511"/>
      <point x="113" y="500" type="curve" smooth="yes"/>
      <point x="113" y="145" type="line" smooth="yes"/>
      <point x="113" y="20"/>
      <point x="166" y="-17"/>
    </contour>
    <contour>
      <point x="524" y="-17" type="curve" smooth="yes"/>
      <point x="565" y="-17"/>
      <point x="610" y="19"/>
      <point x="635" y="89" type="curve"/>
      <point x="638" y="95"/>
      <point x="635" y="103"/>
      <point x="625" y="106" type="curve" smooth="yes"/>
      <point x="616" y="110"/>
      <point x="608" y="110"/>
      <point x="604" y="100" type="curve" smooth="yes"/>
      <point x="579" y="40"/>
      <point x="558" y="16"/>
      <point x="529" y="16" type="curve" smooth="yes"/>
      <point x="501" y="16"/>
      <point x="496" y="46"/>
      <point x="496" y="81" type="curve" smooth="yes"/>
      <point x="496" y="489" type="line"/>
      <point x="619" y="500"/>
      <point x="644" y="592"/>
      <point x="624" y="686" type="curve" smooth="yes"/>
      <point x="618" y="714"/>
      <point x="575" y="705"/>
      <point x="580" y="679" type="curve" smooth="yes"/>
      <point x="594" y="599"/>
      <point x="594" y="524"/>
      <point x="478" y="516" type="curve"/>
      <point x="465" y="516"/>
      <point x="459" y="513"/>
      <point x="459" y="501" type="curve" smooth="yes"/>
      <point x="459" y="68" type="line" smooth="yes"/>
      <point x="459" y="11"/>
      <point x="481" y="-17"/>
    </contour>
  </outline>
</glyph>
<glyph name="jdotless" format="2">
  <advance width="268"/>
  <unicode hex="0237"/>
  <anchor x="130" y="500" name="top"/>
  <outline>
    <contour>
      <point x="54" y="-1017" type="curve" smooth="yes"/>
      <point x="126" y="-1017"/>
      <point x="149" y="-976"/>
      <point x="149" y="-897" type="curve" smooth="yes"/>
      <point x="149" y="500" type="line" smooth="yes"/>
      <point x="149" y="511"/>
      <point x="144" y="515"/>
      <point x="131" y="515" type="curve" smooth="yes"/>
      <point x="119" y="515"/>
      <point x="113" y="511"/>
      <point x="113" y="500" type="curve" smooth="yes"/>
      <point x="113" y="-895" type="line" smooth="yes"/>
      <point x="113" y="-955"/>
      <point x="100" y="-982"/>
      <point x="55" y="-982" type="curve" smooth="yes"/>
      <point x="20" y="-982"/>
      <point x="-15" y="-962"/>
      <point x="-40" y="-937" type="curve" smooth="yes"/>
      <point x="-47" y="-930"/>
      <point x="-57" y="-927"/>
      <point x="-66" y="-936" type="curve" smooth="yes"/>
      <point x="-77" y="-947"/>
      <point x="-75" y="-956"/>
      <point x="-67" y="-964" type="curve" smooth="yes"/>
      <point x="-36" y="-996"/>
      <point x="4" y="-1017"/>
    </contour>
  </outline>
</glyph>
<glyph name="gravecomb" format="2">
  <unicode hex="0300"/>
  <anchor x="0" y="500" name="_top"/>
  <anchor x="0" y="818" name="top"/>
  <outline>
    <contour>
      <point x="44" y="630" type="curve" smooth="yes"/>
      <point x="51" y="630"/>
      <point x="63" y="640"/>
      <point x="63" y="648" type="curve" smooth="yes"/>
      <point x="63" y="650"/>
      <point x="61" y="654"/>
      <point x="59" y="658" type="curve" smooth="yes"/>
      <point x="-66" y="829" type="line" smooth="yes"/>
      <point x="-70" y="834"/>
      <point x="-74" y="836"/>
      <point x="-79" y="836" type="curve" smooth="yes"/>
      <point x="-89" y="836"/>
      <point x="-105" y="824"/>
      <point x="-105" y="814" type="curve" smooth="yes"/>
      <point x="-105" y="810"/>
      <point x="-104" y="808"/>
      <point x="-101" y="804" type="curve" smooth="yes"/>
      <point x="33" y="636" type="line" smooth="yes"/>
      <point x="36" y="631"/>
      <point x="40" y="630"/>
    </contour>
  </outline>
</glyph>
<glyph name="acutecomb" format="2">
  <unicode hex="0301"/>
  <anchor x="0" y="400" name="_top"/>
  <anchor x="0" y="654" name="top"/>
  <outline>
    <contour>
      <point x="-36" y="504" type="curve" smooth="yes"/>
      <point x="-33" y="504"/>
      <point x="-30" y="505"/>
      <point x="-27" y="509" type="curve" smooth="yes"/>
      <point x="79" y="642" type="line" smooth="yes"/>
      <point x="82" y="646"/>
      <point x="83" y="648"/>
      <point x="83" y="651" type="curve" smooth="yes"/>
      <point x="83" y="659"/>
      <point x="70" y="669"/>
      <point x="62" y="669" type="curve" smooth="yes"/>
      <point x="58" y="669"/>
      <point x="55" y="667"/>
      <point x="52" y="663" type="curve" smooth="yes"/>
      <point x="-48" y="526" type="line" smooth="yes"/>
      <point x="-50" y="523"/>
      <point x="-51" y="520"/>
      <point x="-51" y="518" type="curve" smooth="yes"/>
      <point x="-51" y="512"/>
      <point x="-42" y="504"/>
    </contour>
  </outline>
</glyph>
<glyph name="circumflexcomb" format="2">
	<unicode hex="0302"/>
	<outline>
		<contour>
			<point x="-117" y="504" type="curve" smooth="yes"/>
			<point x="-113" y="504"/>
			<point x="-110" y="506"/>
			<point x="-107" y="509" type="curve" smooth="yes"/>
			<point x="0" y="627" type="line"/>
			<point x="107" y="509" type="line" smooth="yes"/>
			<point x="110" y="506"/>
			<point x="113" y="504"/>
			<point x="117" y="504" type="curve" smooth="yes"/>
			<point x="124" y="504"/>
			<point x="131" y="510"/>
			<point x="131" y="518" type="curve" smooth="yes"/>
			<point x="131" y="521"/>
			<point x="130" y="524"/>
			<point x="127" y="527" type="curve" smooth="yes"/>
			<point x="13" y="662" type="line" smooth="yes"/>
			<point x="8" y="668"/>
			<point x="4" y="669"/>
			<point x="0" y="669" type="curve" smooth="yes"/>
			<point x="-4" y="669"/>
			<point x="-8" y="668"/>
			<point x="-13" y="662" type="curve" smooth="yes"/>
			<point x="-127" y="527" type="line" smooth="yes"/>
			<point x="-130" y="524"/>
			<point x="-131" y="521"/>
			<point x="-131" y="518" type="curve" smooth="yes"/>
			<point x="-131" y="510"/>
			<point x="-124" y="504"/>
		</contour>
	</outline>
	<anchor name="_top" x="0" y="400"/>
	<anchor name="top" x="0" y="654"/>
</glyph>
<glyph name="tildecomb" format="2">
	<unicode hex="0303"/>
	<outline>
		<contour>
			<point x="-124" y="524" type="curve" smooth="yes"/>
			<point x="-114" y="524"/>
			<point x="-111" y="527"/>
			<point x="-110" y="537" type="curve" smooth="yes"/>
			<point x="-107" y="577"/>
			<point x="-100" y="597"/>
			<point x="-78" y="597" type="curve" smooth="yes"/>
			<point x="-37" y="597"/>
			<point x="22" y="526"/>
			<point x="75" y="526" type="curve" smooth="yes"/>
			<point x="114" y="526"/>
			<point x="135" y="558"/>
			<point x="138" y="612" type="curve" smooth="yes"/>
			<point x="138" y="623"/>
			<point x="135" y="626"/>
			<point x="124" y="626" type="curve" smooth="yes"/>
			<point x="114" y="626"/>
			<point x="110" y="623"/>
			<point x="109" y="613" type="curve" smooth="yes"/>
			<point x="107" y="574"/>
			<point x="99" y="554"/>
			<point x="76" y="554" type="curve" smooth="yes"/>
			<point x="36" y="554"/>
			<point x="-22" y="625"/>
			<point x="-78" y="625" type="curve" smooth="yes"/>
			<point x="-115" y="625"/>
			<point x="-135" y="591"/>
			<point x="-138" y="538" type="curve" smooth="yes"/>
			<point x="-138" y="529"/>
			<point x="-133" y="524"/>
		</contour>
	</outline>
	<anchor name="_top" x="0" y="400"/>
	<anchor name="top" x="0" y="604"/>
</glyph>
<glyph name="macroncomb" format="2">
	<unicode hex="0304"/>
	<outline>
		<contour>
			<point x="-107" y="573" type="curve" smooth="yes"/>
			<point x="107" y="573" type="line" smooth="yes"/>
			<point x="116" y="573"/>
			<point x="119" y="577"/>
			<point x="119" y="586" type="curve" smooth="yes"/>
			<point x="119" y="596"/>
			<point x="116" y="601"/>
			<point x="107" y="601" type="curve" smooth="yes"/>
			<point x="-107" y="601" type="line" smooth="yes"/>
			<point x="-116" y="601"/>
			<point x="-119" y="596"/>
			<point x="-119" y="586" type="curve" smooth="yes"/>
			<point x="-119" y="577"/>
			<point x="-116" y="573"/>
		</contour>
	</outline>
	<anchor name="_top" x="0" y="400"/>
	<anchor name="top" x="0" y="654"/>
</glyph>
<glyph name="hookabovecomb" format="2">
	<unicode hex="0309"/>
	<outline>
		<contour>
			<point x="10" y="670" type="curve" smooth="yes"/>
			<point x="-14" y="670"/>
			<point x="-44" y="662"/>
			<point x="-61" y="649" type="curve" smooth="yes"/>
			<point x="-68" y="643"/>
			<point x="-70" y="638"/>
			<point x="-65" y="629" type="curve" smooth="yes"/>
			<point x="-62" y="623"/>
			<point x="-56" y="620"/>
			<point x="-46" y="626" type="curve" smooth="yes"/>
			<point x="-31" y="635"/>
			<point x="-11" y="642"/>
			<point x="7" y="642" type="curve" smooth="yes"/>
			<point x="31" y="642"/>
			<point x="43" y="634"/>
			<point x="43" y="618" type="curve" smooth="yes"/>
			<point x="43" y="605"/>
			<point x="37" y="591"/>
			<point x="17" y="573" type="curve" smooth="yes"/>
			<point x="-5" y="553"/>
			<point x="-16" y="534"/>
			<point x="-13" y="513" type="curve" smooth="yes"/>
			<point x="-11" y="500" type="line" smooth="yes"/>
			<point x="-9" y="484"/>
			<point x="23" y="486"/>
			<point x="20" y="504" type="curve" smooth="yes"/>
			<point x="18" y="515" type="line" smooth="yes"/>
			<point x="16" y="528"/>
			<point x="21" y="537"/>
			<point x="40" y="554" type="curve" smooth="yes"/>
			<point x="65" y="576"/>
			<point x="75" y="599"/>
			<point x="75" y="619" type="curve" smooth="yes"/>
			<point x="75" y="649"/>
			<point x="51" y="670"/>
		</contour>
	</outline>
	<anchor name="_top" x="0" y="400"/>
	<anchor name="top" x="0" y="654"/>
</glyph>
<glyph name="hungarumlautcomb" format="2">
	<unicode hex="030B"/>
	<outline>
		<contour>
			<point x="-74" y="504" type="curve" smooth="yes"/>
			<point x="-70" y="504"/>
			<point x="-67" y="507"/>
			<point x="-65" y="511" type="curve" smooth="yes"/>
			<point x="12" y="644" type="line" smooth="yes"/>
			<point x="14" y="648"/>
			<point x="15" y="651"/>
			<point x="15" y="654" type="curve" smooth="yes"/>
			<point x="15" y="662"/>
			<point x="2" y="669"/>
			<point x="-5" y="669" type="curve" smooth="yes"/>
			<point x="-10" y="669"/>
			<point x="-13" y="666"/>
			<point x="-16" y="661" type="curve" smooth="yes"/>
			<point x="-87" y="526" type="line" smooth="yes"/>
			<point x="-90" y="520"/>
			<point x="-90" y="518"/>
			<point x="-90" y="516" type="curve" smooth="yes"/>
			<point x="-90" y="509"/>
			<point x="-81" y="504"/>
		</contour>
		<contour>
			<point x="46" y="504" type="curve" smooth="yes"/>
			<point x="50" y="504"/>
			<point x="53" y="507"/>
			<point x="55" y="511" type="curve" smooth="yes"/>
			<point x="137" y="644" type="line" smooth="yes"/>
			<point x="139" y="648"/>
			<point x="140" y="651"/>
			<point x="140" y="654" type="curve" smooth="yes"/>
			<point x="140" y="662"/>
			<point x="127" y="669"/>
			<point x="120" y="669" type="curve" smooth="yes"/>
			<point x="115" y="669"/>
			<point x="112" y="666"/>
			<point x="109" y="661" type="curve" smooth="yes"/>
			<point x="33" y="526" type="line" smooth="yes"/>
			<point x="30" y="520"/>
			<point x="30" y="518"/>
			<point x="30" y="516" type="curve" smooth="yes"/>
			<point x="30" y="509"/>
			<point x="39" y="504"/>
		</contour>
	</outline>
	<anchor name="_top" x="0" y="400"/>
	<anchor name="top" x="53" y="654"/>
</glyph>
<glyph name="caroncomb" format="2">
	<unicode hex="030C"/>
	<outline>
		<contour>
			<point x="117" y="669" type="curve" smooth="yes"/>
			<point x="113" y="669"/>
			<point x="110" y="667"/>
			<point x="107" y="664" type="curve" smooth="yes"/>
			<point x="0" y="546" type="line"/>
			<point x="-107" y="664" type="line" smooth="yes"/>
			<point x="-110" y="667"/>
			<point x="-113" y="669"/>
			<point x="-117" y="669" type="curve" smooth="yes"/>
			<point x="-124" y="669"/>
			<point x="-131" y="663"/>
			<point x="-131" y="655" type="curve" smooth="yes"/>
			<point x="-131" y="652"/>
			<point x="-130" y="649"/>
			<point x="-127" y="646" type="curve" smooth="yes"/>
			<point x="-13" y="511" type="line" smooth="yes"/>
			<point x="-8" y="505"/>
			<point x="-4" y="504"/>
			<point x="0" y="504" type="curve" smooth="yes"/>
			<point x="4" y="504"/>
			<point x="8" y="505"/>
			<point x="13" y="511" type="curve" smooth="yes"/>
			<point x="127" y="646" type="line" smooth="yes"/>
			<point x="130" y="649"/>
			<point x="131" y="652"/>
			<point x="131" y="655" type="curve" smooth="yes"/>
			<point x="131" y="663"/>
			<point x="124" y="669"/>
		</contour>
	</outline>
	<anchor name="_top" x="0" y="400"/>
	<anchor name="top" x="0" y="654"/>
</glyph>
<glyph name="commaturnedabovecomb" format="2">
	<unicode hex="0312"/>
	<outline>
		<contour>
			<point x="39" y="669" type="curve" smooth="yes"/>
			<point x="29" y="673"/>
			<point x="24" y="668"/>
			<point x="19" y="660" type="curve" smooth="yes"/>
			<point x="-5" y="622"/>
			<point x="-21" y="566"/>
			<point x="-21" y="521" type="curve" smooth="yes"/>
			<point x="-21" y="512"/>
			<point x="-16" y="504"/>
			<point x="-4" y="504" type="curve" smooth="yes"/>
			<point x="8" y="504"/>
			<point x="11" y="512"/>
			<point x="11" y="521" type="curve" smooth="yes"/>
			<point x="11" y="581"/>
			<point x="22" y="611"/>
			<point x="42" y="647" type="curve" smooth="yes"/>
			<point x="49" y="660"/>
			<point x="49" y="665"/>
		</contour>
	</outline>
	<anchor name="_top" x="0" y="400"/>
	<anchor name="top" x="0" y="654"/>
</glyph>
<glyph name="horncomb" format="2">
  <unicode hex="031B"/>
  <anchor x="0" y="411" name="_topright"/>
  <outline>
    <contour>
      <point x="123" y="549" type="curve" smooth="yes"/>
      <point x="118" y="571"/>
      <point x="84" y="564"/>
      <point x="88" y="543" type="curve" smooth="yes"/>
      <point x="99" y="479"/>
      <point x="99" y="419"/>
      <point x="0" y="411" type="curve"/>
      <point x="0" y="390" type="line"/>
      <point x="116" y="390"/>
      <point x="140" y="469"/>
    </contour>
  </outline>
</glyph>
<glyph name="cedillacomb" format="2">
  <unicode hex="0327"/>
  <anchor x="0" y="0" name="_bottom"/>
  <anchor x="0" y="-210" name="bottom"/>
  <outline>
    <contour>
      <point x="-14" y="-212" type="curve" smooth="yes"/>
      <point x="35" y="-212"/>
      <point x="69" y="-182"/>
      <point x="69" y="-138" type="curve" smooth="yes"/>
      <point x="69" y="-84"/>
      <point x="23" y="-65"/>
      <point x="-30" y="-78" type="curve"/>
      <point x="-22" y="-86" type="line"/>
      <point x="14" y="0" type="line"/>
      <point x="-12" y="0" type="line"/>
      <point x="-43" y="-74" type="line" smooth="yes"/>
      <point x="-47" y="-83"/>
      <point x="-49" y="-88"/>
      <point x="-44" y="-95" type="curve" smooth="yes"/>
      <point x="-41" y="-99"/>
      <point x="-36" y="-101"/>
      <point x="-29" y="-100" type="curve" smooth="yes"/>
      <point x="14" y="-94"/>
      <point x="38" y="-109"/>
      <point x="38" y="-138" type="curve" smooth="yes"/>
      <point x="38" y="-166"/>
      <point x="18" y="-185"/>
      <point x="-14" y="-185" type="curve" smooth="yes"/>
      <point x="-35" y="-185"/>
      <point x="-54" y="-177"/>
      <point x="-72" y="-169" type="curve" smooth="yes"/>
      <point x="-80" y="-166"/>
      <point x="-85" y="-167"/>
      <point x="-89" y="-174" type="curve" smooth="yes"/>
      <point x="-93" y="-181"/>
      <point x="-93" y="-188"/>
      <point x="-85" y="-193" type="curve" smooth="yes"/>
      <point x="-61" y="-208"/>
      <point x="-32" y="-212"/>
    </contour>
  </outline>
</glyph>
<glyph name="strokelongcomb" format="2">
	<unicode hex="0336"/>
	<outline>
		<contour>
			<point x="-463" y="260" type="curve" smooth="yes"/>
			<point x="463" y="260" type="line" smooth="yes"/>
			<point x="472" y="260"/>
			<point x="475" y="264"/>
			<point x="475" y="273" type="curve" smooth="yes"/>
			<point x="475" y="283"/>
			<point x="472" y="288"/>
			<point x="463" y="288" type="curve" smooth="yes"/>
			<point x="-463" y="288" type="line" smooth="yes"/>
			<point x="-472" y="288"/>
			<point x="-475" y="283"/>
			<point x="-475" y="273" type="curve" smooth="yes"/>
			<point x="-475" y="264"/>
			<point x="-472" y="260"/>
		</contour>
	</outline>
	<anchor name="_center" x="0" y="274"/>
</glyph>
<glyph name="slashshortcomb" format="2">
  <unicode hex="0337"/>
  <anchor x="0" y="274" name="_center"/>
  <outline>
    <contour>
      <point x="-88" y="205" type="curve" smooth="yes"/>
      <point x="108" y="318" type="line" smooth="yes"/>
      <point x="116" y="323"/>
      <point x="116" y="328"/>
      <point x="112" y="336" type="curve" smooth="yes"/>
      <point x="107" y="344"/>
      <point x="102" y="347"/>
      <point x="94" y="343" type="curve" smooth="yes"/>
      <point x="-102" y="230" type="line" smooth="yes"/>
      <point x="-110" y="225"/>
      <point x="-110" y="219"/>
      <point x="-105" y="211" type="curve" smooth="yes"/>
      <point x="-100" y="203"/>
      <point x="-96" y="201"/>
    </contour>
  </outline>
</glyph>
<glyph name="slashlongcomb" format="2">
	<unicode hex="0338"/>
	<outline>
		<contour>
			<point x="-122" y="-33" type="curve" smooth="yes"/>
			<point x="149" y="444" type="line" smooth="yes"/>
			<point x="153" y="452"/>
			<point x="151" y="456"/>
			<point x="143" y="461" type="curve" smooth="yes"/>
			<point x="135" y="466"/>
			<point x="128" y="466"/>
			<point x="124" y="458" type="curve" smooth="yes"/>
			<point x="-147" y="-19" type="line" smooth="yes"/>
			<point x="-151" y="-26"/>
			<point x="-148" y="-32"/>
			<point x="-140" y="-37" type="curve" smooth="yes"/>
			<point x="-132" y="-41"/>
			<point x="-127" y="-41"/>
		</contour>
	</outline>
	<anchor name="_center" x="0" y="214"/>
</glyph>
<glyph name="Germandbls" format="2">
  <advance width="1060"/>
  <unicode hex="1E9E"/>
  <outline>
    <contour>
      <point x="661" y="-15" type="curve" smooth="yes"/>
      <point x="799" y="-15"/>
      <point x="959" y="91"/>
      <point x="959" y="301" type="curve" smooth="yes"/>
      <point x="959" y="665"/>
      <point x="546" y="703"/>
      <point x="546" y="960" type="curve" smooth="yes"/>
      <point x="546" y="1072"/>
      <point x="604" y="1184"/>
      <point x="787" y="1184" type="curve" smooth="yes"/>
      <point x="796" y="1184"/>
      <point x="798" y="1189"/>
      <point x="798" y="1199" type="curve" smooth="yes"/>
      <point x="798" y="1209"/>
      <point x="796" y="1212"/>
      <point x="787" y="1212" type="curve" smooth="yes"/>
      <point x="743" y="1212" type="line" smooth="yes"/>
      <point x="372" y="1212"/>
      <point x="183" y="1022"/>
      <point x="183" y="649" type="curve" smooth="yes"/>
      <point x="183" y="1" type="line" smooth="yes"/>
      <point x="183" y="-8"/>
      <point x="187" y="-11"/>
      <point x="198" y="-11" type="curve" smooth="yes"/>
      <point x="209" y="-11"/>
      <point x="213" y="-8"/>
      <point x="213" y="1" type="curve" smooth="yes"/>
      <point x="213" y="649" type="line" smooth="yes"/>
      <point x="213" y="1006"/>
      <point x="392" y="1187"/>
      <point x="745" y="1187" type="curve"/>
      <point x="745" y="1203" type="line"/>
      <point x="612" y="1203"/>
      <point x="514" y="1098"/>
      <point x="514" y="960" type="curve" smooth="yes"/>
      <point x="514" y="683"/>
      <point x="927" y="648"/>
      <point x="927" y="301" type="curve" smooth="yes"/>
      <point x="927" y="100"/>
      <point x="778" y="15"/>
      <point x="661" y="15" type="curve" smooth="yes"/>
      <point x="582" y="15"/>
      <point x="512" y="36"/>
      <point x="432" y="96" type="curve" smooth="yes"/>
      <point x="423" y="103"/>
      <point x="415" y="102"/>
      <point x="409" y="95" type="curve" smooth="yes"/>
      <point x="401" y="85"/>
      <point x="402" y="78"/>
      <point x="411" y="71" type="curve" smooth="yes"/>
      <point x="493" y="10"/>
      <point x="572" y="-15"/>
    </contour>
  </outline>
</glyph>
<glyph name="bullet" format="2">
  <advance width="459"/>
  <unicode hex="2022"/>
  <outline>
    <contour>
      <point x="230" y="81" type="curve" smooth="yes"/>
      <point x="326" y="81"/>
      <point x="396" y="149"/>
      <point x="396" y="275" type="curve" smooth="yes"/>
      <point x="396" y="400"/>
      <point x="326" y="469"/>
      <point x="230" y="469" type="curve" smooth="yes"/>
      <point x="133" y="469"/>
      <point x="63" y="400"/>
      <point x="63" y="275" type="curve" smooth="yes"/>
      <point x="63" y="149"/>
      <point x="133" y="81"/>
    </contour>
  </outline>
</glyph>
<glyph name="minute" format="2">
  <advance width="161"/>
  <unicode hex="2032"/>
  <outline>
    <contour>
      <point x="73" y="1235" type="curve" smooth="yes"/>
      <point x="85" y="1235"/>
      <point x="92" y="1241"/>
      <point x="94" y="1253" type="curve" smooth="yes"/>
      <point x="145" y="1491" type="line" smooth="yes"/>
      <point x="149" y="1510"/>
      <point x="140" y="1519"/>
      <point x="116" y="1519" type="curve" smooth="yes"/>
      <point x="98" y="1519"/>
      <point x="87" y="1511"/>
      <point x="85" y="1494" type="curve" smooth="yes"/>
      <point x="56" y="1255" type="line" smooth="yes"/>
      <point x="54" y="1242"/>
      <point x="60" y="1235"/>
    </contour>
  </outline>
</glyph>
<glyph name="guilsinglleft" format="2">
	<unicode hex="2039"/>
	<advance width="380"/>
	<outline>
		<contour>
			<point x="264" y="-11" type="curve" smooth="yes"/>
			<point x="275" y="-11"/>
			<point x="286" y="-3"/>
			<point x="275" y="11" type="curve" smooth="yes"/>
			<point x="118" y="211" type="line"/>
			<point x="118" y="191" type="line"/>
			<point x="275" y="390" type="line" smooth="yes"/>
			<point x="286" y="404"/>
			<point x="276" y="412"/>
			<point x="265" y="412" type="curve" smooth="yes"/>
			<point x="258" y="412"/>
			<point x="253" y="407"/>
			<point x="250" y="403" type="curve" smooth="yes"/>
			<point x="110" y="226" type="line" smooth="yes"/>
			<point x="100" y="214"/>
			<point x="95" y="208"/>
			<point x="95" y="201" type="curve" smooth="yes"/>
			<point x="95" y="195"/>
			<point x="100" y="188"/>
			<point x="110" y="176" type="curve" smooth="yes"/>
			<point x="249" y="-2" type="line" smooth="yes"/>
			<point x="252" y="-6"/>
			<point x="257" y="-11"/>
		</contour>
	</outline>
</glyph>
<glyph name="euro" format="2">
  <advance width="961"/>
  <unicode hex="20AC"/>
  <outline>
    <contour>
      <point x="532" y="-15" type="curve" smooth="yes"/>
      <point x="691" y="-15"/>
      <point x="797" y="101"/>
      <point x="890" y="273" type="curve" smooth="yes"/>
      <point x="896" y="284"/>
      <point x="897" y="290"/>
      <point x="887" y="296" type="curve" smooth="yes"/>
      <point x="877" y="302"/>
      <point x="872" y="299"/>
      <point x="866" y="289" type="curve" smooth="yes"/>
      <point x="787" y="151"/>
      <point x="692" y="15"/>
      <point x="532" y="15" type="curve" smooth="yes"/>
      <point x="321" y="15"/>
      <point x="153" y="226"/>
      <point x="153" y="581" type="curve" smooth="yes"/>
      <point x="153" y="936"/>
      <point x="329" y="1182"/>
      <point x="575" y="1182" type="curve" smooth="yes"/>
      <point x="670" y="1182"/>
      <point x="752" y="1144"/>
      <point x="826" y="1059" type="curve" smooth="yes"/>
      <point x="834" y="1050"/>
      <point x="841" y="1049"/>
      <point x="848" y="1054" type="curve" smooth="yes"/>
      <point x="857" y="1061"/>
      <point x="857" y="1067"/>
      <point x="849" y="1076" type="curve" smooth="yes"/>
      <point x="780" y="1159"/>
      <point x="693" y="1212"/>
      <point x="579" y="1212" type="curve" smooth="yes"/>
      <point x="316" y="1212"/>
      <point x="120" y="961"/>
      <point x="120" y="581" type="curve" smooth="yes"/>
      <point x="120" y="200"/>
      <point x="304" y="-15"/>
    </contour>
    <contour>
      <point x="9" y="653" type="curve" smooth="yes"/>
      <point x="701" y="653" type="line" smooth="yes"/>
      <point x="706" y="653"/>
      <point x="710" y="658"/>
      <point x="710" y="668" type="curve" smooth="yes"/>
      <point x="710" y="678"/>
      <point x="706" y="681"/>
      <point x="701" y="681" type="curve" smooth="yes"/>
      <point x="9" y="681" type="line" smooth="yes"/>
      <point x="4" y="681"/>
      <point x="0" y="677"/>
      <point x="0" y="667" type="curve" smooth="yes"/>
      <point x="0" y="657"/>
      <point x="4" y="653"/>
    </contour>
    <contour>
      <point x="9" y="509" type="curve" smooth="yes"/>
      <point x="701" y="509" type="line" smooth="yes"/>
      <point x="706" y="509"/>
      <point x="710" y="514"/>
      <point x="710" y="524" type="curve" smooth="yes"/>
      <point x="710" y="534"/>
      <point x="706" y="537"/>
      <point x="701" y="537" type="curve" smooth="yes"/>
      <point x="9" y="537" type="line" smooth="yes"/>
      <point x="4" y="537"/>
      <point x="0" y="533"/>
      <point x="0" y="523" type="curve" smooth="yes"/>
      <point x="0" y="513"/>
      <point x="4" y="509"/>
    </contour>
  </outline>
</glyph>
<glyph name="trademark" format="2">
  <advance width="768"/>
  <unicode hex="2122"/>
  <outline>
    <contour>
      <point x="170" y="834" type="curve" smooth="yes"/>
      <point x="179" y="834"/>
      <point x="185" y="837"/>
      <point x="185" y="844" type="curve" smooth="yes"/>
      <point x="185" y="1164" type="line"/>
      <point x="292" y="1164" type="line" smooth="yes"/>
      <point x="298" y="1164"/>
      <point x="301" y="1168"/>
      <point x="301" y="1177" type="curve" smooth="yes"/>
      <point x="301" y="1186"/>
      <point x="298" y="1190"/>
      <point x="292" y="1190" type="curve" smooth="yes"/>
      <point x="49" y="1190" type="line" smooth="yes"/>
      <point x="43" y="1190"/>
      <point x="40" y="1187"/>
      <point x="40" y="1177" type="curve" smooth="yes"/>
      <point x="40" y="1167"/>
      <point x="43" y="1164"/>
      <point x="49" y="1164" type="curve" smooth="yes"/>
      <point x="156" y="1164" type="line"/>
      <point x="156" y="844" type="line" smooth="yes"/>
      <point x="156" y="837"/>
      <point x="161" y="834"/>
    </contour>
    <contour>
      <point x="375" y="834" type="curve" smooth="yes"/>
      <point x="384" y="834"/>
      <point x="389" y="836"/>
      <point x="389" y="843" type="curve" smooth="yes"/>
      <point x="389" y="1128" type="line"/>
      <point x="502" y="937" type="line" smooth="yes"/>
      <point x="505" y="931"/>
      <point x="510" y="930"/>
      <point x="518" y="930" type="curve" smooth="yes"/>
      <point x="525" y="930"/>
      <point x="529" y="931"/>
      <point x="533" y="938" type="curve" smooth="yes"/>
      <point x="646" y="1128" type="line"/>
      <point x="646" y="843" type="line" smooth="yes"/>
      <point x="646" y="836"/>
      <point x="652" y="834"/>
      <point x="660" y="834" type="curve" smooth="yes"/>
      <point x="669" y="834"/>
      <point x="674" y="836"/>
      <point x="674" y="843" type="curve" smooth="yes"/>
      <point x="674" y="1181" type="line" smooth="yes"/>
      <point x="674" y="1187"/>
      <point x="670" y="1190"/>
      <point x="660" y="1190" type="curve" smooth="yes"/>
      <point x="652" y="1190"/>
      <point x="648" y="1187"/>
      <point x="645" y="1181" type="curve" smooth="yes"/>
      <point x="518" y="963" type="line"/>
      <point x="390" y="1181" type="line" smooth="yes"/>
      <point x="387" y="1187"/>
      <point x="383" y="1190"/>
      <point x="375" y="1190" type="curve" smooth="yes"/>
      <point x="366" y="1190"/>
      <point x="361" y="1187"/>
      <point x="361" y="1181" type="curve" smooth="yes"/>
      <point x="361" y="843" type="line" smooth="yes"/>
      <point x="361" y="836"/>
      <point x="367" y="834"/>
    </contour>
  </outline>
</glyph>
<glyph name="product" format="2">
  <advance width="763"/>
  <unicode hex="220F"/>
  <outline>
    <contour>
      <point x="180" y="-82" type="curve" smooth="yes"/>
      <point x="194" y="-82"/>
      <point x="199" y="-79"/>
      <point x="199" y="-67" type="curve" smooth="yes"/>
      <point x="199" y="840" type="line"/>
      <point x="564" y="840" type="line"/>
      <point x="564" y="-67" type="line" smooth="yes"/>
      <point x="564" y="-79"/>
      <point x="569" y="-82"/>
      <point x="583" y="-82" type="curve" smooth="yes"/>
      <point x="596" y="-82"/>
      <point x="601" y="-79"/>
      <point x="601" y="-67" type="curve" smooth="yes"/>
      <point x="601" y="840" type="line"/>
      <point x="726" y="840" type="line" smooth="yes"/>
      <point x="733" y="840"/>
      <point x="738" y="846"/>
      <point x="738" y="859" type="curve" smooth="yes"/>
      <point x="738" y="871"/>
      <point x="733" y="875"/>
      <point x="726" y="875" type="curve" smooth="yes"/>
      <point x="36" y="875" type="line" smooth="yes"/>
      <point x="30" y="875"/>
      <point x="25" y="870"/>
      <point x="25" y="858" type="curve" smooth="yes"/>
      <point x="25" y="845"/>
      <point x="30" y="840"/>
      <point x="36" y="840" type="curve" smooth="yes"/>
      <point x="161" y="840" type="line"/>
      <point x="161" y="-67" type="line" smooth="yes"/>
      <point x="161" y="-79"/>
      <point x="166" y="-82"/>
    </contour>
  </outline>
</glyph>
<glyph name="minus" format="2">
	<unicode hex="2212"/>
	<advance width="610"/>
	<outline>
		<contour>
			<point x="92" y="336" type="curve" smooth="yes"/>
			<point x="518" y="336" type="line" smooth="yes"/>
			<point x="527" y="336"/>
			<point x="530" y="340"/>
			<point x="530" y="349" type="curve" smooth="yes"/>
			<point x="530" y="359"/>
			<point x="527" y="364"/>
			<point x="518" y="364" type="curve" smooth="yes"/>
			<point x="92" y="364" type="line" smooth="yes"/>
			<point x="83" y="364"/>
			<point x="80" y="359"/>
			<point x="80" y="349" type="curve" smooth="yes"/>
			<point x="80" y="340"/>
			<point x="83" y="336"/>
		</contour>
	</outline>
</glyph>
<glyph name="integral" format="2">
  <advance width="647"/>
  <unicode hex="222B"/>
  <outline>
    <contour>
      <point x="29" y="-75" type="curve" smooth="yes"/>
      <point x="151" y="-75"/>
      <point x="204" y="-34"/>
      <point x="232" y="119" type="curve" smooth="yes"/>
      <point x="450" y="1308" type="line" smooth="yes"/>
      <point x="475" y="1442"/>
      <point x="508" y="1472"/>
      <point x="618" y="1472" type="curve" smooth="yes"/>
      <point x="628" y="1472"/>
      <point x="633" y="1478"/>
      <point x="633" y="1491" type="curve" smooth="yes"/>
      <point x="633" y="1502"/>
      <point x="628" y="1507"/>
      <point x="618" y="1507" type="curve" smooth="yes"/>
      <point x="496" y="1507"/>
      <point x="443" y="1466"/>
      <point x="415" y="1313" type="curve" smooth="yes"/>
      <point x="197" y="124" type="line" smooth="yes"/>
      <point x="172" y="-10"/>
      <point x="139" y="-40"/>
      <point x="29" y="-40" type="curve" smooth="yes"/>
      <point x="19" y="-40"/>
      <point x="14" y="-46"/>
      <point x="14" y="-59" type="curve" smooth="yes"/>
      <point x="14" y="-70"/>
      <point x="19" y="-75"/>
    </contour>
  </outline>
</glyph>
<glyph name="A.cur" format="2">
  <advance width="1518"/>
  <anchor x="549" y="0" name="bottom"/>
  <anchor x="1366" y="21" name="ogonek"/>
  <anchor x="711" y="1424" name="top"/>
  <outline>
    <contour>
      <point x="546" y="-17" type="curve" smooth="yes"/>
      <point x="801" y="-17"/>
      <point x="1030" y="295"/>
      <point x="1114" y="739" type="curve"/>
      <point x="1114" y="201" type="line" smooth="yes"/>
      <point x="1114" y="43"/>
      <point x="1163" y="-17"/>
      <point x="1244" y="-17" type="curve" smooth="yes"/>
      <point x="1338" y="-17"/>
      <point x="1426" y="71"/>
      <point x="1483" y="221" type="curve" smooth="yes"/>
      <point x="1486" y="231"/>
      <point x="1483" y="238"/>
      <point x="1471" y="241" type="curve" smooth="yes"/>
      <point x="1459" y="245"/>
      <point x="1454" y="245"/>
      <point x="1450" y="235" type="curve" smooth="yes"/>
      <point x="1400" y="99"/>
      <point x="1326" y="19"/>
      <point x="1253" y="19" type="curve" smooth="yes"/>
      <point x="1186" y="19"/>
      <point x="1151" y="61"/>
      <point x="1151" y="201" type="curve" smooth="yes"/>
      <point x="1151" y="923" type="line" smooth="yes"/>
      <point x="1151" y="934"/>
      <point x="1145" y="938"/>
      <point x="1133" y="938" type="curve" smooth="yes"/>
      <point x="1119" y="938"/>
      <point x="1114" y="934"/>
      <point x="1114" y="923" type="curve"/>
      <point x="1046" y="401"/>
      <point x="811" y="20"/>
      <point x="554" y="20" type="curve" smooth="yes"/>
      <point x="308" y="20"/>
      <point x="176" y="244"/>
      <point x="176" y="665" type="curve" smooth="yes"/>
      <point x="176" y="1156"/>
      <point x="388" y="1478"/>
      <point x="711" y="1478" type="curve" smooth="yes"/>
      <point x="890" y="1478"/>
      <point x="1026" y="1408"/>
      <point x="1136" y="1260" type="curve" smooth="yes"/>
      <point x="1145" y="1249"/>
      <point x="1154" y="1244"/>
      <point x="1164" y="1251" type="curve" smooth="yes"/>
      <point x="1174" y="1259"/>
      <point x="1176" y="1268"/>
      <point x="1168" y="1280" type="curve" smooth="yes"/>
      <point x="1045" y="1445"/>
      <point x="909" y="1515"/>
      <point x="711" y="1515" type="curve" smooth="yes"/>
      <point x="363" y="1515"/>
      <point x="135" y="1179"/>
      <point x="135" y="665" type="curve" smooth="yes"/>
      <point x="135" y="220"/>
      <point x="278" y="-17"/>
    </contour>
  </outline>
</glyph>
<glyph name="A.cur.ini" format="2">
	<advance width="1151"/>
	<outline>
		<contour>
			<point x="437" y="-15" type="curve" smooth="yes"/>
			<point x="666" y="-15"/>
			<point x="868" y="299"/>
			<point x="910" y="724" type="curve"/>
			<point x="891" y="738" type="line"/>
			<point x="837" y="320"/>
			<point x="649" y="15"/>
			<point x="443" y="15" type="curve" smooth="yes"/>
			<point x="246" y="15"/>
			<point x="141" y="194"/>
			<point x="141" y="532" type="curve" smooth="yes"/>
			<point x="141" y="925"/>
			<point x="310" y="1182"/>
			<point x="569" y="1182" type="curve" smooth="yes"/>
			<point x="712" y="1182"/>
			<point x="821" y="1126"/>
			<point x="909" y="1008" type="curve" smooth="yes"/>
			<point x="916" y="999"/>
			<point x="923" y="995"/>
			<point x="931" y="1001" type="curve" smooth="yes"/>
			<point x="939" y="1007"/>
			<point x="941" y="1014"/>
			<point x="934" y="1024" type="curve" smooth="yes"/>
			<point x="836" y="1156"/>
			<point x="727" y="1212"/>
			<point x="569" y="1212" type="curve" smooth="yes"/>
			<point x="290" y="1212"/>
			<point x="108" y="943"/>
			<point x="108" y="532" type="curve" smooth="yes"/>
			<point x="108" y="175"/>
			<point x="222" y="-15"/>
		</contour>
		<contour>
			<point x="1068" y="-14" type="curve" smooth="yes"/>
			<point x="1088" y="-14"/>
			<point x="1088" y="14"/>
			<point x="1068" y="14" type="curve" smooth="yes"/>
			<point x="958" y="14"/>
			<point x="921" y="182"/>
			<point x="921" y="355" type="curve" smooth="yes"/>
			<point x="921" y="738" type="line" smooth="yes"/>
			<point x="921" y="747"/>
			<point x="916" y="750"/>
			<point x="906" y="750" type="curve" smooth="yes"/>
			<point x="895" y="750"/>
			<point x="891" y="747"/>
			<point x="891" y="738" type="curve" smooth="yes"/>
			<point x="891" y="355" type="line" smooth="yes"/>
			<point x="891" y="161"/>
			<point x="935" y="-14"/>
		</contour>
	</outline>
	<anchor name="bottom" x="439" y="0"/>
	<anchor name="cnct" x="1152" y="0"/>
	<anchor name="ogonek" x="1093" y="17"/>
	<anchor name="top" x="569" y="1139"/>
</glyph>
<glyph name="A.cur_locl" format="2">
	<advance width="1214"/>
	<outline>
		<contour>
			<point x="437" y="-15" type="curve" smooth="yes"/>
			<point x="666" y="-15"/>
			<point x="868" y="299"/>
			<point x="910" y="724" type="curve"/>
			<point x="891" y="738" type="line"/>
			<point x="837" y="320"/>
			<point x="649" y="15"/>
			<point x="443" y="15" type="curve" smooth="yes"/>
			<point x="246" y="15"/>
			<point x="141" y="194"/>
			<point x="141" y="532" type="curve" smooth="yes"/>
			<point x="141" y="925"/>
			<point x="310" y="1182"/>
			<point x="569" y="1182" type="curve" smooth="yes"/>
			<point x="700" y="1182"/>
			<point x="809" y="1133"/>
			<point x="902" y="1017" type="curve"/>
			<point x="902" y="1061" type="line"/>
			<point x="803" y="1167"/>
			<point x="695" y="1212"/>
			<point x="569" y="1212" type="curve" smooth="yes"/>
			<point x="290" y="1212"/>
			<point x="108" y="943"/>
			<point x="108" y="532" type="curve" smooth="yes"/>
			<point x="108" y="175"/>
			<point x="222" y="-15"/>
		</contour>
		<contour>
			<point x="995" y="-15" type="curve" smooth="yes"/>
			<point x="1070" y="-15"/>
			<point x="1141" y="56"/>
			<point x="1186" y="176" type="curve" smooth="yes"/>
			<point x="1189" y="184"/>
			<point x="1186" y="189"/>
			<point x="1177" y="192" type="curve" smooth="yes"/>
			<point x="1167" y="195"/>
			<point x="1163" y="195"/>
			<point x="1160" y="187" type="curve" smooth="yes"/>
			<point x="1120" y="78"/>
			<point x="1061" y="14"/>
			<point x="1002" y="14" type="curve" smooth="yes"/>
			<point x="949" y="14"/>
			<point x="921" y="48"/>
			<point x="921" y="160" type="curve" smooth="yes"/>
			<point x="921" y="1200" type="line" smooth="yes"/>
			<point x="921" y="1209"/>
			<point x="916" y="1212"/>
			<point x="906" y="1212" type="curve" smooth="yes"/>
			<point x="895" y="1212"/>
			<point x="891" y="1209"/>
			<point x="891" y="1200" type="curve" smooth="yes"/>
			<point x="891" y="160" type="line" smooth="yes"/>
			<point x="891" y="33"/>
			<point x="930" y="-15"/>
		</contour>
	</outline>
	<anchor name="bottom" x="439" y="0"/>
	<anchor name="ogonek" x="1093" y="17"/>
	<anchor name="top" x="569" y="1139"/>
</glyph>
<glyph name="A.cur_locl.ini" format="2">
  <advance width="1439"/>
  <anchor x="549" y="0" name="bottom"/>
  <anchor x="1440" y="0" name="cnct"/>
  <anchor x="1366" y="21" name="ogonek"/>
  <anchor x="711" y="1424" name="top"/>
  <outline>
    <contour>
      <point x="546" y="-17" type="curve" smooth="yes"/>
      <point x="801" y="-17"/>
      <point x="1030" y="295"/>
      <point x="1114" y="739" type="curve"/>
      <point x="1114" y="444" type="line" smooth="yes"/>
      <point x="1114" y="201"/>
      <point x="1169" y="-17"/>
      <point x="1335" y="-17" type="curve" smooth="yes"/>
      <point x="1360" y="-17"/>
      <point x="1360" y="18"/>
      <point x="1335" y="18" type="curve" smooth="yes"/>
      <point x="1198" y="18"/>
      <point x="1151" y="228"/>
      <point x="1151" y="444" type="curve" smooth="yes"/>
      <point x="1151" y="1500" type="line" smooth="yes"/>
      <point x="1151" y="1511"/>
      <point x="1145" y="1515"/>
      <point x="1133" y="1515" type="curve" smooth="yes"/>
      <point x="1119" y="1515"/>
      <point x="1114" y="1511"/>
      <point x="1114" y="1500" type="curve" smooth="yes"/>
      <point x="1114" y="1340" type="line"/>
      <point x="994" y="1463"/>
      <point x="863" y="1515"/>
      <point x="711" y="1515" type="curve" smooth="yes"/>
      <point x="363" y="1515"/>
      <point x="135" y="1179"/>
      <point x="135" y="665" type="curve" smooth="yes"/>
      <point x="135" y="220"/>
      <point x="278" y="-17"/>
    </contour>
    <contour>
      <point x="176" y="665" type="curve" smooth="yes"/>
      <point x="176" y="1156"/>
      <point x="388" y="1478"/>
      <point x="711" y="1478" type="curve" smooth="yes"/>
      <point x="869" y="1478"/>
      <point x="1000" y="1421"/>
      <point x="1114" y="1288" type="curve"/>
      <point x="1114" y="923" type="line"/>
      <point x="1046" y="401"/>
      <point x="811" y="20"/>
      <point x="554" y="20" type="curve" smooth="yes"/>
      <point x="308" y="20"/>
      <point x="176" y="244"/>
    </contour>
  </outline>
</glyph>
<glyph name="A.dec" format="2">
  <advance width="1162"/>
  <anchor x="621" y="0" name="bottom"/>
  <anchor x="1027" y="-3" name="ogonek"/>
  <anchor x="690" y="1139" name="top"/>
  <outline>
    <contour>
      <point x="192" y="-14" type="curve" smooth="yes"/>
      <point x="396" y="-14"/>
      <point x="558" y="394"/>
      <point x="695" y="1169" type="curve"/>
      <point x="688" y="1166" type="line"/>
      <point x="757" y="790"/>
      <point x="859" y="407"/>
      <point x="997" y="-3" type="curve" smooth="yes"/>
      <point x="1001" y="-16"/>
      <point x="1007" y="-17"/>
      <point x="1017" y="-13" type="curve" smooth="yes"/>
      <point x="1027" y="-9"/>
      <point x="1030" y="-5"/>
      <point x="1026" y="7" type="curve" smooth="yes"/>
      <point x="885" y="429"/>
      <point x="786" y="798"/>
      <point x="713" y="1194" type="curve" smooth="yes"/>
      <point x="711" y="1206"/>
      <point x="705" y="1212"/>
      <point x="693" y="1212" type="curve" smooth="yes"/>
      <point x="681" y="1212"/>
      <point x="674" y="1205"/>
      <point x="672" y="1194" type="curve" smooth="yes"/>
      <point x="530" y="413"/>
      <point x="366" y="16"/>
      <point x="193" y="16" type="curve" smooth="yes"/>
      <point x="156" y="16"/>
      <point x="122" y="33"/>
      <point x="84" y="73" type="curve" smooth="yes"/>
      <point x="78" y="79"/>
      <point x="71" y="78"/>
      <point x="64" y="70" type="curve" smooth="yes"/>
      <point x="58" y="63"/>
      <point x="58" y="56"/>
      <point x="64" y="50" type="curve" smooth="yes"/>
      <point x="109" y="5"/>
      <point x="147" y="-14"/>
    </contour>
    <contour>
      <point x="962" y="101" type="curve"/>
      <point x="987" y="116" type="line"/>
      <point x="898" y="367"/>
      <point x="735" y="495"/>
      <point x="506" y="495" type="curve" smooth="yes"/>
      <point x="391" y="495"/>
      <point x="304" y="438"/>
      <point x="304" y="366" type="curve" smooth="yes"/>
      <point x="304" y="272"/>
      <point x="401" y="221"/>
      <point x="546" y="221" type="curve" smooth="yes"/>
      <point x="733" y="221"/>
      <point x="884" y="259"/>
      <point x="1059" y="348" type="curve" smooth="yes"/>
      <point x="1066" y="352"/>
      <point x="1068" y="358"/>
      <point x="1064" y="366" type="curve" smooth="yes"/>
      <point x="1059" y="376"/>
      <point x="1053" y="377"/>
      <point x="1046" y="373" type="curve" smooth="yes"/>
      <point x="877" y="286"/>
      <point x="729" y="249"/>
      <point x="546" y="249" type="curve" smooth="yes"/>
      <point x="439" y="249"/>
      <point x="337" y="286"/>
      <point x="337" y="366" type="curve" smooth="yes"/>
      <point x="337" y="424"/>
      <point x="406" y="467"/>
      <point x="505" y="467" type="curve" smooth="yes"/>
      <point x="720" y="467"/>
      <point x="870" y="357"/>
    </contour>
  </outline>
</glyph>
<glyph name="A.dec2.ini" format="2">
	<advance width="1094"/>
	<outline>
		<contour>
			<point x="1011" y="-14" type="curve" smooth="yes"/>
			<point x="1031" y="-14"/>
			<point x="1031" y="14"/>
			<point x="1011" y="14" type="curve" smooth="yes"/>
			<point x="960" y="14"/>
			<point x="922" y="74"/>
			<point x="890" y="232" type="curve" smooth="yes"/>
			<point x="831" y="524"/>
			<point x="789" y="835"/>
			<point x="758" y="1188" type="curve"/>
			<point x="729" y="1176" type="line"/>
			<point x="760" y="823"/>
			<point x="800" y="509"/>
			<point x="859" y="227" type="curve" smooth="yes"/>
			<point x="895" y="52"/>
			<point x="939" y="-14"/>
		</contour>
		<contour>
			<point x="296" y="-14" type="curve" smooth="yes"/>
			<point x="629" y="-14"/>
			<point x="441" y="1063"/>
			<point x="762" y="1177" type="curve" smooth="yes"/>
			<point x="769" y="1179"/>
			<point x="771" y="1187"/>
			<point x="767" y="1199" type="curve" smooth="yes"/>
			<point x="764" y="1206"/>
			<point x="759" y="1208"/>
			<point x="753" y="1206" type="curve" smooth="yes"/>
			<point x="411" y="1086"/>
			<point x="582" y="16"/>
			<point x="296" y="16" type="curve" smooth="yes"/>
			<point x="209" y="16"/>
			<point x="128" y="159"/>
			<point x="128" y="333" type="curve" smooth="yes"/>
			<point x="128" y="493"/>
			<point x="254" y="544"/>
			<point x="624" y="544" type="curve" smooth="yes"/>
			<point x="941" y="544" type="line" smooth="yes"/>
			<point x="948" y="544"/>
			<point x="951" y="549"/>
			<point x="951" y="559" type="curve" smooth="yes"/>
			<point x="951" y="568"/>
			<point x="948" y="573"/>
			<point x="941" y="573" type="curve" smooth="yes"/>
			<point x="624" y="573" type="line" smooth="yes"/>
			<point x="230" y="573"/>
			<point x="95" y="512"/>
			<point x="95" y="333" type="curve" smooth="yes"/>
			<point x="95" y="142"/>
			<point x="189" y="-14"/>
		</contour>
	</outline>
	<anchor name="bottom" x="680" y="0"/>
	<anchor name="cnct" x="1094" y="0"/>
	<anchor name="ogonek" x="1035" y="-3"/>
	<anchor name="top" x="682" y="1139"/>
</glyph>
<glyph name="A.dec_locl" format="2">
	<advance width="1282"/>
	<outline>
		<contour>
			<point x="192" y="-14" type="curve" smooth="yes"/>
			<point x="396" y="-14"/>
			<point x="558" y="394"/>
			<point x="695" y="1169" type="curve"/>
			<point x="688" y="1166" type="line"/>
			<point x="744" y="862"/>
			<point x="812" y="553"/>
			<point x="935" y="175" type="curve" smooth="yes"/>
			<point x="976" y="50"/>
			<point x="1023" y="-14"/>
			<point x="1083" y="-14" type="curve" smooth="yes"/>
			<point x="1176" y="-14"/>
			<point x="1234" y="84"/>
			<point x="1281" y="316" type="curve" smooth="yes"/>
			<point x="1283" y="324"/>
			<point x="1279" y="329"/>
			<point x="1269" y="331" type="curve" smooth="yes"/>
			<point x="1260" y="333"/>
			<point x="1254" y="330"/>
			<point x="1252" y="322" type="curve" smooth="yes"/>
			<point x="1207" y="106"/>
			<point x="1158" y="15"/>
			<point x="1085" y="15" type="curve" smooth="yes"/>
			<point x="1040" y="15"/>
			<point x="999" y="72"/>
			<point x="963" y="185" type="curve" smooth="yes"/>
			<point x="838" y="568"/>
			<point x="772" y="872"/>
			<point x="713" y="1194" type="curve" smooth="yes"/>
			<point x="711" y="1206"/>
			<point x="705" y="1212"/>
			<point x="693" y="1212" type="curve" smooth="yes"/>
			<point x="681" y="1212"/>
			<point x="674" y="1205"/>
			<point x="672" y="1194" type="curve" smooth="yes"/>
			<point x="530" y="413"/>
			<point x="366" y="16"/>
			<point x="193" y="16" type="curve" smooth="yes"/>
			<point x="156" y="16"/>
			<point x="122" y="33"/>
			<point x="84" y="73" type="curve" smooth="yes"/>
			<point x="78" y="79"/>
			<point x="71" y="78"/>
			<point x="64" y="70" type="curve" smooth="yes"/>
			<point x="58" y="63"/>
			<point x="58" y="56"/>
			<point x="64" y="50" type="curve" smooth="yes"/>
			<point x="109" y="5"/>
			<point x="147" y="-14"/>
		</contour>
		<contour>
			<point x="496" y="390" type="line"/>
			<point x="877" y="390" type="line"/>
			<point x="877" y="416" type="line"/>
			<point x="496" y="416" type="line"/>
		</contour>
	</outline>
	<anchor name="bottom" x="621" y="0"/>
	<anchor name="ogonek" x="1027" y="-3"/>
	<anchor name="top" x="690" y="1139"/>
</glyph>
<glyph name="A.dec_locl.ini" format="2">
  <advance width="1162"/>
  <anchor x="621" y="0" name="bottom"/>
  <anchor x="1162" y="0" name="cnct"/>
  <anchor x="1087" y="0" name="ogonek"/>
  <anchor x="690" y="1139" name="top"/>
  <outline>
    <contour>
      <point x="192" y="-14" type="curve" smooth="yes"/>
      <point x="396" y="-14"/>
      <point x="558" y="394"/>
      <point x="695" y="1169" type="curve"/>
      <point x="688" y="1166" type="line"/>
      <point x="744" y="862"/>
      <point x="812" y="553"/>
      <point x="935" y="175" type="curve" smooth="yes"/>
      <point x="982" y="34"/>
      <point x="1018" y="-14"/>
      <point x="1079" y="-14" type="curve" smooth="yes"/>
      <point x="1099" y="-14"/>
      <point x="1099" y="14"/>
      <point x="1079" y="14" type="curve" smooth="yes"/>
      <point x="1036" y="14"/>
      <point x="1003" y="57"/>
      <point x="963" y="185" type="curve" smooth="yes"/>
      <point x="838" y="568"/>
      <point x="772" y="872"/>
      <point x="713" y="1194" type="curve" smooth="yes"/>
      <point x="711" y="1206"/>
      <point x="705" y="1212"/>
      <point x="693" y="1212" type="curve" smooth="yes"/>
      <point x="681" y="1212"/>
      <point x="674" y="1205"/>
      <point x="672" y="1194" type="curve" smooth="yes"/>
      <point x="530" y="413"/>
      <point x="366" y="16"/>
      <point x="193" y="16" type="curve" smooth="yes"/>
      <point x="156" y="16"/>
      <point x="122" y="33"/>
      <point x="84" y="73" type="curve" smooth="yes"/>
      <point x="78" y="79"/>
      <point x="71" y="78"/>
      <point x="64" y="70" type="curve" smooth="yes"/>
      <point x="58" y="63"/>
      <point x="58" y="56"/>
      <point x="64" y="50" type="curve" smooth="yes"/>
      <point x="109" y="5"/>
      <point x="147" y="-14"/>
    </contour>
    <contour>
      <point x="496" y="390" type="line"/>
      <point x="877" y="390" type="line"/>
      <point x="877" y="416" type="line"/>
      <point x="496" y="416" type="line"/>
    </contour>
  </outline>
</glyph>
<glyph name="AE.cur" format="2">
  <advance width="1991"/>
  <anchor x="1151" y="1424" name="top"/>
  <outline>
    <contour>
      <point x="223" y="-17" type="curve" smooth="yes"/>
      <point x="317" y="-17"/>
      <point x="407" y="65"/>
      <point x="592" y="500" type="curve"/>
      <point x="1049" y="500" type="line"/>
      <point x="1059" y="438"/>
      <point x="1069" y="377"/>
      <point x="1080" y="320" type="curve" smooth="yes"/>
      <point x="1085" y="290"/>
      <point x="1091" y="290"/>
      <point x="1106" y="294" type="curve" smooth="yes"/>
      <point x="1121" y="298"/>
      <point x="1121" y="301"/>
      <point x="1116" y="328" type="curve" smooth="yes"/>
      <point x="1055" y="659"/>
      <point x="1003" y="1116"/>
      <point x="984" y="1488" type="curve" smooth="yes"/>
      <point x="983" y="1504"/>
      <point x="973" y="1515"/>
      <point x="956" y="1515" type="curve" smooth="yes"/>
      <point x="944" y="1515"/>
      <point x="935" y="1509"/>
      <point x="930" y="1496" type="curve" smooth="yes"/>
      <point x="463" y="198"/>
      <point x="344" y="20"/>
      <point x="221" y="20" type="curve" smooth="yes"/>
      <point x="180" y="20"/>
      <point x="145" y="36"/>
      <point x="104" y="83" type="curve" smooth="yes"/>
      <point x="95" y="93"/>
      <point x="84" y="93"/>
      <point x="74" y="81" type="curve" smooth="yes"/>
      <point x="66" y="73"/>
      <point x="66" y="63"/>
      <point x="74" y="55" type="curve" smooth="yes"/>
      <point x="128" y="1"/>
      <point x="166" y="-17"/>
    </contour>
    <contour>
      <point x="606" y="533" type="line"/>
      <point x="695" y="746"/>
      <point x="806" y="1039"/>
      <point x="949" y="1440" type="curve"/>
      <point x="962" y="1164"/>
      <point x="998" y="829"/>
      <point x="1044" y="533" type="curve"/>
    </contour>
    <contour>
      <point x="1480" y="-19" type="curve" smooth="yes"/>
      <point x="1660" y="-19"/>
      <point x="1805" y="90"/>
      <point x="1903" y="295" type="curve" smooth="yes"/>
      <point x="1910" y="311"/>
      <point x="1908" y="320"/>
      <point x="1898" y="325" type="curve" smooth="yes"/>
      <point x="1885" y="331"/>
      <point x="1879" y="328"/>
      <point x="1873" y="315" type="curve" smooth="yes"/>
      <point x="1783" y="121"/>
      <point x="1646" y="19"/>
      <point x="1480" y="19" type="curve" smooth="yes"/>
      <point x="1261" y="19"/>
      <point x="1119" y="161"/>
      <point x="1119" y="380" type="curve" smooth="yes"/>
      <point x="1119" y="605"/>
      <point x="1276" y="768"/>
      <point x="1493" y="768" type="curve" smooth="yes"/>
      <point x="1674" y="768" type="line" smooth="yes"/>
      <point x="1680" y="768"/>
      <point x="1685" y="773"/>
      <point x="1685" y="785" type="curve" smooth="yes"/>
      <point x="1685" y="798"/>
      <point x="1680" y="803"/>
      <point x="1674" y="803" type="curve" smooth="yes"/>
      <point x="1493" y="803" type="line" smooth="yes"/>
      <point x="1299" y="803"/>
      <point x="1165" y="941"/>
      <point x="1165" y="1145" type="curve" smooth="yes"/>
      <point x="1165" y="1338"/>
      <point x="1304" y="1478"/>
      <point x="1495" y="1478" type="curve" smooth="yes"/>
      <point x="1626" y="1478"/>
      <point x="1750" y="1413"/>
      <point x="1828" y="1301" type="curve" smooth="yes"/>
      <point x="1835" y="1291"/>
      <point x="1844" y="1290"/>
      <point x="1855" y="1300" type="curve" smooth="yes"/>
      <point x="1861" y="1306"/>
      <point x="1861" y="1315"/>
      <point x="1853" y="1328" type="curve" smooth="yes"/>
      <point x="1771" y="1445"/>
      <point x="1638" y="1515"/>
      <point x="1494" y="1515" type="curve" smooth="yes"/>
      <point x="1279" y="1515"/>
      <point x="1124" y="1359"/>
      <point x="1124" y="1144" type="curve" smooth="yes"/>
      <point x="1124" y="970"/>
      <point x="1219" y="829"/>
      <point x="1364" y="786" type="curve"/>
      <point x="1198" y="743"/>
      <point x="1078" y="571"/>
      <point x="1078" y="380" type="curve" smooth="yes"/>
      <point x="1078" y="139"/>
      <point x="1236" y="-19"/>
    </contour>
  </outline>
</glyph>
<glyph name="AE.cur.locl" format="2">
  <advance width="1860"/>
  <anchor x="1025" y="1424" name="top"/>
  <outline>
    <contour>
      <point x="174" y="-17" type="curve" smooth="yes"/>
      <point x="335" y="-17"/>
      <point x="493" y="189"/>
      <point x="1001" y="1453" type="curve"/>
      <point x="1018" y="1453" type="line"/>
      <point x="1018" y="1488" type="line"/>
      <point x="1001" y="1488" type="line"/>
      <point x="984" y="1488"/>
      <point x="974" y="1481"/>
      <point x="966" y="1463" type="curve" smooth="yes"/>
      <point x="465" y="221"/>
      <point x="306" y="20"/>
      <point x="171" y="20" type="curve" smooth="yes"/>
      <point x="129" y="20"/>
      <point x="99" y="36"/>
      <point x="49" y="86" type="curve" smooth="yes"/>
      <point x="40" y="95"/>
      <point x="30" y="93"/>
      <point x="21" y="83" type="curve" smooth="yes"/>
      <point x="13" y="74"/>
      <point x="13" y="64"/>
      <point x="20" y="56" type="curve" smooth="yes"/>
      <point x="78" y="1"/>
      <point x="116" y="-17"/>
    </contour>
    <contour>
      <point x="1019" y="726" type="line"/>
      <point x="1019" y="761" type="line"/>
      <point x="689" y="761" type="line"/>
      <point x="678" y="726" type="line"/>
    </contour>
    <contour>
      <point x="1446" y="0" type="line" smooth="yes"/>
      <point x="1634" y="0"/>
      <point x="1743" y="98"/>
      <point x="1818" y="329" type="curve" smooth="yes"/>
      <point x="1821" y="340"/>
      <point x="1818" y="348"/>
      <point x="1806" y="350" type="curve" smooth="yes"/>
      <point x="1795" y="354"/>
      <point x="1788" y="350"/>
      <point x="1784" y="340" type="curve" smooth="yes"/>
      <point x="1714" y="125"/>
      <point x="1616" y="35"/>
      <point x="1446" y="35" type="curve" smooth="yes"/>
      <point x="1039" y="35" type="line"/>
      <point x="1039" y="726" type="line"/>
      <point x="1448" y="726" type="line" smooth="yes"/>
      <point x="1454" y="726"/>
      <point x="1459" y="731"/>
      <point x="1459" y="744" type="curve" smooth="yes"/>
      <point x="1459" y="756"/>
      <point x="1454" y="761"/>
      <point x="1448" y="761" type="curve" smooth="yes"/>
      <point x="1039" y="761" type="line"/>
      <point x="1039" y="1453" type="line"/>
      <point x="1624" y="1453" type="line" smooth="yes"/>
      <point x="1630" y="1453"/>
      <point x="1635" y="1458"/>
      <point x="1635" y="1470" type="curve" smooth="yes"/>
      <point x="1635" y="1483"/>
      <point x="1630" y="1488"/>
      <point x="1624" y="1488" type="curve" smooth="yes"/>
      <point x="1018" y="1488" type="line" smooth="yes"/>
      <point x="1003" y="1488"/>
      <point x="1001" y="1484"/>
      <point x="1001" y="1468" type="curve" smooth="yes"/>
      <point x="1001" y="15" type="line" smooth="yes"/>
      <point x="1001" y="4"/>
      <point x="1006" y="0"/>
      <point x="1020" y="0" type="curve" smooth="yes"/>
    </contour>
  </outline>
</glyph>
<glyph name="AE.cur.locl.ini" format="2">
  <advance width="1660"/>
  <anchor x="1025" y="1424" name="top"/>
  <outline>
    <contour>
      <point x="174" y="-17" type="curve" smooth="yes"/>
      <point x="335" y="-17"/>
      <point x="493" y="189"/>
      <point x="1001" y="1453" type="curve"/>
      <point x="1018" y="1453" type="line"/>
      <point x="1018" y="1488" type="line"/>
      <point x="1001" y="1488" type="line"/>
      <point x="984" y="1488"/>
      <point x="974" y="1481"/>
      <point x="966" y="1463" type="curve" smooth="yes"/>
      <point x="465" y="221"/>
      <point x="306" y="20"/>
      <point x="171" y="20" type="curve" smooth="yes"/>
      <point x="129" y="20"/>
      <point x="99" y="36"/>
      <point x="49" y="86" type="curve" smooth="yes"/>
      <point x="40" y="95"/>
      <point x="30" y="93"/>
      <point x="21" y="83" type="curve" smooth="yes"/>
      <point x="13" y="74"/>
      <point x="13" y="64"/>
      <point x="20" y="56" type="curve" smooth="yes"/>
      <point x="78" y="1"/>
      <point x="116" y="-17"/>
    </contour>
    <contour>
      <point x="1019" y="726" type="line"/>
      <point x="1019" y="761" type="line"/>
      <point x="689" y="761" type="line"/>
      <point x="678" y="726" type="line"/>
    </contour>
    <contour>
      <point x="1446" y="0" type="line"/>
      <point x="1466" y="0"/>
      <point x="1466" y="35"/>
      <point x="1446" y="35" type="curve" smooth="yes"/>
      <point x="1039" y="35" type="line"/>
      <point x="1039" y="726" type="line"/>
      <point x="1448" y="726" type="line" smooth="yes"/>
      <point x="1454" y="726"/>
      <point x="1459" y="731"/>
      <point x="1459" y="744" type="curve" smooth="yes"/>
      <point x="1459" y="756"/>
      <point x="1454" y="761"/>
      <point x="1448" y="761" type="curve" smooth="yes"/>
      <point x="1039" y="761" type="line"/>
      <point x="1039" y="1453" type="line"/>
      <point x="1624" y="1453" type="line" smooth="yes"/>
      <point x="1630" y="1453"/>
      <point x="1635" y="1458"/>
      <point x="1635" y="1470" type="curve" smooth="yes"/>
      <point x="1635" y="1483"/>
      <point x="1630" y="1488"/>
      <point x="1624" y="1488" type="curve" smooth="yes"/>
      <point x="1018" y="1488" type="line" smooth="yes"/>
      <point x="1003" y="1488"/>
      <point x="1001" y="1484"/>
      <point x="1001" y="1468" type="curve" smooth="yes"/>
      <point x="1001" y="15" type="line" smooth="yes"/>
      <point x="1001" y="4"/>
      <point x="1006" y="0"/>
      <point x="1020" y="0" type="curve" smooth="yes"/>
    </contour>
  </outline>
</glyph>
<glyph name="B.cur" format="2">
	<advance width="1108"/>
	<outline>
		<contour>
			<point x="672" y="-15" type="curve" smooth="yes"/>
			<point x="866" y="-15"/>
			<point x="1006" y="135"/>
			<point x="1006" y="347" type="curve" smooth="yes"/>
			<point x="1006" y="520"/>
			<point x="877" y="634"/>
			<point x="715" y="654" type="curve"/>
			<point x="715" y="656" type="line"/>
			<point x="852" y="689"/>
			<point x="942" y="807"/>
			<point x="942" y="953" type="curve" smooth="yes"/>
			<point x="942" y="1110"/>
			<point x="805" y="1212"/>
			<point x="576" y="1212" type="curve" smooth="yes"/>
			<point x="398" y="1212"/>
			<point x="211" y="1164"/>
			<point x="68" y="1063" type="curve" smooth="yes"/>
			<point x="63" y="1059"/>
			<point x="59" y="1054"/>
			<point x="63" y="1046" type="curve" smooth="yes"/>
			<point x="68" y="1036"/>
			<point x="76" y="1033"/>
			<point x="83" y="1037" type="curve" smooth="yes"/>
			<point x="219" y="1135"/>
			<point x="401" y="1182"/>
			<point x="576" y="1182" type="curve" smooth="yes"/>
			<point x="785" y="1182"/>
			<point x="909" y="1091"/>
			<point x="909" y="952" type="curve" smooth="yes"/>
			<point x="909" y="804"/>
			<point x="810" y="692"/>
			<point x="660" y="669" type="curve"/>
			<point x="642" y="677"/>
			<point x="622" y="679"/>
			<point x="601" y="679" type="curve" smooth="yes"/>
			<point x="573" y="679"/>
			<point x="547" y="666"/>
			<point x="547" y="642" type="curve" smooth="yes"/>
			<point x="547" y="622"/>
			<point x="565" y="613"/>
			<point x="588" y="613" type="curve" smooth="yes"/>
			<point x="606" y="613"/>
			<point x="636" y="618"/>
			<point x="662" y="632" type="curve"/>
			<point x="836" y="618"/>
			<point x="973" y="520"/>
			<point x="973" y="347" type="curve" smooth="yes"/>
			<point x="973" y="153"/>
			<point x="847" y="15"/>
			<point x="672" y="15" type="curve" smooth="yes"/>
			<point x="591" y="15"/>
			<point x="519" y="56"/>
			<point x="478" y="125" type="curve" smooth="yes"/>
			<point x="473" y="134"/>
			<point x="467" y="137"/>
			<point x="457" y="130" type="curve" smooth="yes"/>
			<point x="449" y="125"/>
			<point x="449" y="116"/>
			<point x="454" y="108" type="curve" smooth="yes"/>
			<point x="500" y="31"/>
			<point x="581" y="-15"/>
		</contour>
		<contour>
			<point x="259" y="-15" type="curve" smooth="yes"/>
			<point x="339" y="-15"/>
			<point x="386" y="52"/>
			<point x="386" y="165" type="curve" smooth="yes"/>
			<point x="386" y="1032" type="line" smooth="yes"/>
			<point x="386" y="1041"/>
			<point x="381" y="1044"/>
			<point x="371" y="1044" type="curve" smooth="yes"/>
			<point x="360" y="1044"/>
			<point x="356" y="1041"/>
			<point x="356" y="1032" type="curve" smooth="yes"/>
			<point x="356" y="165" type="line" smooth="yes"/>
			<point x="356" y="70"/>
			<point x="326" y="14"/>
			<point x="259" y="14" type="curve" smooth="yes"/>
			<point x="186" y="14"/>
			<point x="129" y="70"/>
			<point x="85" y="188" type="curve" smooth="yes"/>
			<point x="82" y="195"/>
			<point x="75" y="197"/>
			<point x="66" y="192" type="curve" smooth="yes"/>
			<point x="58" y="188"/>
			<point x="56" y="181"/>
			<point x="59" y="174" type="curve" smooth="yes"/>
			<point x="106" y="46"/>
			<point x="170" y="-15"/>
		</contour>
	</outline>
	<anchor name="bottom" x="609" y="0"/>
	<anchor name="center" x="370" y="350"/>
	<anchor name="top" x="609" y="1139"/>
</glyph>
